<svg width="121" height="58" viewBox="0 0 121 58" fill="none" xmlns="http://www.w3.org/2000/svg">
<g id="Frame" clip-path="url(#clip0_57_1718)">
<g id="Group">
<path id="Vector" d="M94.4158 45.8697L91.2083 37.236L88.0732 45.8697H94.4158ZM103.074 55.0822H97.9609L95.9351 49.8007H86.6262L84.6969 55.0822H79.7048L88.7725 31.8098H93.7405L103.074 55.0822Z" fill="#006480"/>
<path id="Vector_2" d="M74.4233 46.5203L78.9813 47.9673C78.2819 50.4995 77.1243 52.3806 75.5085 53.6346C73.8927 54.8646 71.8187 55.4916 69.3347 55.4916C66.2478 55.4916 63.7156 54.4305 61.7139 52.3323C59.7364 50.2101 58.7235 47.3402 58.7235 43.6745C58.7235 39.7918 59.7364 36.8014 61.7139 34.655C63.7156 32.5086 66.3443 31.4475 69.6 31.4475C72.4458 31.4475 74.7609 32.2916 76.5214 33.9797C77.5826 34.9685 78.3784 36.3914 78.909 38.2725L74.2545 39.3818C73.9892 38.176 73.4104 37.2113 72.5422 36.512C71.674 35.8126 70.6129 35.475 69.3589 35.475C67.6466 35.475 66.2237 36.102 65.1626 37.3319C64.1015 38.5619 63.5468 40.5635 63.5468 43.3369C63.5468 46.2791 64.0774 48.3772 65.1385 49.6313C66.1996 50.8853 67.5742 51.5124 69.2624 51.5124C70.5164 51.5124 71.5776 51.1265 72.494 50.3307C73.3863 49.4866 74.0374 48.2325 74.4233 46.5203Z" fill="#006480"/>
<path id="Vector_3" d="M51.175 55.0822V31.8098H55.8778V55.0822H51.175Z" fill="#006480"/>
<path id="Vector_4" d="M37.5252 55.0822V35.7408H30.6038V31.8098H49.1011V35.7408H42.2279V55.0822H37.5252Z" fill="#006480"/>
<path id="Vector_5" fill-rule="evenodd" clip-rule="evenodd" d="M27.2757 36.3435C27.4204 36.6088 27.5651 36.8982 27.7098 37.1876V49.704C27.5651 49.9934 27.4204 50.2587 27.2757 50.5481V36.3435ZM24.5023 32.7984C24.7917 33.0637 25.057 33.3531 25.3222 33.6425V53.2491C25.057 53.5385 24.7917 53.8279 24.5023 54.0932V32.7984ZM22.2353 31.062C22.5006 31.2308 22.7659 31.3997 23.0312 31.5926V55.2749C22.7659 55.4678 22.5006 55.6367 22.2353 55.8055V31.062ZM19.8237 29.8562C20.306 30.0491 20.7884 30.2662 21.2466 30.5073V56.3843C20.7884 56.6254 20.306 56.8425 19.8237 57.0354V29.8562ZM17.5809 29.2051C18.1838 29.3256 18.7626 29.4945 19.3414 29.6874V57.2042C18.7626 57.3972 18.1838 57.566 17.5809 57.6866V29.2051ZM14.5181 58.0001C6.48732 57.976 0 51.4645 0 43.4338C0 35.403 6.48732 28.8915 14.5181 28.8674V58.0001ZM6.7526 38.1764C6.41497 37.6217 6.1738 37.2117 6.02911 36.7776C5.86029 36.3435 5.78794 35.8612 5.71559 35.2342C5.69148 35.0171 5.81206 34.9448 5.90852 34.9448C6.00499 34.9207 6.12557 35.0171 6.14969 35.2101C6.22204 35.813 6.29439 36.2471 6.43909 36.6329C6.58378 37.0429 6.80083 37.4288 7.13846 37.9593C7.18669 38.0317 7.23493 38.2005 7.09023 38.297C6.94553 38.3934 6.82495 38.2728 6.7526 38.1764ZM6.92141 39.8163C6.29439 39.6716 5.83617 39.551 5.4262 39.3581C4.9921 39.1651 4.60624 38.8999 4.09979 38.4899C3.93098 38.3693 3.97921 38.2246 4.02744 38.1523C4.07568 38.0799 4.24449 38.0558 4.38919 38.1764C4.87152 38.5381 5.23326 38.7793 5.61913 38.9722C6.00499 39.1651 6.43908 39.2857 7.06611 39.4063C7.16258 39.4304 7.30728 39.5028 7.25904 39.6716C7.21081 39.8404 7.042 39.8404 6.92141 39.8163ZM8.2237 40.8533C7.69314 41.1909 7.25904 41.4321 6.82495 41.6009C6.39085 41.7697 5.93264 41.8421 5.2815 41.9385C5.06445 41.9626 4.9921 41.8421 4.96798 41.7456C4.94387 41.6491 5.04033 41.5286 5.23326 41.5044C5.83617 41.4321 6.24615 41.3356 6.65613 41.1909C7.06611 41.0462 7.45197 40.8292 7.98254 40.4915C8.05488 40.4433 8.2237 40.3951 8.32017 40.5398C8.41663 40.6604 8.32017 40.7809 8.2237 40.8533ZM9.8395 40.6604C9.6948 41.2874 9.57422 41.7456 9.38129 42.1556C9.18836 42.5897 8.92308 42.9755 8.5131 43.482C8.39252 43.6508 8.24782 43.6026 8.17547 43.5543C8.10312 43.5061 8.079 43.3373 8.19958 43.1926C8.56133 42.7103 8.80249 42.3485 8.99543 41.9626C9.18836 41.5527 9.30894 41.1427 9.42952 40.5157C9.45364 40.4192 9.52599 40.2745 9.6948 40.3227C9.86362 40.3951 9.86362 40.5398 9.8395 40.6604ZM10.8765 39.3822C11.2383 39.9128 11.4553 40.3227 11.6241 40.7809C11.7929 41.215 11.8894 41.6733 11.9617 42.3244C11.9859 42.5414 11.8653 42.6138 11.7688 42.6379C11.6723 42.662 11.5518 42.5656 11.5276 42.3726C11.4553 41.7697 11.3588 41.3597 11.2141 40.9498C11.0694 40.5398 10.8524 40.1539 10.4906 39.6234C10.4424 39.551 10.3942 39.3822 10.5389 39.2857C10.6836 39.1651 10.8042 39.2857 10.8765 39.3822ZM10.6836 37.7423C11.3106 37.8629 11.7688 38.0076 12.2029 38.2005C12.637 38.3934 13.0229 38.6587 13.5293 39.0446C13.6981 39.1651 13.6499 39.3098 13.6017 39.3822C13.5534 39.4545 13.3846 39.4787 13.2399 39.3581C12.7576 38.9963 12.3958 38.7552 12.01 38.5864C11.6 38.3934 11.1659 38.2728 10.563 38.1523C10.4665 38.1281 10.3218 38.0558 10.3701 37.887C10.3942 37.7423 10.563 37.7182 10.6836 37.7423ZM9.38129 36.7294C9.91185 36.3676 10.3218 36.1506 10.78 35.9818C11.2141 35.813 11.6723 35.7165 12.3235 35.6441C12.5405 35.62 12.6129 35.7406 12.637 35.8371C12.6611 35.9335 12.5647 36.0541 12.3717 36.0782C11.7688 36.1747 11.3588 36.2471 10.9489 36.3918C10.5389 36.5365 10.153 36.7776 9.62245 37.1152C9.5501 37.1635 9.38129 37.2117 9.28482 37.067C9.18836 36.9223 9.28482 36.8017 9.38129 36.7294ZM7.76549 36.9223C7.88607 36.2953 8.03077 35.8371 8.2237 35.403C8.41663 34.9689 8.68191 34.583 9.06777 34.0525C9.18836 33.8836 9.33306 33.9078 9.40541 33.9801C9.47775 34.0283 9.52599 34.1972 9.38129 34.3419C9.01954 34.8242 8.77838 35.1859 8.60956 35.5718C8.44075 35.9818 8.32017 36.4159 8.17547 37.0188C8.15135 37.1152 8.079 37.2599 7.91019 37.2358C7.74137 37.2117 7.74137 37.0429 7.76549 36.9223ZM15.0004 28.8915C15.7239 28.9157 16.4233 28.988 17.0985 29.1086V57.8071C16.4233 57.9277 15.7239 58.0001 15.0004 58.0242V28.8915Z" fill="#006480"/>
<path id="Vector_6" fill-rule="evenodd" clip-rule="evenodd" d="M98.9256 31.1101C98.9256 30.9654 98.9738 30.9413 99.0944 30.9413H99.6249C99.7938 30.9413 99.9867 30.9895 99.9867 31.1825V31.3031C99.9867 31.4719 99.8179 31.5442 99.6249 31.5442H99.0944C98.9497 31.5442 98.9256 31.496 98.9256 31.3754V31.1101ZM99.9143 31.8819C100.252 31.713 100.493 31.7372 100.493 31.1825V31.1101C100.493 30.7243 100.083 30.459 99.6732 30.459H98.6362C98.4915 30.459 98.4673 30.5072 98.4673 30.6278V32.7983C98.4673 32.943 98.5156 32.9671 98.6362 32.9671H98.9256V32.0989C98.9256 31.9542 98.9738 31.9301 99.0944 31.9301H99.1426C99.5526 31.9301 99.9143 32.9912 100.204 32.9912H100.662L99.9143 31.8819Z" fill="#006480"/>
<path id="Vector_7" d="M99.3838 28.9639C100.18 28.9639 100.879 29.2774 101.41 29.8079C101.916 30.3144 102.254 31.0379 102.254 31.8337C102.254 32.6296 101.94 33.3289 101.41 33.8595C100.903 34.3659 100.18 34.7036 99.3838 34.7036C98.5879 34.7036 97.8886 34.3901 97.358 33.8595C96.8515 33.3531 96.5139 32.6296 96.5139 31.8337C96.5139 31.0379 96.8274 30.3385 97.358 29.8079C97.8886 29.2774 98.612 28.9639 99.3838 28.9639ZM101.12 30.0973C100.686 29.6632 100.059 29.3738 99.3838 29.3738C98.7085 29.3738 98.1056 29.6391 97.6474 30.0973C97.2133 30.5314 96.9239 31.1585 96.9239 31.8337C96.9239 32.509 97.1892 33.1119 97.6474 33.5701C98.0815 34.0042 98.7085 34.2936 99.3838 34.2936C100.059 34.2936 100.662 34.0283 101.12 33.5701C101.554 33.136 101.844 32.509 101.844 31.8337C101.844 31.1585 101.554 30.5314 101.12 30.0973Z" fill="#006480"/>
<path id="Vector_8" fill-rule="evenodd" clip-rule="evenodd" d="M120.413 0H79.8495V20.2819L120.413 28.9638V0Z" fill="#ED1C24"/>
<path id="Vector_9" d="M99.9626 17.9911H99.432V19.4139H99.3114V17.9911H98.7809V17.8705H99.9626V17.9911ZM100.373 19.4139H100.252V17.8705H100.373V19.4139ZM101.868 18.9316C101.844 19.1004 101.795 19.221 101.699 19.2934C101.603 19.3898 101.482 19.4139 101.313 19.4139C101.193 19.4139 101.096 19.3898 101 19.3175C100.903 19.2693 100.855 19.1728 100.807 19.0763C100.758 18.9799 100.734 18.8593 100.734 18.7146V18.5216C100.734 18.3769 100.758 18.2564 100.807 18.1599C100.855 18.0634 100.927 17.967 101.024 17.9187C101.12 17.8705 101.217 17.8223 101.337 17.8223C101.506 17.8223 101.627 17.8705 101.723 17.967C101.82 18.0634 101.868 18.184 101.892 18.3287H101.771C101.747 18.0634 101.603 17.9428 101.337 17.9428C101.193 17.9428 101.096 17.9911 101 18.0875C100.927 18.184 100.879 18.3287 100.879 18.5216V18.7146C100.879 18.8834 100.927 19.0281 101 19.1487C101.072 19.2451 101.193 19.3175 101.337 19.3175C101.482 19.3175 101.578 19.2934 101.651 19.221C101.723 19.1487 101.771 19.0522 101.771 18.9316H101.868ZM103.001 18.9799H102.302L102.133 19.4139H102.012L102.591 17.8705H102.712L103.291 19.4139H103.146L103.001 18.9799ZM102.35 18.8593H102.977L102.664 18.0152L102.35 18.8593ZM104.304 18.7869V19.4139H104.183V17.8705H104.714C104.882 17.8705 105.003 17.9187 105.099 17.9911C105.196 18.0634 105.244 18.184 105.244 18.3287C105.244 18.4734 105.196 18.594 105.099 18.6663C105.003 18.7387 104.882 18.7869 104.714 18.7869H104.304ZM104.304 18.6663H104.689C104.81 18.6663 104.906 18.6422 104.979 18.5699C105.051 18.5216 105.075 18.4252 105.075 18.3287C105.075 18.2322 105.051 18.1358 104.979 18.0634C104.906 17.9911 104.81 17.967 104.689 17.967H104.279V18.6663H104.304ZM106.088 18.7628H105.63V19.3898H105.509V17.8464H106.016C106.185 17.8464 106.305 17.8946 106.402 17.967C106.498 18.0393 106.546 18.1599 106.546 18.3046C106.546 18.4011 106.522 18.4975 106.45 18.5699C106.402 18.6422 106.305 18.6905 106.209 18.7146L106.595 19.3657V19.3898H106.45L106.088 18.7628ZM105.63 18.6663H106.016C106.136 18.6663 106.209 18.6422 106.281 18.5699C106.353 18.4975 106.378 18.4252 106.378 18.3287C106.378 18.2322 106.353 18.1358 106.281 18.0875C106.209 18.0393 106.112 17.9911 105.992 17.9911H105.63V18.6663ZM108.017 18.7146C108.017 18.8593 107.993 18.9799 107.945 19.0763C107.897 19.1728 107.825 19.2693 107.728 19.3175C107.632 19.3657 107.535 19.4139 107.415 19.4139C107.246 19.4139 107.101 19.3416 106.98 19.221C106.86 19.1004 106.812 18.9316 106.812 18.6905V18.5216C106.812 18.3769 106.836 18.2564 106.884 18.1599C106.932 18.0634 107.005 17.967 107.101 17.9187C107.198 17.8705 107.294 17.8223 107.415 17.8223C107.535 17.8223 107.632 17.8464 107.728 17.9187C107.825 17.967 107.897 18.0634 107.945 18.1599C107.993 18.2564 108.017 18.3769 108.017 18.5216V18.7146ZM107.897 18.5458C107.897 18.3528 107.849 18.2081 107.776 18.1117C107.704 18.0152 107.583 17.9428 107.439 17.9428C107.294 17.9428 107.173 17.9911 107.101 18.1117C107.005 18.2081 106.98 18.3528 106.98 18.5458V18.7146C106.98 18.9075 107.029 19.0522 107.101 19.1487C107.198 19.2451 107.294 19.3175 107.439 19.3175C107.583 19.3175 107.704 19.2693 107.776 19.1487C107.849 19.0522 107.897 18.9075 107.897 18.7146V18.5458Z" fill="white"/>
<path id="Vector_10" d="M106.064 14.9521C106.329 14.8315 106.57 14.6627 106.763 14.4215C106.956 14.2045 107.101 13.9151 107.222 13.5775C107.318 13.2398 107.39 12.8781 107.39 12.4681C107.39 12.0581 107.342 11.6723 107.222 11.3588C107.101 11.0211 106.956 10.7558 106.763 10.5388C106.57 10.3217 106.329 10.1529 106.064 10.0323C105.509 9.79118 104.569 9.79118 104.014 10.0323C103.749 10.1529 103.508 10.3217 103.315 10.5388C103.122 10.7558 102.953 11.0452 102.857 11.3588C102.736 11.6964 102.688 12.0581 102.688 12.4681C102.688 12.8781 102.736 13.2639 102.857 13.5775C102.953 13.9151 103.122 14.1804 103.315 14.4215C103.508 14.6386 103.749 14.8315 104.014 14.9521C104.545 15.2174 105.533 15.1933 106.064 14.9521ZM106.643 8.87476C107.077 9.06769 107.463 9.33297 107.8 9.6706C108.114 10.0082 108.379 10.4182 108.548 10.9005C108.717 11.3829 108.813 11.9134 108.813 12.4922C108.813 13.071 108.717 13.6016 108.548 14.0839C108.379 14.5662 108.114 14.9762 107.8 15.3138C107.487 15.6515 107.101 15.9168 106.643 16.1097C105.726 16.4956 104.328 16.4956 103.411 16.1097C102.953 15.9168 102.591 15.6515 102.254 15.3138C101.94 14.9762 101.675 14.5662 101.506 14.0839C101.337 13.6016 101.241 13.071 101.241 12.4922C101.241 11.9134 101.337 11.3588 101.506 10.8764C101.699 10.3941 101.94 9.98412 102.254 9.64649C102.567 9.30886 102.953 9.04358 103.411 8.85064C104.352 8.4889 105.75 8.4889 106.643 8.87476Z" fill="white"/>
<path id="Vector_11" d="M87.0603 12.1303H89.5202C89.7855 12.1303 90.0025 12.1062 90.1713 12.058C90.3643 12.0098 90.509 11.9374 90.6054 11.8409C90.726 11.7445 90.7984 11.6239 90.8466 11.5033C90.8948 11.3586 90.9189 11.2139 90.9189 11.021C90.9189 10.8039 90.8707 10.6351 90.7984 10.4904C90.726 10.3698 90.6054 10.2493 90.4848 10.1769C90.3401 10.1046 90.1954 10.0563 90.0266 10.0322C89.8578 10.0081 89.6649 9.98398 89.472 9.98398H87.0603V12.1303ZM85.6616 8.70581H89.4237C89.8096 8.70581 90.1954 8.72993 90.5572 8.80228C90.9189 8.87463 91.2324 8.99521 91.4977 9.16402C91.763 9.33284 91.9801 9.574 92.1489 9.8634C92.3177 10.1528 92.39 10.5387 92.39 10.9969C92.39 11.7927 92.1489 12.3956 91.6665 12.8056C91.1842 13.2156 90.4607 13.4085 89.4961 13.4085H87.0844C87.0844 13.915 87.0844 14.4214 87.0844 14.9278C87.1085 15.5066 87.1809 16.2543 85.6857 16.2543C85.6857 16.0854 85.6857 15.9166 85.6857 15.7478V8.70581H85.6616Z" fill="white"/>
<path id="Vector_12" d="M94.8981 11.9374H97.358C97.6233 11.9374 97.8404 11.9133 98.0092 11.8651C98.2021 11.8168 98.3468 11.7445 98.4433 11.648C98.5638 11.5515 98.6362 11.431 98.6844 11.3104C98.805 11.021 98.805 10.7798 98.6362 10.5145C98.5638 10.394 98.4433 10.2734 98.3227 10.201C98.178 10.1287 98.0333 10.0804 97.8645 10.0563C97.6957 10.0322 97.5027 10.0081 97.3098 10.0081H94.8981V11.9374ZM98.0092 14.2044C97.9609 14.0597 97.8886 13.9391 97.7921 13.8185C97.6957 13.6979 97.5992 13.6014 97.4786 13.505C97.1651 13.2638 96.8998 13.2397 96.514 13.2397H94.874C94.874 13.8426 94.874 14.4214 94.874 15.0243C94.874 15.6755 94.9223 16.2784 93.4753 16.2784V8.70581H97.2374C97.6233 8.70581 98.0092 8.72993 98.3709 8.80228C98.7327 8.87463 99.0462 8.99521 99.3115 9.16402C99.5767 9.33284 99.7938 9.574 99.9626 9.8634C100.445 10.7316 100.252 11.9615 99.4803 12.6127C99.2873 12.7574 99.0703 12.878 98.8291 12.9744C98.9256 13.0709 99.0221 13.1673 99.0944 13.2879C99.215 13.4809 99.3356 13.722 99.432 13.9873C99.6973 14.7349 99.9867 15.4825 100.252 16.2543C98.9497 16.2543 98.6121 15.9407 98.2986 15.0484L98.0092 14.2044Z" fill="white"/>
</g>
</g>
<defs>
<clipPath id="clip0_57_1718">
<rect width="120.413" height="58" fill="white"/>
</clipPath>
</defs>
</svg>
