<svg width="189" height="42" viewBox="0 0 189 42" fill="none" xmlns="http://www.w3.org/2000/svg">
<g id="logo 1">
<path id="Vector" d="M185.337 3.8803C185.649 3.8803 185.925 3.90128 185.925 4.23144C185.925 4.58647 185.44 4.5282 185.087 4.5282H184.688V3.8803H185.337ZM185.605 4.90343C185.955 4.89022 186.301 4.703 186.301 4.19338C186.301 3.64336 185.878 3.50042 185.407 3.50042H184.308V6.10989H184.688V4.90343H185.172L185.835 6.11067H186.265L185.605 4.90343ZM185.205 7.10582C186.503 7.10582 187.531 6.07959 187.531 4.78612C187.531 3.49498 186.503 2.46875 185.205 2.46875C183.908 2.46875 182.881 3.49498 182.881 4.78612C182.881 6.07882 183.908 7.10582 185.205 7.10582ZM185.205 2.84553C186.265 2.84553 187.15 3.69153 187.15 4.78612C187.15 5.87528 186.265 6.72905 185.205 6.72905C184.145 6.72905 183.259 5.87528 183.259 4.78612C183.259 3.69153 184.145 2.84553 185.205 2.84553Z" fill="#1D1D1B"/>
<path id="Vector_2" d="M173.599 2.55225V14.2906L164.782 2.55225H160.386V17.2232H163.318V5.49887L172.132 17.2232H176.528V2.55225H173.599Z" fill="#1D1D1B"/>
<path id="Vector_3" d="M151.582 5.39757L154.51 11.7802H148.69L151.582 5.39757ZM150.118 2.55737L142.778 17.2221H146.1L147.513 14.1551H155.516L157.059 17.2221H160.377L153.046 2.55737H150.118Z" fill="#1D1D1B"/>
<path id="Vector_4" d="M120.772 9.13518H110.5V11.7058H117.466C116.565 13.8437 114.123 15.385 111.241 15.385H111.235C107.59 15.385 104.641 12.9247 104.641 9.88951C104.641 6.85121 107.592 4.39323 111.238 4.39323L111.984 4.39866C113.624 4.39866 115.14 4.80962 116.361 5.4886L116.37 2.60023C115.039 2.10538 113.55 1.82959 111.98 1.82959H111.236C105.977 1.82959 101.711 5.44354 101.711 9.89028C101.711 14.3409 105.975 17.9502 111.236 17.9502H111.242C116.502 17.9502 120.77 14.3409 120.77 9.89028H120.765L120.773 9.86931L120.772 9.13518Z" fill="#1D1D1B"/>
<path id="Vector_5" d="M139.843 9.13518H129.568V11.7058H136.539C135.639 13.8437 133.193 15.385 130.314 15.385H130.308C126.668 15.385 123.71 12.9247 123.71 9.88951C123.71 6.85121 126.669 4.39323 130.312 4.39323L131.056 4.39866C132.697 4.39866 134.213 4.80962 135.434 5.4886L135.439 2.60023C134.109 2.10538 132.619 1.82959 131.049 1.82959H130.309C125.047 1.82959 120.78 5.44354 120.78 9.89028C120.78 14.3409 125.046 17.9502 130.309 17.9502H130.314C135.574 17.9502 139.839 14.3409 139.839 9.89028L139.844 9.86931V9.13518H139.843Z" fill="#1D1D1B"/>
<path id="Vector_6" d="M87.0441 2.55225V17.2232H101.712V14.6767H89.9798V11.3455H98.7816V8.67856H89.9658V5.09879H101.712V2.55225H87.0441Z" fill="#1D1D1B"/>
<path id="Vector_7" d="M67.973 2.5459V17.2184H70.9048V11.3702H82.6191V17.2184H85.5494V2.55289H82.616L82.6191 8.4143H70.9048V2.5459H67.973Z" fill="#1D1D1B"/>
<path id="Vector_8" d="M46.6956 15.3844C43.0513 15.3844 40.0985 12.9241 40.0985 9.89124C40.0985 6.85294 43.0513 4.39263 46.6956 4.39263L47.4414 4.39807C49.0836 4.39807 50.597 4.80902 51.8205 5.48722L51.8259 2.59964C50.496 2.104 49.0075 1.82666 47.4351 1.82666H46.6925C41.4331 1.82666 37.1658 5.44216 37.1658 9.88968C37.1658 14.3395 41.4331 17.9488 46.6925 17.9488L47.4351 17.9069C49.0067 17.9069 50.496 17.6326 51.8259 17.137L51.8205 14.2556C50.597 14.9346 49.0836 15.3394 47.4414 15.3394L46.6956 15.3844Z" fill="#1D1D1B"/>
<path id="Vector_9" d="M61.3572 15.3844C57.7153 15.3844 54.7609 12.9241 54.7609 9.89124C54.7609 6.85294 57.7153 4.39263 61.3572 4.39263L62.103 4.39807C63.7445 4.39807 65.2602 4.80902 66.4806 5.48722L66.4884 2.59964C65.16 2.104 63.6692 1.82666 62.0976 1.82666H61.3549C56.0956 1.82666 51.8298 5.44216 51.8298 9.88968C51.8298 14.3395 56.0956 17.9488 61.3549 17.9488L62.0984 17.9069C63.6692 17.9069 65.16 17.6326 66.4892 17.137L66.4814 14.2556C65.261 14.9346 63.7453 15.3394 62.1038 15.3394L61.3572 15.3844Z" fill="#1D1D1B"/>
<path id="Vector_10" d="M27.6454 15.3889C24.0012 15.3889 21.0483 12.924 21.0483 9.89033C21.0483 6.85203 24.0012 4.39327 27.6454 4.39327C31.2858 4.39327 34.2417 6.85203 34.2417 9.89033C34.2417 12.924 31.2858 15.3889 27.6454 15.3889ZM27.6431 1.82886C22.383 1.82886 18.1165 5.44358 18.1165 9.88955C18.1165 14.3464 22.383 17.9549 27.6431 17.9549C32.9048 17.9549 37.1705 14.3464 37.1705 9.88955C37.1697 5.44358 32.9048 1.82886 27.6431 1.82886Z" fill="#1D1D1B"/>
<path id="Vector_11" d="M4.89352 17.2232V11.3564H10.7472L15.1473 17.2232L18.8451 17.2194L14.4776 11.3704C15.7525 11.1808 16.5713 10.8709 17.3 10.1748C18.0869 9.41658 18.4777 8.41909 18.4777 7.18621C18.4777 5.76223 17.996 4.63112 17.0343 3.80221C16.0679 2.97408 14.7379 2.55225 13.0467 2.55225H1.96088V17.224L4.89352 17.2232ZM4.89663 5.09025H12.3211C14.4823 5.09025 15.559 5.50354 15.559 7.0961C15.559 8.56902 14.56 9.11205 12.5588 9.11205H4.89663V5.09025Z" fill="#1D1D1B"/>
<path id="Vector_12" d="M142.778 2.55225H139.843V17.2232H142.778V2.55225Z" fill="#1D1D1B"/>
<path id="Vector_13" d="M180.898 2.54517H177.964V17.2232H180.898V2.54517Z" fill="#1D1D1B"/>
<path id="Vector_14" d="M131.289 28.6336C131.289 28.5342 131.245 28.4853 131.16 28.4853C131.118 28.4853 131.081 28.5 131.049 28.5319C131.016 28.5598 130.968 28.587 130.904 28.6119C130.841 28.6344 130.804 28.7152 130.79 28.855L130.342 29.1456C130.235 29.1782 130.183 29.2442 130.183 29.3445V29.4128C130.198 29.454 130.203 29.4874 130.203 29.5138C130.203 29.541 130.191 29.5534 130.164 29.5534C130.137 29.5534 130.122 29.5247 130.122 29.4633C130.122 29.4035 130.103 29.3748 130.063 29.3748C130.037 29.3748 130.005 29.3919 129.969 29.426C129.933 29.4587 129.867 29.5084 129.775 29.5729C129.682 29.6397 129.603 29.7127 129.541 29.788C129.478 29.8657 129.398 29.9108 129.307 29.9224C129.214 29.9364 129.149 29.9745 129.113 30.0421C129.076 30.1089 128.987 30.1571 128.844 30.1866C128.701 30.2161 128.591 30.3179 128.511 30.4903L128.471 30.5113H128.33C128.284 30.5113 128.235 30.5385 128.181 30.5905L128.101 30.662C128.049 30.6892 128.008 30.7413 127.982 30.8205L127.883 30.8819C127.81 30.8819 127.709 30.9207 127.583 31.0015C127.457 31.0815 127.372 31.1693 127.325 31.268L127.224 31.2291C127.145 31.2555 127.086 31.268 127.046 31.268C126.92 31.2695 126.803 31.3045 126.693 31.3697C126.583 31.4381 126.465 31.4692 126.338 31.4707L125.861 31.5399C125.51 31.5414 125.332 31.4459 125.332 31.2517C125.332 31.24 125.347 31.1724 125.373 31.0489C125.399 30.9238 125.419 30.8236 125.433 30.7444C125.539 30.676 125.641 30.6449 125.739 30.6449L125.941 30.4336L126.039 30.4546L126.168 30.3334C126.274 30.3218 126.327 30.2736 126.327 30.1951C126.327 30.1237 126.352 30.0514 126.406 29.9854C126.486 30.0118 126.532 30.0265 126.546 30.0265C126.631 30.0265 126.798 29.9038 127.044 29.656C127.149 29.656 127.219 29.6125 127.251 29.527C127.285 29.4385 127.358 29.3608 127.47 29.287L127.649 29.3064C127.776 29.0469 127.891 28.918 127.997 28.9164C128.023 28.9164 128.041 28.9257 128.055 28.942C128.069 28.9584 128.088 28.9677 128.115 28.9661C128.155 28.9661 128.207 28.9358 128.269 28.8721C128.331 28.8092 128.392 28.7618 128.452 28.7323C128.512 28.702 128.598 28.6321 128.711 28.5179C128.836 28.4915 129.005 28.3718 129.216 28.1582C129.428 27.9461 129.534 27.7364 129.534 27.5305C129.534 27.4171 129.474 27.2936 129.35 27.1615C129.228 27.0286 129.092 26.9618 128.946 26.9618C128.827 26.9618 128.725 26.9432 128.642 26.9036C128.559 26.8632 128.505 26.8438 128.477 26.8438L128.059 26.8647C127.934 26.8647 127.801 26.8888 127.666 26.9339C127.529 26.9805 127.421 27.0046 127.333 27.0046L127.174 26.9634C127.16 26.9634 127.147 26.9735 127.134 26.9844C127.094 27.0387 127.02 27.0986 126.906 27.1638C126.462 27.3223 126.189 27.4536 126.089 27.5538L125.97 27.7232C125.765 27.8358 125.655 27.9702 125.642 28.1201C125.628 28.2747 125.544 28.3571 125.383 28.3718L125.175 28.5412C125.081 28.7269 125.021 28.8426 124.997 28.89L124.768 29.3079C124.728 29.4214 124.694 29.4874 124.667 29.5076L124.581 29.837C124.566 29.8479 124.555 29.8541 124.541 29.8673C124.295 30.1104 124.117 30.2713 124.004 30.3443C123.891 30.4173 123.791 30.495 123.701 30.5781C123.612 30.662 123.514 30.7242 123.412 30.7622C123.309 30.805 123.203 30.8687 123.097 30.9572C122.992 31.0466 122.881 31.1126 122.766 31.1514C122.648 31.1918 122.55 31.24 122.466 31.2928C122.382 31.3457 122.287 31.3853 122.178 31.4125C122.069 31.4397 121.986 31.4738 121.934 31.5158C121.879 31.5601 121.847 31.5818 121.835 31.5818L121.694 31.543C121.608 31.5818 121.559 31.6012 121.544 31.6012C121.287 31.6028 121.156 31.5523 121.156 31.4529C121.156 31.414 121.182 31.362 121.231 31.2944C121.281 31.2283 121.32 31.1514 121.346 31.0691C121.371 30.9875 121.399 30.9316 121.426 30.9052L121.506 30.7871C121.558 30.6729 121.6 30.5968 121.628 30.5556C121.659 30.5167 121.675 30.4896 121.675 30.4763V30.2969C121.675 30.2448 121.74 30.1928 121.872 30.1493C121.959 30.0297 122.028 29.9092 122.082 29.7904L122.181 29.7189C122.533 29.2683 122.756 29.0174 122.847 28.9716C122.961 28.7937 123.017 28.6142 123.017 28.434C123.017 28.3679 122.968 28.1924 122.871 27.9065C122.775 27.6214 122.7 27.4318 122.647 27.3402L122.588 27.1895C122.561 26.7055 122.348 26.4639 121.949 26.4639C121.61 26.4639 121.318 26.5866 121.074 26.8329C121.021 26.9005 120.97 26.9463 120.924 26.9743C120.878 27.0015 120.847 27.0255 120.835 27.0535C120.695 27.226 120.465 27.4085 120.139 27.602L120.079 27.7325L119.93 27.7713L119.812 27.9112C119.651 27.9648 119.504 28.0665 119.368 28.2157C119.233 28.3648 119.112 28.4604 119.01 28.5039C118.908 28.5482 118.842 28.6018 118.817 28.6709C118.79 28.7362 118.724 28.7758 118.616 28.789C118.524 28.8007 118.38 28.8846 118.195 29.0345C118.16 29.0011 118.126 28.9786 118.099 28.9786C117.988 28.9786 117.878 29.0594 117.772 29.2225C117.666 29.3849 117.551 29.4936 117.43 29.5464C117.308 29.6 117.238 29.6715 117.218 29.7616C117.197 29.8502 117.138 29.8945 117.039 29.8945L116.881 30.0359C116.8 30.1019 116.732 30.1842 116.673 30.2845L116.573 30.3256C116.532 30.3373 116.465 30.4064 116.369 30.5292C116.273 30.6519 116.12 30.7397 115.907 30.7941C115.86 30.7537 115.838 30.6713 115.838 30.5447L115.877 30.2681L115.857 30.0196C115.857 29.9659 115.885 29.9046 115.943 29.8331C115.998 29.7647 116.025 29.708 116.025 29.6692L116.024 29.6482L116.164 29.2427C116.18 29.1759 116.197 29.1161 116.224 29.0632C116.608 28.6779 116.801 28.2685 116.8 27.8366C116.8 27.4722 116.656 27.2897 116.371 27.2912C115.972 27.2912 115.712 27.4109 115.589 27.654C115.467 27.8972 115.372 28.0168 115.305 28.0168C115.253 28.0168 115.221 27.9585 115.205 27.8389C115.165 27.2695 114.938 26.9836 114.528 26.9836C114.487 26.9836 114.452 26.9906 114.428 27.003L114.268 27.0822H114.248C114.147 27.0317 114.085 27.0046 114.058 27.0046H113.999C113.673 27.17 113.498 27.2539 113.471 27.2539H113.391C113.304 27.2539 113.185 27.2959 113.036 27.3821C112.888 27.4691 112.734 27.5398 112.577 27.5981C112.422 27.6532 112.282 27.7434 112.16 27.8614C112.036 27.9811 111.956 28.0487 111.915 28.0611C111.643 28.2017 111.39 28.3874 111.159 28.6181L110.933 28.8434C110.885 28.8752 110.836 28.9094 110.776 28.9545C110.58 29.0974 110.474 29.2108 110.457 29.2932C110.455 29.3072 110.451 29.3165 110.446 29.3266C110.424 29.3546 110.398 29.3825 110.372 29.4113C110.361 29.4152 110.348 29.4175 110.332 29.4175L110.214 29.3981C110.187 29.3981 110.121 29.4447 110.015 29.5379L109.975 29.5783C109.808 29.6265 109.666 29.7414 109.546 29.9271C109.474 29.9543 109.425 29.9838 109.399 30.0164C109.372 30.0498 109.304 30.091 109.194 30.1345C109.084 30.1835 108.978 30.2448 108.876 30.3202C108.773 30.3971 108.711 30.4336 108.693 30.4336H108.544C108.35 30.6224 108.161 30.742 107.973 30.7995C107.783 30.8562 107.649 30.9456 107.57 31.0652C107.218 31.1577 107.029 31.2734 107.003 31.4125L106.914 31.4327H106.814C106.723 31.5072 106.668 31.543 106.654 31.543C106.643 31.543 106.588 31.5531 106.496 31.5725C106.404 31.5935 106.285 31.6129 106.149 31.6323L105.721 31.7046H105.571C105.274 31.7046 105.124 31.6012 105.122 31.3961L105.202 31.0481L105.181 30.829C105.181 30.8018 105.214 30.7615 105.277 30.7032C105.341 30.648 105.372 30.5983 105.372 30.5587L105.371 30.4585C105.356 30.4064 105.352 30.373 105.352 30.3598C105.352 30.3078 105.395 30.2448 105.48 30.1757C105.566 30.1066 105.64 30.0436 105.7 29.9924L105.957 29.5612C106.15 29.3173 106.271 29.1401 106.325 29.0345H106.384C106.443 29.0197 106.539 28.9778 106.673 28.904C106.724 28.8108 106.805 28.7377 106.916 28.6849C107.025 28.6336 107.103 28.5816 107.15 28.5311C107.196 28.4798 107.256 28.4441 107.333 28.42C107.409 28.3982 107.5 28.3478 107.607 28.2763C107.639 28.2102 107.666 28.1621 107.686 28.1364H107.707L107.785 28.1559L107.874 28.2351H107.894C107.993 28.1753 108.137 28.124 108.322 28.0852C108.461 28.1434 108.63 28.1955 108.828 28.2336C108.909 28.326 108.973 28.3749 109.028 28.3749C109.181 28.3734 109.344 28.3027 109.519 28.1598C109.694 28.0153 109.783 27.891 109.783 27.7869C109.782 27.7604 109.749 27.6393 109.682 27.421C109.614 27.205 109.547 27.0838 109.477 27.0535C109.408 27.0224 109.339 26.989 109.273 26.9486C109.206 26.9075 109.16 26.8904 109.133 26.8904C109.061 26.8904 108.986 26.9292 108.905 27.0084C108.633 26.902 108.484 26.85 108.457 26.85C108.35 26.85 108.262 26.8779 108.188 26.9308C108.115 26.9844 108.075 27.0108 108.07 27.0108C108.057 27.0108 108.043 27.0053 108.029 26.9898C107.989 26.951 107.907 26.9315 107.779 26.9315C107.647 26.9315 107.542 26.9991 107.462 27.1312H107.313C107.194 27.1327 107.005 27.2182 106.746 27.3899L106.379 27.6229C106.287 27.734 106.183 27.8265 106.071 27.8956C105.958 27.9655 105.865 28.0541 105.793 28.1613C105.693 28.1419 105.589 28.204 105.484 28.3493C105.38 28.4954 105.313 28.5816 105.286 28.6072L105.305 28.7673C105.305 28.7805 105.3 28.7882 105.286 28.7882C105.114 28.8558 104.961 28.9988 104.829 29.2171C104.696 29.4354 104.63 29.5791 104.63 29.6451V29.7438C104.465 29.8036 104.354 29.9481 104.303 30.1788C104.248 30.4064 104.197 30.589 104.144 30.7257C104.091 30.8617 104.064 30.9658 104.064 31.0302C104.064 31.0761 104.071 31.1079 104.085 31.1196L104.165 31.3596C104.237 31.7566 104.38 31.9765 104.593 32.0153L104.652 32.0961C104.719 32.2546 104.766 32.3431 104.792 32.3649L105.22 32.5816C105.295 32.6484 105.369 32.6842 105.45 32.6842C105.463 32.6842 105.573 32.6484 105.78 32.5816C105.832 32.608 105.893 32.6508 105.958 32.7059C106.024 32.7626 106.135 32.7906 106.288 32.7906H106.307C106.413 32.7292 106.526 32.6982 106.648 32.6904C106.771 32.6834 106.833 32.6306 106.833 32.5319C106.833 32.4309 106.866 32.3828 106.932 32.3828H106.953C107.065 32.462 107.134 32.5008 107.162 32.5008C107.188 32.5008 107.24 32.4628 107.315 32.3859C107.393 32.3097 107.451 32.2585 107.491 32.2297C107.65 32.2297 107.758 32.1792 107.819 32.072L107.998 32.1116C108.078 32.0868 108.138 32.0425 108.182 31.9881C108.224 31.9322 108.296 31.8669 108.396 31.7923C108.495 31.7209 108.552 31.6642 108.57 31.6284C108.586 31.5911 108.604 31.564 108.624 31.5445H108.772L108.972 31.414C109.07 31.3208 109.142 31.2687 109.182 31.2532C109.25 31.233 109.349 31.1608 109.477 31.0466L109.489 31.2338V31.2936C109.477 31.32 109.47 31.3728 109.47 31.4521C109.47 31.6199 109.499 31.7496 109.56 31.8436L109.66 32.2484C109.679 32.3882 109.809 32.5078 110.048 32.6065C110.288 32.7059 110.497 32.7564 110.675 32.7564C110.895 32.7564 111.271 32.5793 111.801 32.2258L111.861 32.1683C112.013 32.0876 112.129 32.0215 112.21 31.9687L112.966 31.3495C113.058 31.2819 113.136 31.198 113.196 31.0947C113.255 30.993 113.29 30.9331 113.304 30.9207L113.495 30.9401L113.594 30.8399C113.627 30.7918 113.685 30.756 113.773 30.7249C113.858 30.6946 113.909 30.6574 113.92 30.6115L113.962 30.5501C114.042 30.4989 114.107 30.4367 114.16 30.3722C114.192 30.2464 114.237 30.1633 114.289 30.1237C114.382 30.1237 114.465 30.0895 114.533 30.0234C114.603 29.9559 114.65 29.924 114.678 29.924C114.704 29.924 114.718 29.9434 114.718 29.9823L114.658 30.4709C114.658 30.4989 114.666 30.5307 114.679 30.5703C114.692 30.6107 114.7 30.6465 114.7 30.6791C114.7 30.7063 114.691 30.7265 114.679 30.7405C114.665 30.7537 114.658 30.7731 114.658 30.8003C114.658 30.8259 114.675 30.8601 114.71 30.8997C114.741 30.9401 114.758 30.9728 114.758 30.9999L114.72 31.1872C114.72 31.3223 114.748 31.4257 114.809 31.501C114.867 31.5779 114.902 31.6393 114.909 31.6859C114.916 31.7333 114.938 31.7737 114.979 31.8157C115.092 31.8289 115.201 31.8592 115.308 31.9097C115.413 31.9586 115.528 31.9835 115.656 31.9835C115.683 31.9835 115.73 31.9664 115.8 31.9291C115.869 31.8918 115.977 31.8545 116.119 31.8149C116.262 31.7721 116.365 31.7209 116.432 31.6548L116.451 31.5554C116.544 31.529 116.623 31.4987 116.69 31.4645C116.797 31.3464 116.895 31.2788 116.984 31.2656C117.073 31.2524 117.143 31.1926 117.193 31.0862C117.243 30.9805 117.34 30.9052 117.487 30.8578L117.586 30.7164C117.712 30.6325 117.791 30.5579 117.82 30.4981C117.85 30.4383 117.915 30.3816 118.014 30.3295L118.084 30.1982L118.099 30.098C118.178 30.077 118.24 30.0429 118.278 29.9885C118.341 29.9038 118.397 29.8385 118.453 29.8013L118.651 29.7492C118.764 29.6979 118.834 29.67 118.86 29.67C118.941 29.5628 119.02 29.4688 119.099 29.3903C119.2 29.3903 119.276 29.3538 119.33 29.2815C119.381 29.207 119.415 29.1681 119.43 29.1603C119.635 29.1067 119.758 29.0741 119.798 29.0617C119.838 29.0477 119.883 28.9801 119.936 28.8519L120.106 28.7719C120.185 28.6655 120.281 28.5862 120.391 28.5381C120.499 28.4876 120.572 28.4449 120.604 28.4122C120.637 28.3796 120.725 28.3299 120.869 28.2623C121.01 28.197 121.102 28.1279 121.144 28.0572C121.182 27.9896 121.218 27.9523 121.252 27.9523C121.424 27.9523 121.51 28.0494 121.511 28.2429C121.511 28.2677 121.485 28.3276 121.43 28.4208C121.39 28.4348 121.358 28.4853 121.332 28.5754C121.305 28.6647 121.284 28.716 121.272 28.7292L121.144 28.9086C121.103 29.036 121.046 29.1401 120.973 29.2272C120.901 29.3142 120.768 29.5511 120.576 29.9341C120.536 30.1081 120.485 30.2332 120.422 30.3085C120.359 30.3839 120.321 30.4561 120.307 30.5222C120.295 30.5898 120.262 30.6908 120.209 30.8267C120.156 30.9634 120.129 31.1903 120.13 31.5088C120.13 31.5624 120.166 31.6564 120.24 31.7923C120.312 31.9291 120.373 32.0627 120.42 32.194C120.465 32.3292 120.607 32.4612 120.844 32.5933C121.078 32.7261 121.2 32.7922 121.207 32.7922L121.496 32.772L121.655 32.723C121.673 32.723 121.725 32.7456 121.805 32.7914L122.044 32.6632L122.332 32.6018C122.683 32.3563 122.895 32.2328 122.968 32.2328C123.074 32.2328 123.128 32.1862 123.128 32.093V32.0736L123.067 31.9749C123.067 31.9135 123.106 31.8856 123.186 31.8856L123.226 31.884L123.287 31.905C123.299 31.905 123.349 31.8778 123.436 31.825L123.474 31.7248C123.488 31.6315 123.515 31.5849 123.555 31.5849C123.568 31.5849 123.595 31.5989 123.634 31.6261C123.676 31.6502 123.7 31.6649 123.714 31.6649C123.741 31.6649 123.793 31.623 123.869 31.5406C123.944 31.4583 124.086 31.3394 124.292 31.1856C124.323 31.1615 124.353 31.139 124.382 31.1165C124.409 31.1336 124.432 31.1522 124.448 31.1747C124.602 31.6463 124.692 31.8832 124.719 31.8832L124.839 31.8623C124.919 32.1606 125.055 32.3097 125.248 32.3097C125.295 32.3292 125.358 32.3626 125.437 32.4107C125.517 32.4573 125.59 32.4783 125.656 32.4783C125.776 32.4783 125.902 32.4589 126.035 32.42L126.215 32.3602C126.227 32.3602 126.254 32.3859 126.294 32.4402C126.335 32.4915 126.374 32.5195 126.413 32.5195L126.693 32.4775C126.711 32.4775 126.755 32.462 126.822 32.4286L127.659 32.1287C127.797 32.0363 127.89 31.9811 127.937 31.9687C127.984 31.957 128.013 31.9423 128.027 31.9283C128.093 31.8685 128.204 31.8289 128.361 31.8102C128.518 31.7885 128.612 31.7147 128.643 31.5841C128.678 31.4552 128.737 31.3899 128.823 31.3899H129.002L129.061 31.3697C129.121 31.2905 129.251 31.2043 129.451 31.111C129.503 31.052 129.538 30.9821 129.555 30.9013C129.572 30.8213 129.612 30.7817 129.68 30.7817C129.706 30.7817 129.719 30.7894 129.719 30.8019L129.8 30.8819C129.826 30.8819 129.862 30.8547 129.91 30.8019C129.957 30.7475 130.014 30.6884 130.079 30.6224L130.419 30.234C130.457 30.1741 130.513 30.133 130.582 30.1089C130.652 30.0856 130.746 30.0118 130.866 29.8859H130.927C130.978 29.8712 131.022 29.795 131.054 29.6505C131.087 29.5084 131.135 29.4019 131.199 29.332C131.262 29.2606 131.294 29.2077 131.294 29.1666L131.244 28.897L131.289 28.6336ZM126.174 28.9187C126.303 28.6538 126.429 28.4876 126.552 28.4247C126.673 28.3617 126.801 28.2786 126.93 28.1768C127.059 28.0727 127.136 28.0145 127.163 28.0005L127.282 27.9407L127.452 27.9018C127.572 27.8218 127.644 27.7799 127.671 27.7799H127.901C128.006 27.7146 128.086 27.6812 128.14 27.6812C128.265 27.6812 128.328 27.72 128.328 27.7993C128.328 27.8397 128.271 27.8793 128.154 27.9189C128.037 27.9593 127.922 28.0689 127.811 28.2491L127.71 28.2895C127.658 28.354 127.577 28.4247 127.467 28.4938C127.358 28.5637 127.296 28.6119 127.283 28.6375L127.203 28.7168C126.997 28.8512 126.84 28.9646 126.731 29.057C126.622 29.1502 126.503 29.2264 126.377 29.2878L126.038 29.4369C125.999 29.4369 125.979 29.4167 125.979 29.3771C125.98 29.3367 126.045 29.1844 126.174 28.9187ZM114.602 28.9723C114.367 29.2108 114.187 29.3771 114.059 29.4695C114.032 29.5503 113.951 29.6303 113.815 29.7049C113.68 29.7818 113.6 29.8914 113.572 30.039C113.471 30.0864 113.407 30.133 113.373 30.1788C113.339 30.2254 113.251 30.2821 113.103 30.3482L112.895 30.509C112.642 30.648 112.458 30.7514 112.347 30.8182C112.299 30.8896 112.234 30.9479 112.148 30.9922C112.061 31.0357 112.002 31.0745 111.967 31.1118C111.935 31.1491 111.902 31.1701 111.869 31.1779C111.836 31.1841 111.807 31.2004 111.779 31.2268L111.592 31.327C111.511 31.355 111.458 31.3791 111.431 31.4078C111.405 31.4342 111.306 31.4832 111.138 31.5515C110.968 31.623 110.857 31.6572 110.804 31.6572C110.679 31.6572 110.615 31.4948 110.615 31.1685C110.615 31.118 110.652 31.0442 110.728 30.9541C110.804 30.8671 110.849 30.7661 110.863 30.6566C110.877 30.547 110.922 30.4771 111.002 30.4468C111.082 30.4165 111.147 30.3785 111.202 30.3326L111.27 30.1633C111.27 30.1431 111.357 30.0631 111.53 29.9232C111.577 29.7438 111.678 29.6288 111.838 29.5744C112.103 29.3895 112.259 29.2466 112.306 29.1448C112.385 29.1448 112.511 29.0796 112.684 28.9514C112.857 28.8209 113.051 28.73 113.266 28.6764C113.482 28.6235 113.628 28.5761 113.704 28.5319C113.779 28.4884 113.871 28.4674 113.979 28.4674L114.176 28.5062L114.307 28.486L114.446 28.5552L114.636 28.5358L114.814 28.5552L114.894 28.5055H114.914C114.94 28.5055 114.955 28.5171 114.955 28.5358C114.955 28.587 114.836 28.7323 114.602 28.9723Z" fill="#1D1D1B"/>
<path id="Vector_15" d="M154.511 29.0944C154.378 29.0944 154.261 29.1845 154.159 29.3601C154.055 29.5372 153.999 29.6234 153.984 29.6234C153.924 29.6374 153.815 29.7073 153.655 29.834C153.41 30.0787 153.231 30.2387 153.119 30.3117C153.006 30.3863 152.906 30.4632 152.815 30.5463C152.727 30.6295 152.629 30.6916 152.527 30.7297C152.424 30.7701 152.317 30.8353 152.213 30.9254C152.107 31.0148 151.996 31.0808 151.879 31.1197C151.763 31.1601 151.664 31.2074 151.582 31.2595C151.498 31.3123 151.401 31.3535 151.293 31.3807C151.182 31.4071 151.102 31.4421 151.048 31.484C150.995 31.5275 150.963 31.5493 150.949 31.5493L150.81 31.5104C150.723 31.5493 150.674 31.5687 150.66 31.5687C150.402 31.5687 150.271 31.5205 150.271 31.4211C150.271 31.3807 150.297 31.3279 150.346 31.2611C150.395 31.1966 150.434 31.1197 150.461 31.0373C150.486 30.9557 150.514 30.8983 150.539 30.8726L150.621 30.7545C150.673 30.6411 150.714 30.565 150.743 30.5238C150.774 30.485 150.789 30.4578 150.789 30.443V30.2651C150.789 30.2123 150.855 30.161 150.987 30.1152C151.074 29.9971 151.143 29.8767 151.197 29.7571L151.296 29.6856C151.647 29.2358 151.868 28.9856 151.962 28.939C152.075 28.7611 152.132 28.5824 152.131 28.4014C152.131 28.3362 152.082 28.1598 151.986 27.8732C151.889 27.5896 151.814 27.3985 151.762 27.3068L151.701 27.1561C151.676 26.6737 151.461 26.4321 151.063 26.4321C150.724 26.4321 150.433 26.5533 150.187 26.8011C150.135 26.8679 150.084 26.9137 150.039 26.9409C149.992 26.9673 149.961 26.9938 149.95 27.0202C149.81 27.1926 149.577 27.3768 149.253 27.5694L149.194 27.6992L149.045 27.7395L148.926 27.8794C148.766 27.9322 148.619 28.0332 148.482 28.1831C148.346 28.3331 148.227 28.4286 148.123 28.4721C148.021 28.5164 147.957 28.57 147.93 28.6376C147.903 28.7044 147.838 28.7432 147.732 28.7565C147.673 28.7642 147.594 28.8 147.498 28.8613L147.493 28.7363L147.384 28.3898C147.277 28.229 147.197 28.1 147.143 27.9982C146.992 27.9477 146.914 27.9089 146.914 27.8802C146.914 27.8677 146.971 27.7768 147.084 27.6137C147.084 27.4125 147.018 27.2765 146.887 27.2027C146.757 27.1313 146.633 27.073 146.51 27.0295C146.387 26.9868 146.317 26.9588 146.305 26.9456C146.257 26.9192 146.127 26.8772 145.915 26.8174L145.626 26.718C145.572 26.718 145.504 26.7428 145.417 26.7918C145.33 26.8415 145.246 26.8788 145.166 26.9021C145.086 26.9262 145 26.9534 144.908 26.9829C144.815 27.0116 144.741 27.0264 144.689 27.0264C144.515 27.0264 144.241 27.1243 143.864 27.3115C143.49 27.5011 143.263 27.6409 143.186 27.7326C143.111 27.8219 142.999 27.8895 142.849 27.9369C142.698 27.9827 142.578 28.0425 142.485 28.1163C142.398 28.2608 142.294 28.3478 142.174 28.375C141.962 28.5203 141.826 28.6461 141.762 28.7495C141.718 28.8178 141.67 28.8691 141.613 28.9017C141.523 28.9188 141.458 28.9437 141.423 28.9779C141.375 29.0276 141.304 29.0695 141.214 29.1022C141.125 29.1363 141.042 29.1907 140.965 29.2676C140.891 29.3438 140.772 29.4152 140.613 29.4797L140.244 29.7213C140.218 29.7679 140.175 29.8006 140.115 29.82C140.055 29.8394 140.026 29.8845 140.026 29.9505L140.046 30.1097L139.958 30.1509H139.937C139.858 30.0958 139.812 30.0701 139.798 30.0701C139.771 30.0701 139.735 30.0981 139.688 30.1548C139.64 30.21 139.585 30.2418 139.519 30.2488C139.452 30.255 139.402 30.3063 139.37 30.3987L139.329 30.4182C139.251 30.4453 139.191 30.4873 139.156 30.5425C139.12 30.5992 139.08 30.6271 139.042 30.6271C139.028 30.6271 138.975 30.6108 138.881 30.5766C138.816 30.652 138.778 30.6877 138.763 30.6877C138.75 30.6613 138.744 30.6411 138.744 30.6295L138.782 30.3894C138.809 30.1944 138.869 30.0717 138.962 30.015C139.054 29.959 139.118 29.8495 139.15 29.6809L139.188 29.4805C139.309 29.2707 139.369 29.1596 139.369 29.1534L139.329 28.9351C139.329 28.8287 139.394 28.7642 139.528 28.7432L139.598 28.6656C139.611 28.5731 139.65 28.4628 139.718 28.3401C139.782 28.2173 139.829 28.0806 139.856 27.9268C139.916 27.8755 139.978 27.7667 140.045 27.6051C140.11 27.4397 140.177 27.2991 140.243 27.181C140.309 27.0598 140.344 26.9503 140.344 26.8516L140.343 26.8104L140.471 26.6216C140.605 26.568 140.706 26.4352 140.776 26.2231C140.844 26.011 140.926 25.858 141.019 25.7648C141.263 25.6187 141.417 25.4385 141.474 25.2256C141.535 25.0135 141.594 24.8768 141.654 24.8186C141.714 24.7572 141.792 24.6407 141.89 24.4659C141.984 24.2887 142.033 24.1839 142.033 24.1505C142.033 24.1372 142.014 24.0922 141.973 24.0114C142.04 23.9702 142.111 23.8762 142.186 23.7271C142.263 23.5771 142.3 23.4901 142.3 23.4637C142.3 23.4497 142.275 23.4326 142.221 23.4086C142.167 23.3876 142.141 23.3542 142.141 23.3138C142.141 23.2742 142.196 23.2353 142.31 23.1941C142.423 23.1545 142.491 23.0737 142.515 22.951C142.536 22.8275 142.574 22.6239 142.628 22.3388C142.68 22.0537 142.708 21.8836 142.708 21.83L142.687 21.5418C142.687 21.4361 142.68 21.3514 142.667 21.287C142.652 21.2248 142.637 21.1059 142.612 20.9296C142.589 20.754 142.524 20.5979 142.411 20.4619C142.303 20.3252 142.225 20.2568 142.178 20.2568C142.039 20.2568 141.901 20.3128 141.764 20.4215C141.629 20.5318 141.549 20.6414 141.521 20.7494C141.494 20.8597 141.441 20.9653 141.361 21.064C141.282 21.165 141.203 21.3452 141.123 21.6117C141.044 21.8766 140.967 22.0234 140.894 22.0506C140.883 22.2231 140.868 22.3256 140.855 22.359L140.706 22.4787L140.605 22.8065C140.48 23.0131 140.286 23.5158 140.02 24.3206C140.007 24.4006 139.96 24.5265 139.876 24.6943C139.795 24.8644 139.704 25.1363 139.609 25.5123C139.512 25.8867 139.398 26.1346 139.266 26.2526C139.266 26.3995 139.122 26.7001 138.839 27.1499C138.686 27.2905 138.461 27.5096 138.161 27.8087L137.613 28.4263C137.394 28.6788 137.267 28.807 137.225 28.807C136.549 29.364 136.21 29.7128 136.21 29.8534L136.121 30.471C136.121 30.5308 136.191 30.6046 136.332 30.6893C136.529 30.6295 136.673 30.5184 136.76 30.3599C136.951 30.3195 137.074 30.2309 137.127 30.0895C137.234 29.8448 137.37 29.7213 137.537 29.7213C137.695 29.489 137.817 29.3764 137.904 29.381L137.904 29.4603C137.904 29.5543 137.864 29.6483 137.782 29.747C137.698 29.8425 137.643 29.9287 137.616 30.0095L137.537 30.2379C137.469 30.3381 137.439 30.4687 137.439 30.6271C137.439 30.6815 137.415 30.7273 137.368 30.7662C137.169 30.9736 137.069 31.1686 137.07 31.3558C136.631 31.5485 136.412 31.6782 136.412 31.7435C136.413 31.8111 136.482 31.881 136.616 31.9579C136.754 32.034 136.821 32.0923 136.821 32.1319C136.821 32.1917 136.773 32.2616 136.676 32.3417C136.581 32.4209 136.519 32.5273 136.493 32.6602L136.254 33.2584C136.089 33.4844 135.926 33.9055 135.769 34.5231C135.769 34.565 135.737 34.6116 135.673 34.6637C135.612 34.7157 135.579 34.7561 135.579 34.7833L135.519 35.0319L135.42 35.2502L135.173 36.0481C135.094 36.1141 135.044 36.2011 135.029 36.3075C135.013 36.414 134.983 36.5491 134.944 36.7146C134.905 36.8816 134.865 37.0145 134.825 37.1139C134.778 37.1054 134.719 37.2631 134.647 37.5824L134.628 37.6826C134.56 37.8341 134.503 37.9894 134.453 38.1448C134.403 38.3017 134.366 38.395 134.339 38.4291C134.312 38.4618 134.293 38.506 134.279 38.5589L134.219 38.7678C134.167 38.875 134.139 38.9675 134.14 39.0467V39.1376C134.154 39.2759 134.166 39.3816 134.181 39.4561C134.261 39.5362 134.301 39.603 134.301 39.6636C134.301 39.9036 134.37 40.0769 134.51 40.1879C134.651 40.2975 134.722 40.3526 134.73 40.3526C134.783 40.3519 134.878 40.2718 135.017 40.1118C135.111 40.0442 135.219 39.9976 135.346 39.972C135.532 39.7389 135.669 39.6232 135.754 39.6232L135.794 39.582C135.848 39.4965 135.9 39.4297 135.953 39.3831C136.006 39.3373 136.042 39.2852 136.062 39.234C136.082 39.1811 136.106 39.1555 136.132 39.1555H136.163C136.202 39.1943 136.229 39.2153 136.243 39.2153C136.428 39.0607 136.551 38.9248 136.611 38.8051L136.769 38.7057C136.81 38.6443 136.875 38.5814 136.965 38.5115C137.054 38.44 137.145 38.3274 137.239 38.1666L137.319 38.1464C137.37 38.0127 137.427 37.9405 137.487 37.9273L137.547 37.8884C137.627 37.7882 137.705 37.7113 137.782 37.6585C137.857 37.6057 137.908 37.5155 137.935 37.3897C138.041 37.3376 138.146 37.2452 138.248 37.1155C138.351 36.9842 138.43 36.9034 138.492 36.8607C138.551 36.8203 138.581 36.7674 138.581 36.7022L138.562 36.4318L138.581 36.393C138.666 36.3658 138.809 36.25 139.008 36.0442C139.101 35.7769 139.19 35.6216 139.278 35.575L139.317 35.4553L139.317 35.2067C139.331 35.1663 139.376 35.1391 139.452 35.1275C139.53 35.1127 139.566 35.0731 139.566 35.0078V34.969C139.544 34.8408 139.535 34.7647 139.535 34.7375C139.535 34.6987 139.579 34.6318 139.67 34.5425C139.759 34.4547 139.805 34.2597 139.804 33.9599C139.804 33.5567 139.643 33.1325 139.325 32.6912C139.006 32.2515 138.819 32.0503 138.765 32.0892C138.706 32.0099 138.676 31.9579 138.676 31.9307C138.676 31.8709 138.715 31.808 138.789 31.7411C138.867 31.6767 138.931 31.6417 138.984 31.6417H139.044L139.174 31.5229C139.255 31.4957 139.317 31.4498 139.362 31.3869C139.408 31.324 139.46 31.2789 139.517 31.2517C139.572 31.2269 139.661 31.1655 139.779 31.0731C139.899 30.9822 140.008 30.9169 140.109 30.8843C140.189 30.7646 140.228 30.6986 140.228 30.6854L140.417 30.704C140.442 30.6901 140.476 30.6636 140.515 30.6248C140.79 30.398 141.02 30.2138 141.208 30.0693C141.233 30.0794 141.263 30.0857 141.302 30.0857C141.415 30.0857 141.496 30.0243 141.542 29.9015C141.557 29.8619 141.569 29.8301 141.58 29.8029C141.635 29.7679 141.681 29.7407 141.716 29.7244L141.752 29.7361C141.784 29.7361 141.808 29.7198 141.83 29.6957H141.859C141.938 29.6296 142.005 29.5558 142.057 29.4758C142.071 29.4758 142.113 29.4852 142.187 29.496C142.219 29.4432 142.245 29.4036 142.268 29.3748C142.284 29.3974 142.29 29.4207 142.284 29.4362L142.046 30.2348V30.5518C142.006 30.6388 141.972 30.6947 141.946 30.7219L141.964 30.9418L141.946 31.1282L141.946 31.1694C141.946 31.289 141.998 31.4553 142.106 31.6666C142.212 31.8802 142.322 32.0263 142.436 32.1055L142.576 32.2251C142.615 32.285 142.666 32.33 142.73 32.3626C142.792 32.396 142.861 32.4559 142.933 32.5421C143.009 32.6291 143.079 32.6765 143.149 32.6835C143.219 32.6897 143.283 32.7192 143.344 32.7767C143.403 32.8334 143.459 32.8614 143.514 32.8598C143.538 32.8598 143.596 32.8404 143.683 32.8L143.842 32.8187C144.047 32.8187 144.178 32.7961 144.23 32.7441C144.283 32.6951 144.351 32.6672 144.435 32.6586C144.519 32.6547 144.61 32.6229 144.713 32.5708C144.818 32.5172 144.905 32.4807 144.977 32.4597C145.052 32.4403 145.17 32.3665 145.336 32.2407L145.435 32.2601C145.477 32.2601 145.543 32.2003 145.64 32.0822C145.737 31.961 145.818 31.9012 145.885 31.9012C145.911 31.9012 145.936 31.9152 145.965 31.9416L146.433 31.5337C146.486 31.5065 146.522 31.4755 146.546 31.4397C146.57 31.4017 146.608 31.3667 146.66 31.3356C146.715 31.2999 146.748 31.2471 146.761 31.174C146.775 31.101 146.808 31.0389 146.86 30.9853C146.913 30.9332 146.961 30.8579 147.004 30.7608C147.048 30.6652 147.076 30.6062 147.089 30.586L147.149 30.5067C147.161 30.4663 147.191 30.4329 147.238 30.4065C147.284 30.3801 147.318 30.3249 147.337 30.2371L147.416 29.959L147.411 29.9194C147.464 29.8472 147.516 29.792 147.563 29.7578L147.76 29.7073C147.874 29.6553 147.944 29.6281 147.97 29.6281C148.051 29.5209 148.129 29.4284 148.209 29.3476C148.31 29.3476 148.386 29.3111 148.439 29.2381C148.491 29.1643 148.525 29.1255 148.54 29.1185C148.745 29.0664 148.867 29.0315 148.907 29.0198C148.947 29.0043 148.992 28.9375 149.047 28.8101L149.215 28.7293C149.296 28.6221 149.389 28.5451 149.501 28.4947C149.608 28.4457 149.68 28.4038 149.713 28.3696C149.747 28.3377 149.835 28.2872 149.977 28.2212C150.12 28.1536 150.211 28.0868 150.252 28.0153C150.291 27.947 150.328 27.9112 150.36 27.9112C150.534 27.9112 150.621 28.0083 150.621 28.2018C150.621 28.2251 150.594 28.2865 150.541 28.3797C150.503 28.3937 150.466 28.4449 150.442 28.5343C150.415 28.6244 150.393 28.6749 150.382 28.6889L150.253 28.8683C150.213 28.995 150.155 29.0998 150.084 29.1868C150.011 29.2731 149.878 29.5085 149.685 29.8938C149.647 30.0662 149.595 30.1898 149.532 30.2674C149.469 30.3428 149.428 30.4143 149.417 30.4819C149.406 30.5471 149.371 30.6481 149.319 30.7856C149.266 30.9216 149.239 31.1484 149.239 31.4677C149.239 31.5197 149.276 31.6161 149.349 31.7505C149.423 31.8888 149.482 32.0216 149.529 32.1537C149.576 32.2873 149.716 32.4201 149.952 32.553C150.188 32.6858 150.309 32.7503 150.317 32.7503L150.604 32.7316L150.764 32.6819C150.783 32.6819 150.835 32.7045 150.914 32.7511L151.152 32.6221L151.441 32.5623C151.793 32.316 152.004 32.1925 152.077 32.1925C152.185 32.1925 152.237 32.1451 152.237 32.0527V32.0317L152.178 31.933C152.178 31.8732 152.218 31.8445 152.296 31.8445H152.337L152.397 31.8623C152.409 31.8623 152.459 31.8375 152.546 31.7823L152.585 31.6837C152.596 31.5912 152.623 31.5438 152.665 31.5438C152.678 31.5438 152.704 31.5586 152.744 31.585C152.786 31.6083 152.811 31.6238 152.824 31.6238C152.851 31.6238 152.902 31.5811 152.979 31.4988C153.054 31.4164 153.195 31.2976 153.401 31.1445C153.608 30.9923 153.766 30.861 153.879 30.746C153.992 30.6333 154.079 30.5665 154.142 30.5463C154.207 30.5254 154.256 30.4438 154.298 30.297C154.402 30.2713 154.467 30.2162 154.486 30.1338C154.504 30.0499 154.54 29.9823 154.59 29.928C154.639 29.8759 154.665 29.8355 154.665 29.8083C154.665 29.7687 154.657 29.7376 154.646 29.719L154.625 29.5605V29.5007C154.691 29.4339 154.726 29.364 154.726 29.2917C154.723 29.1604 154.651 29.0944 154.511 29.0944ZM138.799 33.8255C138.8 33.9451 138.774 34.0391 138.72 34.1082C138.666 34.1782 138.631 34.2683 138.611 34.3778C138.592 34.4881 138.563 34.5852 138.53 34.6738C138.499 34.7577 138.461 34.8727 138.421 35.0141C138.383 35.1586 138.283 35.3365 138.126 35.5493C137.972 35.7614 137.894 35.8942 137.894 35.9478V35.9882L137.934 36.1063L137.914 36.1762C137.854 36.2283 137.808 36.2943 137.775 36.3743C137.743 36.4551 137.665 36.5647 137.545 36.7061C137.519 36.8311 137.478 36.9181 137.422 36.964C137.367 37.0114 137.318 37.0774 137.277 37.1644C137.237 37.2491 137.179 37.3244 137.103 37.3874C137.026 37.4503 136.963 37.5893 136.909 37.8007L136.868 37.8216H136.73C136.704 37.8543 136.68 37.9016 136.659 37.963C136.64 38.0213 136.616 38.057 136.59 38.0702L136.522 38.0912C136.47 38.1432 136.422 38.1767 136.383 38.1899C136.344 38.2038 136.306 38.2419 136.274 38.3048C136.241 38.3678 136.188 38.4051 136.114 38.419L136.094 38.4594C136.048 38.5907 135.994 38.663 135.93 38.6731C135.869 38.6832 135.822 38.701 135.797 38.7282C135.736 38.8743 135.687 38.9465 135.647 38.9465C135.62 38.9465 135.601 38.9333 135.588 38.9061C135.646 38.7003 135.696 38.5363 135.735 38.4136C135.775 38.2901 135.816 38.1363 135.854 37.9498C135.908 37.8962 135.951 37.7797 135.985 37.5971C136.017 37.4122 136.064 37.2607 136.124 37.138C136.184 37.0152 136.257 36.8459 136.347 36.6284C136.435 36.4147 136.488 36.2563 136.498 36.1576L136.559 36.0877C136.645 36.0279 136.712 35.888 136.758 35.669C136.805 35.4499 136.828 35.2961 136.828 35.2106L136.809 34.9915C136.809 34.9651 136.814 34.9403 136.828 34.9123H136.928C137.04 34.9123 137.112 34.84 137.146 34.7025C137.18 34.5627 137.25 34.377 137.358 34.1479C137.469 33.9187 137.524 33.7921 137.524 33.7664L137.482 33.3368C137.656 33.2428 137.742 33.1682 137.742 33.1069L137.722 32.8886V32.849C137.722 32.7472 137.757 32.6858 137.826 32.6586C137.897 32.6322 137.938 32.6128 137.95 32.6004L138.031 32.56C138.084 32.56 138.168 32.6035 138.285 32.6936C138.401 32.7814 138.466 32.8614 138.48 32.9274C138.494 32.9934 138.506 33.0338 138.52 33.0471C138.705 33.3601 138.799 33.6196 138.799 33.8255ZM146.13 29.068C146.274 29.148 146.344 29.256 146.344 29.3958C146.344 29.4875 146.325 29.6172 146.284 29.7842L146.097 30.1439C146.097 30.2154 146.084 30.2667 146.057 30.29L145.977 30.4112C145.951 30.5059 145.901 30.579 145.829 30.6357C145.757 30.6908 145.691 30.774 145.636 30.8843C145.579 30.9938 145.483 31.0824 145.347 31.1476C145.212 31.2168 145.144 31.3255 145.144 31.4778L145.104 31.4972H144.964C144.951 31.4972 144.919 31.5469 144.871 31.6456C144.821 31.745 144.759 31.7955 144.688 31.7955C144.615 31.7955 144.517 31.8476 144.394 31.9501C144.271 32.0534 144.108 32.1039 143.903 32.1055C143.837 32.1055 143.736 32.0915 143.605 32.0643L143.555 32.0457H143.396L143.376 32.0263L143.335 31.7979L143.236 31.4801L143.276 31.1111L143.315 30.9829C143.315 30.9542 143.291 30.9146 143.246 30.8633C143.199 30.8089 143.175 30.7747 143.175 30.7623C143.175 30.6963 143.21 30.6411 143.279 30.5976C143.35 30.5533 143.394 30.5122 143.413 30.4733C143.413 30.3871 143.45 30.2581 143.524 30.0857L143.703 29.6359C143.806 29.5294 143.893 29.4347 143.961 29.3562L144.069 29.2288C144.209 29.1154 144.275 29.0058 144.268 28.8971L144.387 28.7798C144.499 28.7798 144.591 28.7355 144.665 28.6493C144.737 28.5622 144.781 28.5187 144.794 28.5187H144.922C144.962 28.4877 145.002 28.431 145.041 28.3494C145.081 28.2701 145.121 28.2313 145.159 28.2313C145.175 28.2313 145.249 28.2624 145.389 28.3307C145.812 28.1777 146.048 28.0557 146.094 27.9594C146.226 27.9097 146.304 27.8802 146.323 27.8802C146.362 27.8802 146.383 27.8988 146.383 27.94C146.383 27.9672 146.304 28.0449 146.148 28.1746C145.994 28.3043 145.915 28.4457 145.915 28.5964C145.917 28.831 145.988 28.988 146.13 29.068Z" fill="#1D1D1B"/>
<path id="Vector_16" d="M171.25 24.9316C171.262 25.0319 171.341 25.1445 171.485 25.275C171.628 25.404 171.744 25.4677 171.838 25.4677C171.978 25.4677 172.109 25.4195 172.23 25.324C172.353 25.2253 172.419 25.1134 172.424 24.9837C172.431 24.8532 172.445 24.7669 172.465 24.7196C172.485 24.6729 172.495 24.645 172.495 24.6294C172.494 24.4904 172.429 24.3296 172.299 24.1478C172.17 23.9668 172.046 23.8619 171.926 23.8347C171.695 23.914 171.554 23.959 171.507 23.9637C171.294 23.9963 171.19 24.1703 171.19 24.4818V24.5432L171.25 24.9316Z" fill="#1D1D1B"/>
<path id="Vector_17" d="M180.937 29.5346V29.4732C181.004 29.4072 181.037 29.3381 181.037 29.265C181.036 29.1314 180.966 29.0654 180.827 29.0654C180.695 29.0654 180.576 29.1532 180.473 29.3295C180.371 29.5066 180.312 29.5944 180.299 29.5944C180.238 29.6068 180.13 29.6775 179.971 29.8049C179.727 30.0489 179.547 30.2097 179.434 30.2819C179.321 30.3557 179.222 30.4326 179.131 30.5173C179.041 30.5997 178.944 30.6618 178.842 30.7014C178.739 30.7426 178.633 30.8071 178.529 30.8949C178.421 30.985 178.31 31.0502 178.194 31.0891C178.079 31.1295 177.979 31.1777 177.895 31.2305C177.812 31.2833 177.717 31.3237 177.606 31.3501C177.497 31.3773 177.417 31.4115 177.363 31.455C177.311 31.4977 177.277 31.5195 177.262 31.5195L177.125 31.4822C177.038 31.5195 176.987 31.5389 176.975 31.5389C176.715 31.5404 176.586 31.49 176.586 31.3905C176.586 31.3517 176.609 31.2996 176.66 31.232C176.71 31.166 176.748 31.0906 176.774 31.0067C176.801 30.926 176.828 30.8692 176.854 30.8428L176.934 30.7247C176.987 30.6113 177.029 30.5344 177.058 30.4932C177.088 30.4544 177.104 30.428 177.104 30.414V30.2361C177.104 30.1825 177.17 30.132 177.303 30.0869C177.388 29.9673 177.458 29.8469 177.511 29.7288L177.611 29.6566C177.962 29.206 178.184 28.9551 178.277 28.9108C178.39 28.7313 178.445 28.5526 178.445 28.3716C178.445 28.3072 178.397 28.13 178.301 27.8442C178.205 27.559 178.129 27.3695 178.076 27.277L178.016 27.1271C177.989 26.6431 177.776 26.4023 177.378 26.4031C177.039 26.4031 176.746 26.5243 176.503 26.7721C176.45 26.8381 176.398 26.8847 176.353 26.9119C176.308 26.9376 176.276 26.9632 176.264 26.9912C176.123 27.1636 175.892 27.3462 175.567 27.5396L175.509 27.6701L175.36 27.709L175.239 27.8488C175.08 27.9016 174.933 28.0042 174.797 28.1533C174.661 28.3025 174.543 28.3981 174.438 28.4416C174.337 28.4858 174.271 28.541 174.244 28.607C174.219 28.6746 174.153 28.7135 174.045 28.7267C173.94 28.7399 173.77 28.8416 173.543 29.0359C173.496 29.0747 173.459 29.1182 173.423 29.1617C173.411 29.1602 173.403 29.1555 173.389 29.1555C173.296 29.1555 173.161 29.2456 172.982 29.4258L171.679 30.4218C171.48 30.5026 171.34 30.5678 171.256 30.616C171.174 30.6673 171.11 30.6983 171.063 30.7115L170.845 30.9306L170.685 30.9112C170.546 30.9112 170.456 30.9322 170.417 30.971C170.391 30.9578 170.37 30.9446 170.357 30.9322C170.449 30.8856 170.496 30.8257 170.496 30.7543L170.495 30.3441C170.495 30.3037 170.502 30.2843 170.516 30.2843C170.588 30.2182 170.625 30.1677 170.625 30.1359L170.564 29.8958C170.564 29.857 170.613 29.8034 170.704 29.7374L170.745 29.5276C170.885 29.5004 171.01 29.2029 171.121 28.6311L171.291 27.8535C171.29 27.674 171.186 27.4876 170.975 27.291C170.766 27.0968 170.566 26.9982 170.375 26.9982C170.24 26.9982 170.132 27.0401 170.05 27.1217C169.966 27.2048 169.872 27.2747 169.765 27.3268L169.635 27.3866C169.563 27.4938 169.467 27.5847 169.347 27.6608C169.229 27.7385 169.148 27.8162 169.108 27.8954C169.069 27.883 169.016 27.8768 168.949 27.8768C168.881 27.8768 168.794 27.9312 168.684 28.0407C168.574 28.1526 168.496 28.217 168.444 28.2341C168.395 28.2551 168.359 28.2792 168.331 28.3064L168.17 28.426C168.071 28.4586 167.955 28.576 167.821 28.7733L167.723 28.8144C167.629 28.9131 167.559 28.9636 167.513 28.9636H167.473C167.445 28.9411 167.418 28.9255 167.393 28.9255C167.282 28.9255 167.172 29.0056 167.066 29.1687C166.96 29.3311 166.845 29.4398 166.723 29.4911C166.602 29.5463 166.531 29.6177 166.51 29.7063C166.492 29.7956 166.432 29.8415 166.332 29.8415L166.174 29.9805C166.093 30.0465 166.025 30.1304 165.966 30.2314L165.867 30.2718C165.825 30.2835 165.759 30.3526 165.663 30.4754C165.567 30.5981 165.413 30.6867 165.201 30.7403C165.153 30.6999 165.13 30.6175 165.13 30.4909L165.171 30.2128L165.151 29.9642C165.151 29.9122 165.178 29.8508 165.234 29.7801C165.292 29.7094 165.319 29.6542 165.319 29.6154V29.5944L165.459 29.1889C165.471 29.1213 165.49 29.0615 165.518 29.0079C165.902 28.6226 166.093 28.2147 166.093 27.782C166.092 27.4169 165.948 27.2359 165.665 27.2374C165.265 27.2374 165.004 27.3571 164.882 27.6002C164.759 27.8426 164.665 27.9622 164.599 27.9622C164.546 27.9622 164.513 27.9024 164.499 27.7843C164.457 27.2164 164.232 26.9275 163.82 26.929C163.781 26.929 163.747 26.9352 163.72 26.9484L163.56 27.0277H163.542C163.44 26.978 163.378 26.9484 163.352 26.9484H163.292C162.967 27.1147 162.791 27.1986 162.764 27.1986L162.683 27.2001C162.598 27.2001 162.479 27.2429 162.33 27.3283C162.182 27.4138 162.029 27.486 161.872 27.5443C161.716 27.5994 161.577 27.688 161.454 27.8061C161.33 27.9273 161.248 27.9933 161.209 28.0073C160.937 28.1463 160.685 28.3343 160.452 28.5643L160.154 28.8642C159.987 28.9784 159.873 29.0809 159.814 29.1741C159.754 29.2674 159.673 29.3583 159.574 29.4468C159.475 29.5385 159.43 29.6224 159.435 29.7016L159.335 29.8321C159.295 29.8585 159.219 29.9642 159.102 30.1452C158.986 30.3278 158.928 30.4326 158.928 30.4591L158.949 30.7294C158.823 30.7294 158.759 30.7683 158.759 30.849L158.779 31.1769V31.2367C158.765 31.2623 158.759 31.3159 158.759 31.3952C158.76 31.5638 158.789 31.6919 158.849 31.7852L158.95 32.1915C158.968 32.3313 159.099 32.4509 159.338 32.5496C159.576 32.649 159.786 32.6995 159.966 32.6995C160.185 32.6995 160.561 32.5216 161.091 32.1689L161.15 32.1091C161.303 32.0283 161.421 31.9638 161.498 31.9095L162.255 31.2911C162.347 31.2235 162.426 31.1404 162.483 31.0363C162.543 30.9345 162.58 30.8762 162.594 30.8638L162.782 30.8832L162.883 30.7815C162.917 30.7356 162.975 30.6976 163.062 30.6665C163.148 30.6377 163.197 30.6004 163.21 30.5523L163.251 30.4925C163.331 30.4404 163.396 30.3814 163.449 30.313C163.482 30.1879 163.526 30.1048 163.579 30.0652C163.671 30.0652 163.753 30.0326 163.823 29.9665C163.893 29.8982 163.94 29.8671 163.967 29.8671C163.994 29.8671 164.008 29.8865 164.008 29.9254L163.948 30.4124C163.948 30.4404 163.954 30.4723 163.968 30.5127C163.98 30.5523 163.988 30.5896 163.988 30.6222C163.988 30.6494 163.98 30.6696 163.968 30.682C163.954 30.696 163.949 30.717 163.949 30.7434C163.949 30.769 163.966 30.8017 163.997 30.8428C164.031 30.8832 164.047 30.9159 164.047 30.943L164.008 31.1303C164.009 31.2639 164.037 31.3688 164.096 31.4464C164.157 31.521 164.19 31.5824 164.196 31.6275C164.203 31.6748 164.227 31.7168 164.268 31.7572C164.381 31.7704 164.49 31.803 164.596 31.8527C164.702 31.9017 164.818 31.9273 164.945 31.9258C164.972 31.9258 165.019 31.9079 165.09 31.8714C165.159 31.8357 165.265 31.796 165.407 31.7564C165.55 31.716 165.654 31.664 165.721 31.5979L165.739 31.4969C165.833 31.4721 165.912 31.4426 165.98 31.4076C166.086 31.288 166.184 31.2219 166.273 31.2087C166.362 31.1955 166.431 31.1342 166.482 31.0277C166.531 30.9236 166.628 30.8467 166.776 30.7993L166.874 30.6603C167.002 30.5733 167.078 30.501 167.109 30.4396C167.138 30.3798 167.203 30.3254 167.302 30.2726L167.373 30.1421L167.403 29.9246C167.435 29.9355 167.47 29.9424 167.512 29.9424C167.544 29.9424 167.613 29.9052 167.712 29.8275C167.81 29.7513 167.878 29.6659 167.909 29.5734C167.942 29.4818 167.996 29.422 168.071 29.394L168.287 29.3342C168.407 29.3008 168.503 29.2301 168.576 29.1252C168.591 28.9791 168.628 28.9053 168.696 28.9053H168.736L168.865 28.9652L168.945 28.9457C168.997 28.8595 169.055 28.809 169.114 28.7966C169.174 28.7842 169.203 28.7632 169.203 28.7368C169.263 28.6692 169.299 28.6381 169.314 28.6381L169.492 28.6964C169.632 28.5907 169.714 28.5356 169.742 28.5356C169.822 28.5356 169.86 28.5767 169.86 28.6552C169.86 28.6746 169.831 28.7352 169.772 28.8346C169.712 28.9333 169.677 29.0281 169.668 29.119C169.657 29.2075 169.625 29.279 169.574 29.3334L169.474 29.4709L169.435 29.6503C169.394 29.777 169.367 29.8655 169.354 29.9215C169.315 29.9456 169.282 30.0015 169.255 30.08L169.206 30.3293C169.193 30.3821 169.178 30.4505 169.166 30.5329C169.153 30.6144 169.132 30.6805 169.106 30.7279C169.08 30.7737 169.068 30.8863 169.068 31.065L169.087 31.1264L169.068 31.2662C169.068 31.2779 169.087 31.3392 169.126 31.4503C169.167 31.5591 169.187 31.6275 169.187 31.6539L169.167 31.7929L169.168 31.8543C169.168 32.0058 169.249 32.1495 169.412 32.2862C169.575 32.423 169.714 32.4898 169.826 32.4898L170.024 32.43L170.173 32.4494C170.213 32.4494 170.267 32.4136 170.332 32.3461C170.4 32.2754 170.477 32.2365 170.567 32.2311C170.656 32.2233 170.72 32.2078 170.762 32.1806L170.939 32.0804C171.026 32.0136 171.124 31.9607 171.232 31.9164C171.343 31.8729 171.404 31.845 171.417 31.8325L171.477 31.7323L171.904 31.4231C171.984 31.3711 172.085 31.2818 172.209 31.159C172.329 31.0347 172.482 30.9151 172.656 30.7939C172.833 30.675 172.94 30.5834 172.978 30.5204C173.02 30.4575 173.071 30.3992 173.133 30.3449C173.196 30.2913 173.25 30.198 173.299 30.0605C173.3 30.0559 173.301 30.0512 173.303 30.0465C173.317 30.0512 173.331 30.0559 173.346 30.0559C173.52 30.0559 173.638 30.0124 173.7 29.9254C173.764 29.8383 173.82 29.777 173.877 29.7366L174.074 29.6861C174.188 29.6348 174.258 29.6068 174.285 29.6068C174.365 29.4996 174.443 29.4072 174.523 29.3264C174.623 29.3264 174.699 29.2922 174.752 29.2184C174.805 29.1431 174.839 29.105 174.852 29.098C175.058 29.0452 175.18 29.011 175.22 28.9993C175.261 28.983 175.306 28.917 175.36 28.7888L175.529 28.7088C175.609 28.6024 175.703 28.5247 175.814 28.4734C175.923 28.4245 175.994 28.3817 176.027 28.3491C176.061 28.3165 176.147 28.2668 176.291 28.2015C176.433 28.1339 176.525 28.0648 176.565 27.9941C176.604 27.9265 176.641 27.8892 176.673 27.8892C176.847 27.8892 176.934 27.9879 176.934 28.1805C176.935 28.2046 176.908 28.2644 176.854 28.3584C176.813 28.3724 176.78 28.4245 176.753 28.513C176.727 28.6024 176.708 28.6536 176.695 28.6668L176.566 28.8463C176.526 28.9737 176.471 29.0778 176.396 29.1648C176.325 29.2518 176.191 29.4888 175.997 29.8725C175.959 30.0442 175.907 30.1701 175.845 30.2462C175.782 30.3208 175.744 30.3938 175.731 30.4598C175.718 30.5274 175.685 30.6284 175.632 30.7659C175.579 30.9011 175.552 31.1287 175.553 31.4464C175.553 31.4993 175.59 31.5941 175.662 31.73C175.735 31.8675 175.794 32.0003 175.843 32.1316C175.89 32.266 176.029 32.3989 176.265 32.5309C176.502 32.6646 176.623 32.7298 176.63 32.7298L176.918 32.7096L177.077 32.6615C177.098 32.6615 177.147 32.6824 177.227 32.7283L177.466 32.6001L177.753 32.5403C178.106 32.2932 178.318 32.1697 178.39 32.1697C178.497 32.1697 178.551 32.1231 178.551 32.0299V32.0104L178.491 31.9118C178.491 31.852 178.53 31.8224 178.609 31.8224H178.65L178.708 31.8419C178.723 31.8419 178.773 31.8147 178.858 31.7619L178.898 31.6616C178.911 31.5684 178.936 31.5218 178.978 31.5218C178.991 31.5218 179.016 31.5358 179.058 31.563C179.097 31.5878 179.124 31.6018 179.138 31.6018C179.163 31.6018 179.217 31.5591 179.291 31.4775C179.368 31.3952 179.507 31.2748 179.715 31.1241C179.921 30.9702 180.08 30.8382 180.193 30.7255C180.305 30.6121 180.393 30.5445 180.458 30.5243C180.519 30.5057 180.569 30.4225 180.61 30.2742C180.715 30.2493 180.778 30.1942 180.799 30.1118C180.819 30.0295 180.853 29.9595 180.903 29.9075C180.952 29.8539 180.978 29.8135 180.978 29.7863C180.977 29.7467 180.971 29.7164 180.957 29.6962L180.937 29.5346ZM163.894 28.9154C163.658 29.1539 163.478 29.3202 163.353 29.4134C163.325 29.4926 163.243 29.5719 163.108 29.6488C162.973 29.7257 162.891 29.836 162.866 29.9828C162.765 30.0302 162.699 30.0753 162.667 30.1227C162.633 30.1701 162.543 30.226 162.396 30.292L162.187 30.4521C161.936 30.5919 161.752 30.6937 161.64 30.7605C161.593 30.8343 161.526 30.8918 161.442 30.9361C161.355 30.9796 161.295 31.0184 161.261 31.0541C161.229 31.093 161.196 31.114 161.163 31.1202C161.129 31.1272 161.101 31.1442 161.073 31.1691L160.885 31.2678C160.804 31.2965 160.751 31.3222 160.725 31.3501C160.7 31.3758 160.6 31.4239 160.431 31.4923C160.262 31.5638 160.15 31.5995 160.098 31.5995C159.972 31.5995 159.907 31.4379 159.907 31.1108C159.907 31.0588 159.946 30.9873 160.022 30.8972C160.098 30.8079 160.143 30.7077 160.157 30.5989C160.168 30.4886 160.216 30.4194 160.295 30.3884C160.376 30.3588 160.441 30.32 160.494 30.2749L160.564 30.1056C160.564 30.0854 160.65 30.0054 160.822 29.8663C160.869 29.6853 160.971 29.5696 161.132 29.5167C161.397 29.3303 161.551 29.1873 161.599 29.0871C161.679 29.0871 161.804 29.0226 161.978 28.8921C162.15 28.7616 162.344 28.6723 162.559 28.6171C162.776 28.5651 162.921 28.5154 162.998 28.4719C163.073 28.4299 163.165 28.4089 163.272 28.4074L163.469 28.4485L163.6 28.4276L163.74 28.4959L163.928 28.475L164.109 28.4944L164.189 28.447H164.207C164.234 28.447 164.247 28.4571 164.247 28.4742C164.247 28.5309 164.13 28.6762 163.894 28.9154Z" fill="#1D1D1B"/>
</g>
</svg>
