<svg width="24" height="30" viewBox="0 0 24 30" fill="none" xmlns="http://www.w3.org/2000/svg">
<path d="M6.39766 18.6098C6.28898 18.6098 6.18476 18.5666 6.10792 18.4897C6.03107 18.4129 5.9879 18.3087 5.9879 18.2C5.9879 18.0913 6.03107 17.9871 6.10792 17.9103C6.18476 17.8334 6.28898 17.7902 6.39766 17.7902H17.5977C17.7063 17.7902 17.8106 17.8334 17.8874 17.9103C17.9642 17.9871 18.0074 18.0913 18.0074 18.2C18.0074 18.3087 17.9642 18.4129 17.8874 18.4897C17.8106 18.5666 17.7063 18.6098 17.5977 18.6098H6.39766ZM6.39766 22.6098C6.28898 22.6098 6.18476 22.5666 6.10792 22.4897C6.03107 22.4129 5.9879 22.3087 5.9879 22.2C5.9879 22.0913 6.03107 21.9871 6.10792 21.9103C6.18476 21.8334 6.28898 21.7902 6.39766 21.7902H17.5977C17.7063 21.7902 17.8106 21.8334 17.8874 21.9103C17.9642 21.9871 18.0074 22.0913 18.0074 22.2C18.0074 22.3087 17.9642 22.4129 17.8874 22.4897C17.8106 22.5666 17.7063 22.6098 17.5977 22.6098H6.39766Z" fill="currentColor" stroke="currentColor" stroke-width="0.780488"/>
<path d="M14.7748 2.1954L21.6768 9.71822C21.6769 9.71828 21.6769 9.71835 21.677 9.71841L21.6771 9.71858L21.3896 9.98241L14.7748 2.1954ZM14.7748 2.1954C14.7747 2.19539 14.7747 2.19539 14.7747 2.19538L14.7748 2.1954ZM13.8968 0.99025L13.8969 0.99025C14.1756 0.99013 14.4512 1.04796 14.7063 1.16005C14.9614 1.27215 15.1904 1.43608 15.3788 1.64141L15.3788 1.64143L22.2812 9.16463L22.2813 9.16471C22.6215 9.53534 22.8104 10.0201 22.8105 10.5232C22.8105 10.5232 22.8105 10.5233 22.8105 10.5233V27C22.8105 27.533 22.5988 28.0442 22.2219 28.4211C21.845 28.798 21.3338 29.0098 20.8008 29.0098H3.20078C2.66776 29.0098 2.15657 28.798 1.77967 28.4211C1.40277 28.0442 1.19103 27.533 1.19103 27V3.00001C1.19103 2.46699 1.40277 1.9558 1.77967 1.57889C2.15657 1.20199 2.66776 0.99025 3.20078 0.99025L13.8968 0.99025ZM21.991 10.5232V10.5228L14.4872 2.45921C14.4121 2.3774 14.3209 2.31211 14.2193 2.26749C14.1176 2.22287 14.0078 2.19988 13.8968 2.20001V1.80976H13.8966H3.20078C2.88511 1.80976 2.58237 1.93516 2.35915 2.15838C2.13594 2.38159 2.01054 2.68433 2.01054 3.00001V27C2.01054 27.3157 2.13594 27.6184 2.35915 27.8416C2.58237 28.0648 2.88511 28.1902 3.20078 28.1902H20.8008C21.1164 28.1902 21.4192 28.0648 21.6424 27.8416C21.8656 27.6184 21.991 27.3157 21.991 27V10.5232Z" fill="currentColor" stroke="currentColor" stroke-width="0.780488"/>
<path d="M14.4023 2.36002V9.88002H21.9223" stroke="currentColor" stroke-width="0.780488" stroke-linecap="round" stroke-linejoin="round"/>
<path d="M9.54639 8.33436C9.38197 8.39808 9.20642 8.42814 9.03017 8.42274C8.68803 8.41226 8.36342 8.26898 8.12511 8.02327C7.8868 7.77755 7.75353 7.4487 7.75353 7.1064C7.75353 6.7641 7.8868 6.43525 8.12511 6.18954C8.36342 5.94382 8.68803 5.80054 9.03017 5.79006C9.20642 5.78466 9.38197 5.81472 9.54639 5.87844C9.71081 5.94217 9.86076 6.03826 9.98735 6.16103C10.1139 6.28379 10.2146 6.43073 10.2833 6.59313C10.352 6.75552 10.3874 6.93006 10.3874 7.1064C10.3874 7.28274 10.352 7.45728 10.2833 7.61967C10.2146 7.78207 10.1139 7.92901 9.98735 8.05177C9.86076 8.17454 9.71081 8.27064 9.54639 8.33436Z" fill="currentColor" stroke="currentColor" stroke-width="0.780488"/>
<path d="M9.01046 9.77263C10.7199 9.77263 12.033 10.9496 12.033 12.5104V13.3642C12.0328 13.4114 12.0139 13.4566 11.9805 13.49C11.9471 13.5234 11.9018 13.5423 11.8545 13.5425H6.16726C6.11977 13.5425 6.07423 13.5237 6.04061 13.4902C6.00708 13.4568 5.98814 13.4114 5.9879 13.3641V12.5104C5.9879 10.9481 7.30091 9.77263 9.01046 9.77263Z" fill="currentColor" stroke="currentColor" stroke-width="0.780488"/>
</svg>
