<svg width="32" height="32" viewBox="0 0 32 32" fill="none" xmlns="http://www.w3.org/2000/svg">
<path d="M9.33333 12V9.33334H28V12H9.33333ZM9.33333 17.3333V14.6667H28V17.3333H9.33333ZM9.33333 22.6667V20H28V22.6667H9.33333ZM5.33333 12C4.95556 12 4.63911 11.872 4.384 11.616C4.12889 11.36 4.00089 11.0436 4 10.6667C4 10.2889 4.128 9.97245 4.384 9.71734C4.64 9.46223 4.95644 9.33423 5.33333 9.33334C5.71111 9.33334 6.028 9.46134 6.284 9.71734C6.54 9.97334 6.66756 10.2898 6.66667 10.6667C6.66667 11.0445 6.53867 11.3613 6.28267 11.6173C6.02667 11.8733 5.71022 12.0009 5.33333 12ZM5.33333 17.3333C4.95556 17.3333 4.63911 17.2053 4.384 16.9493C4.12889 16.6933 4.00089 16.3769 4 16C4 15.6222 4.128 15.3058 4.384 15.0507C4.64 14.7956 4.95644 14.6676 5.33333 14.6667C5.71111 14.6667 6.028 14.7947 6.284 15.0507C6.54 15.3067 6.66756 15.6231 6.66667 16C6.66667 16.3778 6.53867 16.6947 6.28267 16.9507C6.02667 17.2067 5.71022 17.3342 5.33333 17.3333ZM5.33333 22.6667C4.95556 22.6667 4.63911 22.5387 4.384 22.2827C4.12889 22.0267 4.00089 21.7102 4 21.3333C4 20.9556 4.128 20.6391 4.384 20.384C4.64 20.1289 4.95644 20.0009 5.33333 20C5.71111 20 6.028 20.128 6.284 20.384C6.54 20.64 6.66756 20.9565 6.66667 21.3333C6.66667 21.7111 6.53867 22.028 6.28267 22.284C6.02667 22.54 5.71022 22.6676 5.33333 22.6667Z" fill="currentColor"/>
</svg>
