<svg width="18" height="18" viewBox="0 0 18 18" fill="none" xmlns="http://www.w3.org/2000/svg">
<path d="M13.27 9C13.2678 8.32768 13.1958 7.65741 13.055 7H14.855C14.7628 6.7256 14.6508 6.45824 14.52 6.2H12.845C12.5303 5.14796 12.0419 4.15595 11.4 3.265C10.99 3.0926 10.5625 2.96519 10.125 2.885C11.0046 3.82933 11.6682 4.95364 12.07 6.18H9.375V2.8H8.625V6.185H5.93C6.3326 4.95642 6.99803 3.83031 7.88 2.885C7.44441 2.96393 7.01861 3.08966 6.61 3.26C5.96557 4.14721 5.47381 5.13581 5.155 6.185H3.47C3.33681 6.44795 3.22317 6.72035 3.13 7H4.945C4.80422 7.65741 4.73217 8.32768 4.73 9C4.73151 9.73538 4.81537 10.4683 4.98 11.185H3.21C3.31287 11.4655 3.43655 11.7379 3.58 12H5.195C5.50096 12.958 5.95477 13.8622 6.54 14.68C6.95902 14.8596 7.39671 14.9921 7.845 15.075C7.02885 14.185 6.40126 13.139 6 12H8.63V15.17H9.38V12H12C11.5973 13.1394 10.9679 14.1854 10.15 15.075C10.6004 14.9893 11.0398 14.8534 11.46 14.67C12.0443 13.8553 12.4981 12.9545 12.805 12H14.405C14.5478 11.7428 14.6715 11.4754 14.775 11.2H13C13.1725 10.4792 13.2631 9.74116 13.27 9ZM8.625 11.185H5.755C5.40319 9.8089 5.38775 8.36833 5.71 6.985H8.625V11.185ZM12.245 11.185H9.375V7H12.29C12.4337 7.65686 12.5041 8.32762 12.5 9C12.5047 9.73602 12.419 10.4698 12.245 11.185Z" fill="currentColor"/>
<path d="M9 1C7.41775 1 5.87103 1.46919 4.55544 2.34824C3.23985 3.22729 2.21447 4.47672 1.60897 5.93853C1.00347 7.40034 0.84504 9.00887 1.15372 10.5607C1.4624 12.1126 2.22433 13.538 3.34315 14.6569C4.46197 15.7757 5.88743 16.5376 7.43928 16.8463C8.99113 17.155 10.5997 16.9965 12.0615 16.391C13.5233 15.7855 14.7727 14.7602 15.6518 13.4446C16.5308 12.129 17 10.5823 17 9C17 6.87827 16.1571 4.84344 14.6569 3.34315C13.1566 1.84285 11.1217 1 9 1ZM9 16C7.61553 16 6.26216 15.5895 5.11101 14.8203C3.95987 14.0511 3.06266 12.9579 2.53285 11.6788C2.00303 10.3997 1.86441 8.99224 2.13451 7.63437C2.4046 6.2765 3.07129 5.02922 4.05026 4.05025C5.02922 3.07128 6.2765 2.4046 7.63437 2.1345C8.99224 1.86441 10.3997 2.00303 11.6788 2.53284C12.9579 3.06266 14.0511 3.95986 14.8203 5.11101C15.5895 6.26215 16 7.61553 16 9C16 10.8565 15.2625 12.637 13.9498 13.9497C12.637 15.2625 10.8565 16 9 16Z" fill="currentColor"/>
</svg>
