<svg width="32" height="32" viewBox="0 0 32 32" fill="none" xmlns="http://www.w3.org/2000/svg">
<path d="M5.33352 24H26.6669C27.4002 24 28.0002 23.4 28.0002 22.6666C28.0002 21.9333 27.4002 21.3333 26.6669 21.3333H5.33352C4.60018 21.3333 4.00018 21.9333 4.00018 22.6666C4.00018 23.4 4.60018 24 5.33352 24ZM5.33352 17.3333H26.6669C27.4002 17.3333 28.0002 16.7333 28.0002 16C28.0002 15.2666 27.4002 14.6666 26.6669 14.6666H5.33352C4.60018 14.6666 4.00018 15.2666 4.00018 16C4.00018 16.7333 4.60018 17.3333 5.33352 17.3333ZM4.00018 9.3333C4.00018 10.0666 4.60018 10.6666 5.33352 10.6666H26.6669C27.4002 10.6666 28.0002 10.0666 28.0002 9.3333C28.0002 8.59997 27.4002 7.99997 26.6669 7.99997H5.33352C4.60018 7.99997 4.00018 8.59997 4.00018 9.3333Z" fill="currentColor"/>
</svg>
