<svg width="18" height="18" viewBox="0 0 18 18" fill="none" xmlns="http://www.w3.org/2000/svg">
<path fill-rule="evenodd" clip-rule="evenodd" d="M12.414 16.5998C11.334 16.56 8.27325 16.137 5.06775 12.9323C1.863 9.72675 1.44075 6.66675 1.40025 5.586C1.34025 3.939 2.60175 2.33925 4.059 1.7145C4.23448 1.63873 4.42665 1.60988 4.61665 1.63078C4.80664 1.65169 4.98794 1.72163 5.14275 1.83375C6.34275 2.70825 7.17075 4.03125 7.88175 5.0715C8.03819 5.30005 8.10508 5.57816 8.06967 5.85285C8.03426 6.12754 7.89903 6.3796 7.68975 6.561L6.2265 7.64775C6.15581 7.6988 6.10604 7.77377 6.08646 7.85874C6.06687 7.94371 6.07879 8.03291 6.12 8.10975C6.4515 8.712 7.041 9.609 7.716 10.284C8.391 10.959 9.33075 11.5875 9.975 11.9565C10.0558 12.0018 10.1509 12.0145 10.2407 11.9919C10.3305 11.9693 10.4083 11.9132 10.458 11.835L11.4105 10.3853C11.5856 10.1526 11.8439 9.9968 12.1314 9.95039C12.4188 9.90397 12.7131 9.97058 12.9525 10.1363C14.0078 10.8668 15.2393 11.6805 16.1407 12.8348C16.262 12.9907 16.3391 13.1763 16.364 13.3722C16.389 13.5682 16.3608 13.7672 16.2825 13.9485C15.6547 15.4133 14.0662 16.6605 12.414 16.5998Z" fill="currentColor"/>
</svg>
