<svg width="24" height="24" viewBox="0 0 24 24" fill="none" xmlns="http://www.w3.org/2000/svg">
<path d="M11 2.9C15.4709 2.9 19.1 6.52906 19.1 11C19.1 15.4709 15.4709 19.1 11 19.1C6.52906 19.1 2.9 15.4709 2.9 11C2.9 6.52906 6.52906 2.9 11 2.9ZM11 18.9C15.3641 18.9 18.9 15.3641 18.9 11C18.9 6.63594 15.3641 3.1 11 3.1C6.63594 3.1 3.1 6.63594 3.1 11C3.1 15.3641 6.63594 18.9 11 18.9ZM19.3437 19.4851L19.4851 19.3437L21.0411 20.8991L20.8991 21.0411L19.3437 19.4851Z" fill="currentColor" stroke="currentColor" stroke-width="1.8"/>
</svg>
