<svg width="16" height="16" viewBox="0 0 16 16" fill="none" xmlns="http://www.w3.org/2000/svg">
<path d="M6.8839 9.70909V9.66136C6.8892 9.15492 6.94223 8.75189 7.04299 8.45227C7.14374 8.15265 7.28693 7.91004 7.47253 7.72443C7.65814 7.53883 7.88087 7.3678 8.14071 7.21136C8.29715 7.11591 8.43768 7.00322 8.5623 6.8733C8.68693 6.74072 8.78503 6.58826 8.85662 6.41591C8.93087 6.24356 8.96799 6.05265 8.96799 5.84318C8.96799 5.58333 8.907 5.35795 8.78503 5.16705C8.66306 4.97614 8.49999 4.82898 8.29583 4.72557C8.09166 4.62216 7.86496 4.57045 7.61571 4.57045C7.39829 4.57045 7.18882 4.61553 6.9873 4.70568C6.78579 4.79583 6.61742 4.93769 6.48219 5.13125C6.34696 5.32481 6.26874 5.57803 6.24753 5.89091H5.24526C5.26647 5.44015 5.38314 5.05436 5.59526 4.73352C5.81003 4.41269 6.09242 4.16742 6.44242 3.99773C6.79507 3.82803 7.18617 3.74318 7.61571 3.74318C8.08238 3.74318 8.48806 3.83598 8.83276 4.02159C9.18011 4.2072 9.44791 4.46174 9.63617 4.78523C9.82708 5.10871 9.92253 5.47727 9.92253 5.89091C9.92253 6.18258 9.87746 6.4464 9.7873 6.68239C9.6998 6.91837 9.57253 7.12917 9.40549 7.31477C9.24109 7.50038 9.04223 7.66477 8.8089 7.80795C8.57556 7.95379 8.38863 8.10758 8.2481 8.26932C8.10757 8.42841 8.00549 8.61799 7.94185 8.83807C7.87821 9.05814 7.84374 9.33258 7.83844 9.66136V9.70909H6.8839ZM7.39299 12.0636C7.19677 12.0636 7.0284 11.9934 6.88787 11.8528C6.74734 11.7123 6.67708 11.5439 6.67708 11.3477C6.67708 11.1515 6.74734 10.9831 6.88787 10.8426C7.0284 10.7021 7.19677 10.6318 7.39299 10.6318C7.5892 10.6318 7.75757 10.7021 7.8981 10.8426C8.03863 10.9831 8.1089 11.1515 8.1089 11.3477C8.1089 11.4777 8.07575 11.597 8.00946 11.7057C7.94583 11.8144 7.85965 11.9019 7.75094 11.9682C7.64488 12.0318 7.52556 12.0636 7.39299 12.0636Z" fill="currentColor"/>
<circle cx="8" cy="8" r="7.6" stroke="currentColor" stroke-width="0.8"/>
</svg>
