<svg width="18" height="18" viewBox="0 0 18 18" fill="none" xmlns="http://www.w3.org/2000/svg">
<path fill-rule="evenodd" clip-rule="evenodd" d="M14.8327 3.32247C15.0181 3.24447 15.2209 3.21756 15.4202 3.24456C15.6195 3.27156 15.8079 3.35148 15.9658 3.47599C16.1237 3.6005 16.2453 3.76506 16.318 3.95254C16.3907 4.14001 16.4119 4.34355 16.3793 4.54197L14.6782 14.8597C14.5132 15.855 13.4212 16.4257 12.5085 15.93C11.745 15.5152 10.611 14.8762 9.591 14.2095C9.081 13.8757 7.51875 12.807 7.71075 12.0465C7.87575 11.3962 10.5008 8.95272 12.0008 7.49997C12.5895 6.92922 12.321 6.59997 11.6258 7.12497C9.89925 8.42847 7.12725 10.4107 6.21075 10.9687C5.40225 11.4607 4.98075 11.5447 4.47675 11.4607C3.55725 11.3077 2.7045 11.0707 2.0085 10.782C1.068 10.392 1.11375 9.09897 2.00775 8.72247L14.8327 3.32247Z" fill="currentColor"/>
</svg>
