<svg width="18" height="18" viewBox="0 0 18 18" fill="none" xmlns="http://www.w3.org/2000/svg">
<path d="M16.128 13.7858H14.4165C13.7692 13.7858 13.5743 13.2615 12.414 12.1005C11.4 11.1233 10.9718 11.0018 10.7153 11.0018C10.3605 11.0018 10.2638 11.0993 10.2638 11.5875V13.1265C10.2638 13.5428 10.1287 13.7865 9.04125 13.7865C7.98622 13.7156 6.96312 13.3951 6.05623 12.8514C5.14933 12.3076 4.38459 11.5562 3.825 10.659C2.49629 9.00527 1.57178 7.06432 1.125 4.99051C1.125 4.73401 1.2225 4.50151 1.7115 4.50151H3.4215C3.861 4.50151 4.01925 4.69726 4.19175 5.14951C5.022 7.59301 6.43875 9.71851 7.014 9.71851C7.2345 9.71851 7.3305 9.62101 7.3305 9.07126V6.55426C7.25775 5.40601 6.648 5.30926 6.648 4.89376C6.65571 4.78414 6.70586 4.68184 6.78778 4.6086C6.8697 4.53536 6.97695 4.49694 7.08675 4.50151H9.77475C10.1423 4.50151 10.2638 4.68451 10.2638 5.12401V8.52151C10.2638 8.88826 10.4213 9.00976 10.5323 9.00976C10.7528 9.00976 10.9222 8.88826 11.3265 8.48476C12.193 7.428 12.9009 6.25063 13.428 4.98976C13.4819 4.83837 13.5839 4.70879 13.7184 4.62077C13.8529 4.53275 14.0124 4.49113 14.1727 4.50226H15.8835C16.3965 4.50226 16.5052 4.75876 16.3965 5.12476C15.7743 6.51857 15.0044 7.84163 14.1 9.07126C13.9155 9.35251 13.842 9.49875 14.1 9.82875C14.2695 10.0853 14.8695 10.5863 15.2723 11.0625C15.8588 11.6475 16.3455 12.324 16.7137 13.065C16.8608 13.542 16.6163 13.7858 16.128 13.7858Z" fill="currentColor"/>
</svg>
