<svg width="17" height="17" viewBox="0 0 17 17" fill="none" xmlns="http://www.w3.org/2000/svg">
<path d="M13.1266 12.0128L16.5 15.3855L15.3855 16.5L12.0128 13.1266C10.7579 14.1325 9.19706 14.6797 7.58871 14.6774C3.67574 14.6774 0.5 11.5017 0.5 7.58871C0.5 3.67574 3.67574 0.5 7.58871 0.5C11.5017 0.5 14.6774 3.67574 14.6774 7.58871C14.6797 9.19706 14.1325 10.7579 13.1266 12.0128ZM11.5466 11.4284C12.546 10.4003 13.1042 9.02249 13.1021 7.58871C13.1021 4.54293 10.6345 2.07527 7.58871 2.07527C4.54293 2.07527 2.07527 4.54293 2.07527 7.58871C2.07527 10.6345 4.54293 13.1021 7.58871 13.1021C9.02249 13.1042 10.4003 12.546 11.4284 11.5466L11.5466 11.4284ZM6.80107 6.80107V4.43817H8.37634V6.80107H10.7392V8.37634H8.37634V10.7392H6.80107V8.37634H4.43817V6.80107H6.80107Z" fill="currentColor"/>
</svg>
