<svg width="324" height="415" viewBox="0 0 324 415" fill="none" xmlns="http://www.w3.org/2000/svg">
<g clip-path="url(#clip0_6_1241)">
<path d="M86.8351 420.447C108.439 395.226 142.153 375.412 174.19 368.814C149.155 341.388 133.524 305.835 130.055 268.429C124.185 205.126 153.496 137.835 206.804 102.419C233.458 84.7111 265.562 78.8319 297.013 73.7386C340.694 67.5114 384.974 67.7583 428.921 64.4085C449.783 62.4739 470.177 55.5039 487.16 43.0459C431.869 -5.51653 356.799 -32.6553 277.67 -25.3174C124.448 -11.1085 11.5405 124.88 25.6827 277.383C30.8192 332.773 52.1673 383.032 84.2245 423.591C84.8771 422.805 86.1824 421.233 86.8351 420.447Z" fill="white"/>
<path d="M507.931 63.6114C503.244 75.6547 496.331 87.1788 487.847 97.3976C482.626 103.686 477.271 108.536 471.264 114.172C465.19 119.088 458.397 124.071 451.47 127.616C445.263 131.094 438.989 133.852 433.434 136.544C456.964 163.383 473.181 197.431 476.783 236.276C479.918 270.085 472.916 304.109 456.814 333.899C439.541 366.699 413.94 387.937 382.317 406.831C360.366 420.475 338.213 431.961 313.436 438.612C288.659 445.263 263.482 447.598 237.519 449.28C202.137 451.11 164.13 448.105 130.135 457.062C125.886 458.181 122.422 459.954 118.106 460.354C127.939 472.502 145.552 482.477 159.367 490.628C173.969 499.431 189.942 507.382 206.435 513.108C240.207 525.212 275.603 531.362 311.771 530.185C317.592 530.37 323.347 529.837 329.821 529.236C483.043 515.027 595.231 379.106 581.089 226.603C574.499 163.367 548.235 107.034 507.931 63.6114Z" fill="white"/>
<path d="M195.286 424.175C223.993 420.787 253.62 419.491 282.061 413.226C311.94 406.828 343.51 395.193 368.911 371.797C381.645 360.459 392.606 345.657 399.052 329.098C405.497 312.538 408.212 294.873 407.33 277.542C404.915 243.666 388.831 211.057 363.61 189.453C354.964 182.274 344.945 175.948 333.688 171.913C311.893 163.777 284.491 165.592 267.122 181.714C247.728 199.474 245.761 233.031 267.571 249.147C273.859 254.368 281.253 255.859 287.927 257.417C281.253 255.859 273.059 245.736 269.581 239.529C265.184 231.23 264.316 221.878 267.899 213.565C274.997 196.22 294.872 191.474 312.017 196.414C322.488 199.797 331.854 206.909 339.915 215.593C356.036 232.962 365.498 256.753 365.475 279.973C365.451 303.192 356.462 323.615 339.026 339.017C335.044 343.014 330.275 346.359 324.787 349.77C291.926 370.956 252.629 377.502 215.556 384.567C162.724 393.82 103.299 410.214 74.4781 459.321C66.98 472.35 63.1452 485.766 60.8159 499.767L61.5353 499.7C67.6615 487.523 75.3598 476.652 84.6302 467.086C113.814 437.535 155.788 428.563 195.286 424.175Z" fill="white"/>
<path d="M382.993 93.3358C354.286 96.7235 324.659 98.0198 296.218 104.285C266.339 110.683 234.769 122.318 209.368 145.714C196.634 157.052 185.672 171.854 179.227 188.413C172.782 204.973 170.067 222.638 170.948 239.969C173.364 273.845 189.448 306.454 214.669 328.058C223.315 335.237 233.334 341.563 244.591 345.598C266.386 353.734 293.788 351.919 311.157 335.797C330.551 318.037 332.518 284.48 310.708 268.364C304.42 263.143 297.026 261.652 290.352 260.094C297.026 261.652 305.22 271.775 308.698 277.982C313.095 286.281 313.963 295.633 310.38 303.946C303.282 321.291 283.407 326.036 266.262 321.097C255.791 317.714 246.425 310.602 238.364 301.918C222.242 284.549 212.781 260.758 212.804 237.538C212.828 214.319 221.817 193.896 239.253 178.494C243.235 174.497 248.004 171.152 253.492 167.741C286.353 146.555 325.65 140.009 362.723 132.943C414.769 123.038 474.194 106.645 502.295 57.6042C509.794 44.5747 513.628 31.1594 515.958 17.1582L515.238 17.2249C509.112 29.4016 501.414 40.273 492.143 49.8392C464.399 79.2569 422.424 88.2282 382.993 93.3358Z" fill="white"/>
</g>
<defs>
<clipPath id="clip0_6_1241">
<rect width="557" height="557" fill="white" transform="translate(0 0.432007) rotate(-5.2981)"/>
</clipPath>
</defs>
</svg>
