<svg width="324" height="529" viewBox="0 0 324 529" fill="none" xmlns="http://www.w3.org/2000/svg">
<g clip-path="url(#clip0_513_14456)">
<path d="M86.8351 471.447C108.439 446.226 142.153 426.412 174.19 419.814C149.155 392.388 133.524 356.835 130.055 319.429C124.185 256.126 153.496 188.835 206.804 153.419C233.458 135.711 265.562 129.831 297.013 124.738C340.694 118.511 384.974 118.758 428.921 115.408C449.783 113.474 470.177 106.504 487.16 94.0456C431.869 45.4831 356.799 18.3444 277.67 25.6823C124.448 39.8911 11.5405 175.88 25.6827 328.382C30.8192 383.772 52.1673 434.031 84.2245 474.591C84.8771 473.805 86.1824 472.233 86.8351 471.447Z" fill="white"/>
<path d="M507.931 114.612C503.244 126.655 496.331 138.179 487.847 148.398C482.626 154.686 477.271 159.536 471.264 165.172C465.19 170.088 458.397 175.071 451.47 178.616C445.263 182.094 438.989 184.852 433.434 187.544C456.964 214.383 473.181 248.431 476.783 287.276C479.918 321.085 472.916 355.11 456.814 384.899C439.541 417.699 413.94 438.937 382.317 457.831C360.366 471.475 338.214 482.962 313.436 489.613C288.659 496.263 263.482 498.598 237.519 500.28C202.137 502.11 164.13 499.105 130.135 508.062C125.886 509.181 122.422 510.954 118.106 511.354C127.939 523.502 145.552 533.477 159.367 541.628C173.969 550.431 189.942 558.382 206.435 564.108C240.207 576.213 275.603 582.362 311.771 581.185C317.592 581.37 323.347 580.837 329.821 580.236C483.043 566.028 595.231 430.106 581.089 277.603C574.499 214.367 548.235 158.034 507.931 114.612Z" fill="white"/>
<path d="M195.286 475.175C223.993 471.787 253.62 470.491 282.061 464.226C311.94 457.827 343.51 446.193 368.911 422.797C381.645 411.459 392.606 396.657 399.052 380.097C405.497 363.538 408.212 345.873 407.33 328.542C404.915 294.666 388.831 262.057 363.61 240.453C354.964 233.274 344.945 226.948 333.688 222.913C311.893 214.776 284.491 216.592 267.122 232.713C247.728 250.474 245.761 284.031 267.571 300.147C273.859 305.368 281.253 306.859 287.927 308.417C281.253 306.859 273.059 296.736 269.581 290.528C265.184 282.23 264.316 272.878 267.899 264.565C274.997 247.219 294.872 242.474 312.017 247.414C322.488 250.796 331.854 257.909 339.915 266.593C356.036 283.962 365.498 307.753 365.475 330.972C365.451 354.192 356.462 374.615 339.026 390.017C335.044 394.014 330.275 397.358 324.787 400.769C291.926 421.955 252.628 428.502 215.556 435.567C162.724 444.82 103.299 461.213 74.4781 510.321C66.9799 523.35 63.1452 536.765 60.8159 550.767L61.5353 550.7C67.6615 538.523 75.3598 527.652 84.6302 518.086C113.813 488.534 155.788 479.563 195.286 475.175Z" fill="white"/>
<path d="M382.993 144.335C354.286 147.723 324.659 149.019 296.218 155.284C266.339 161.683 234.769 173.317 209.368 196.713C196.634 208.052 185.673 222.853 179.227 239.413C172.782 255.972 170.067 273.637 170.948 290.968C173.364 324.844 189.448 357.453 214.669 379.057C223.315 386.236 233.334 392.563 244.591 396.597C266.386 404.734 293.788 402.918 311.157 386.797C330.551 369.037 332.518 335.479 310.708 319.363C304.42 314.142 297.026 312.651 290.352 311.094C297.026 312.651 305.22 322.774 308.698 328.982C313.095 337.281 313.963 346.632 310.38 354.945C303.282 372.291 283.407 377.036 266.262 372.096C255.791 368.714 246.425 361.602 238.364 352.917C222.242 335.548 212.781 311.757 212.804 288.538C212.828 265.318 221.817 244.895 239.253 229.493C243.235 225.496 248.004 222.152 253.492 218.741C286.353 197.555 325.65 191.009 362.723 183.943C414.769 174.038 474.194 157.644 502.295 108.604C509.794 95.5742 513.628 82.1589 515.958 68.1577L515.238 68.2244C509.112 80.4011 501.414 91.2725 492.143 100.839C464.399 130.256 422.424 139.228 382.993 144.335Z" fill="white"/>
</g>
<defs>
<clipPath id="clip0_513_14456">
<rect width="557" height="557" fill="white" transform="translate(0 51.4316) rotate(-5.2981)"/>
</clipPath>
</defs>
</svg>
