<svg width="323" height="607" viewBox="0 0 323 607" fill="none" xmlns="http://www.w3.org/2000/svg">
<g clip-path="url(#clip0_711_37785)">
<path d="M60.9501 552.206C61.6028 551.419 61.5361 550.7 62.1887 549.914L61.4694 549.981C60.8834 551.486 60.9501 552.206 60.9501 552.206Z" fill="white"/>
<path d="M86.8351 471.447C108.439 446.226 142.153 426.412 174.19 419.814C149.155 392.388 133.524 356.835 130.055 319.429C124.185 256.126 153.496 188.835 206.804 153.419C233.458 135.711 265.562 129.832 297.013 124.739C340.694 118.511 384.974 118.758 428.921 115.408C449.783 113.474 470.177 106.504 487.16 94.0459C431.869 45.4835 356.799 18.3447 277.67 25.6826C124.448 39.8915 11.5405 175.88 25.6827 328.383C30.8192 383.773 52.1673 434.032 84.2245 474.591C84.8771 473.805 86.1824 472.233 86.8351 471.447Z" fill="white"/>
<path d="M507.932 114.611C503.245 126.655 496.332 138.179 487.848 148.398C482.627 154.686 477.272 159.536 471.265 165.172C465.191 170.088 458.398 175.071 451.471 178.616C445.264 182.094 438.99 184.852 433.435 187.544C456.965 214.383 473.182 248.431 476.784 287.276C479.919 321.085 472.917 355.109 456.815 384.899C439.542 417.699 413.941 438.937 382.318 457.831C360.366 471.475 338.214 482.962 313.437 489.612C288.66 496.263 263.483 498.598 237.52 500.28C202.138 502.11 164.131 499.105 130.136 508.062C125.887 509.181 122.423 510.954 118.107 511.354C127.94 523.502 145.552 533.477 159.368 541.628C173.97 550.431 189.943 558.382 206.436 564.108C240.208 576.212 275.604 582.362 311.772 581.185C317.593 581.37 323.348 580.837 329.822 580.236C483.044 566.027 595.232 430.106 581.09 277.603C574.5 214.367 548.236 158.034 507.932 114.611Z" fill="white"/>
<path d="M195.287 475.175C223.994 471.787 253.621 470.491 282.061 464.226C311.941 457.827 343.511 446.193 368.912 422.797C381.645 411.459 392.607 396.657 399.052 380.098C405.498 363.538 408.213 345.873 407.331 328.542C404.915 294.666 388.832 262.057 363.611 240.453C354.964 233.274 344.946 226.948 333.688 222.913C311.893 214.777 284.491 216.592 267.122 232.714C247.729 250.474 245.762 284.031 267.571 300.147C273.86 305.368 281.253 306.859 287.928 308.417C281.253 306.859 273.059 296.736 269.581 290.529C265.184 282.23 264.317 272.878 267.899 264.565C274.997 247.22 294.872 242.474 312.018 247.414C322.489 250.796 331.855 257.909 339.916 266.593C356.037 283.962 365.499 307.753 365.475 330.973C365.452 354.192 356.463 374.615 339.027 390.017C335.044 394.014 330.276 397.359 324.788 400.77C291.927 421.955 252.629 428.502 215.556 435.567C162.725 444.82 103.3 461.214 74.4787 510.321C66.9806 523.35 63.1458 536.766 60.8165 550.767L61.5359 550.7C67.6621 538.523 75.3604 527.652 84.6308 518.086C113.814 488.535 155.789 479.563 195.287 475.175Z" fill="white"/>
<path d="M382.992 144.336C354.285 147.724 324.658 149.02 296.218 155.285C266.338 161.683 234.768 173.318 209.367 196.714C196.633 208.052 185.672 222.854 179.226 239.413C172.781 255.973 170.066 273.638 170.948 290.969C173.364 324.845 189.447 357.454 214.668 379.058C223.315 386.237 233.333 392.563 244.59 396.598C266.386 404.734 293.788 402.919 311.157 386.797C330.55 369.037 332.517 335.48 310.708 319.364C304.419 314.143 297.025 312.652 290.351 311.094C297.025 312.652 305.22 322.775 308.697 328.982C313.095 337.281 313.962 346.633 310.38 354.946C303.282 372.291 283.407 377.037 266.261 372.097C255.79 368.714 246.424 361.602 238.363 352.918C222.242 335.549 212.78 311.758 212.804 288.538C212.827 265.319 221.816 244.896 239.252 229.494C243.234 225.497 248.003 222.152 253.491 218.741C286.352 197.555 325.65 191.009 362.722 183.944C414.768 174.038 474.193 157.645 502.295 108.604C509.793 95.5747 513.628 82.1594 515.957 68.1582L515.238 68.2249C509.111 80.4016 501.413 91.2731 492.143 100.839C464.398 130.257 422.423 139.228 382.992 144.336Z" fill="white"/>
</g>
<defs>
<clipPath id="clip0_711_37785">
<rect width="557" height="557" fill="white" transform="translate(0 51.432) rotate(-5.2981)"/>
</clipPath>
</defs>
</svg>
