<svg width="323" height="607" viewBox="0 0 323 607" fill="none" xmlns="http://www.w3.org/2000/svg">
<g clip-path="url(#clip0_639_17043)">
<path d="M60.9491 552.206C61.6018 551.419 61.5351 550.7 62.1877 549.914L61.4684 549.981C60.8824 551.486 60.9491 552.206 60.9491 552.206Z" fill="white"/>
<path d="M86.8351 471.447C108.439 446.226 142.153 426.413 174.19 419.814C149.155 392.388 133.524 356.835 130.055 319.429C124.185 256.126 153.496 188.835 206.804 153.419C233.458 135.711 265.562 129.832 297.013 124.739C340.694 118.511 384.974 118.758 428.922 115.408C449.783 113.474 470.177 106.504 487.16 94.0459C431.869 45.4835 356.799 18.3447 277.67 25.6826C124.448 39.8915 11.5405 175.88 25.6827 328.382C30.8192 383.773 52.1673 434.032 84.2245 474.591C84.8771 473.805 86.1824 472.233 86.8351 471.447Z" fill="white"/>
<path d="M507.931 114.611C503.244 126.655 496.331 138.179 487.847 148.398C482.626 154.686 477.271 159.536 471.264 165.172C465.19 170.088 458.397 175.071 451.47 178.616C445.263 182.094 438.989 184.852 433.434 187.544C456.964 214.383 473.181 248.431 476.783 287.276C479.918 321.085 472.916 355.109 456.814 384.899C439.541 417.699 413.94 438.937 382.317 457.831C360.365 471.475 338.213 482.961 313.436 489.612C288.659 496.263 263.482 498.598 237.519 500.28C202.137 502.11 164.13 499.105 130.135 508.062C125.886 509.181 122.422 510.954 118.106 511.354C127.939 523.502 145.552 533.477 159.367 541.628C173.969 550.431 189.942 558.382 206.435 564.108C240.207 576.212 275.603 582.362 311.771 581.185C317.592 581.37 323.347 580.837 329.821 580.236C483.043 566.027 595.231 430.106 581.089 277.603C574.499 214.367 548.235 158.034 507.931 114.611Z" fill="white"/>
<path d="M195.286 475.175C223.993 471.787 253.62 470.491 282.06 464.226C311.94 457.828 343.51 446.193 368.911 422.797C381.645 411.459 392.606 396.657 399.051 380.098C405.497 363.538 408.212 345.873 407.33 328.542C404.914 294.666 388.831 262.057 363.61 240.453C354.963 233.274 344.945 226.948 333.687 222.913C311.892 214.777 284.49 216.592 267.121 232.714C247.728 250.474 245.761 284.031 267.57 300.147C273.859 305.368 281.252 306.859 287.927 308.417C281.252 306.859 273.058 296.736 269.58 290.529C265.183 282.23 264.316 272.878 267.898 264.565C274.996 247.22 294.871 242.474 312.017 247.414C322.488 250.797 331.854 257.909 339.915 266.593C356.036 283.962 365.498 307.753 365.474 330.973C365.451 354.192 356.462 374.615 339.026 390.017C335.043 394.014 330.275 397.359 324.787 400.77C291.926 421.956 252.628 428.502 215.555 435.567C162.724 444.82 103.299 461.214 74.4778 510.321C66.9796 523.35 63.1449 536.766 60.8156 550.767L61.5349 550.7C67.6611 538.523 75.3594 527.652 84.6298 518.086C113.813 488.535 155.788 479.563 195.286 475.175Z" fill="white"/>
<path d="M382.993 144.336C354.286 147.724 324.659 149.02 296.218 155.285C266.339 161.683 234.769 173.318 209.368 196.714C196.634 208.052 185.673 222.854 179.227 239.413C172.782 255.973 170.067 273.638 170.949 290.969C173.365 324.845 189.448 357.454 214.669 379.058C223.316 386.237 233.334 392.563 244.591 396.598C266.387 404.734 293.789 402.919 311.158 386.797C330.551 369.037 332.518 335.48 310.709 319.364C304.42 314.143 297.026 312.652 290.352 311.094C297.026 312.652 305.221 322.775 308.698 328.982C313.096 337.281 313.963 346.633 310.381 354.946C303.283 372.291 283.408 377.036 266.262 372.097C255.791 368.714 246.425 361.602 238.364 352.918C222.243 335.549 212.781 311.758 212.805 288.538C212.828 265.319 221.817 244.896 239.253 229.494C243.235 225.497 248.004 222.152 253.492 218.741C286.353 197.555 325.651 191.009 362.723 183.943C414.769 174.038 474.194 157.645 502.296 108.604C509.794 95.5747 513.629 82.1594 515.958 68.1582L515.239 68.2249C509.112 80.4016 501.414 91.273 492.144 100.839C464.399 130.257 422.424 139.228 382.993 144.336Z" fill="white"/>
</g>
<defs>
<clipPath id="clip0_639_17043">
<rect width="557" height="557" fill="white" transform="translate(0 51.432) rotate(-5.2981)"/>
</clipPath>
</defs>
</svg>
