<svg width="288" height="573" viewBox="0 0 288 573" fill="none" xmlns="http://www.w3.org/2000/svg">
<g clip-path="url(#clip0_952_65548)">
<path d="M-231.165 460.447C-209.561 435.226 -175.847 415.412 -143.81 408.814C-168.845 381.388 -184.476 345.835 -187.945 308.429C-193.815 245.126 -164.504 177.835 -111.196 142.419C-84.5421 124.711 -52.4381 118.832 -20.9868 113.739C22.6936 107.511 66.9743 107.758 110.921 104.408C131.783 102.474 152.177 95.5039 169.16 83.0459C113.869 34.4835 38.7986 7.34474 -40.3301 14.6826C-193.552 28.8915 -306.459 164.88 -292.317 317.383C-287.181 372.773 -265.833 423.032 -233.776 463.591C-233.123 462.805 -231.818 461.233 -231.165 460.447Z" fill="white"/>
<path d="M189.932 103.611C185.245 115.655 178.332 127.179 169.848 137.398C164.627 143.686 159.272 148.536 153.265 154.172C147.191 159.088 140.398 164.071 133.471 167.616C127.264 171.094 120.99 173.852 115.435 176.544C138.965 203.383 155.182 237.431 158.784 276.276C161.919 310.085 154.917 344.109 138.815 373.899C121.542 406.699 95.941 427.937 64.3183 446.831C42.3664 460.475 20.2144 471.962 -4.56271 478.612C-29.3398 485.263 -54.5171 487.598 -80.4805 489.28C-115.862 491.11 -153.869 488.105 -187.864 497.062C-192.113 498.181 -195.577 499.954 -199.893 500.354C-190.06 512.502 -172.448 522.477 -158.632 530.628C-144.03 539.431 -128.057 547.382 -111.564 553.108C-77.7922 565.212 -42.3961 571.362 -6.22839 570.185C-0.406869 570.37 5.34795 569.837 11.8221 569.236C165.044 555.027 277.232 419.106 263.09 266.603C256.5 203.367 230.236 147.034 189.932 103.611Z" fill="white"/>
<path d="M-122.713 464.175C-94.0061 460.787 -64.3792 459.491 -35.9387 453.226C-6.05946 446.827 25.5109 435.193 50.9117 411.797C63.6455 400.459 74.607 385.657 81.0523 369.098C87.4976 352.538 90.2127 334.873 89.3311 317.542C86.9151 283.666 70.8315 251.057 45.6109 229.453C36.9642 222.274 26.9456 215.948 15.6883 211.913C-6.10679 203.777 -33.5089 205.592 -50.8779 221.714C-70.2715 239.474 -72.2384 273.031 -50.4288 289.147C-44.1403 294.368 -36.7467 295.859 -30.0724 297.417C-36.7467 295.859 -44.9408 285.736 -48.4186 279.529C-52.8159 271.23 -53.6831 261.878 -50.1007 253.565C-43.0028 236.22 -23.1278 231.474 -5.98232 236.414C4.48885 239.796 13.8549 246.909 21.9156 255.593C38.037 272.962 47.4986 296.753 47.4752 319.973C47.4519 343.192 38.4627 363.615 21.027 379.017C17.0444 383.014 12.2758 386.359 6.78781 389.77C-26.0734 410.955 -65.3709 417.502 -102.444 424.567C-155.275 433.82 -214.7 450.214 -243.521 499.321C-251.019 512.35 -254.854 525.766 -257.183 539.767L-256.464 539.7C-250.338 527.523 -242.64 516.652 -233.369 507.086C-204.186 477.535 -162.211 468.563 -122.713 464.175Z" fill="white"/>
<path d="M64.9923 133.336C36.2849 136.724 6.65804 138.02 -21.7825 144.285C-51.6617 150.683 -83.2321 162.318 -108.633 185.714C-121.367 197.052 -132.328 211.854 -138.774 228.413C-145.219 244.973 -147.934 262.638 -147.052 279.969C-144.636 313.845 -128.553 346.454 -103.332 368.058C-94.6854 375.237 -84.6668 381.563 -73.4095 385.598C-51.6144 393.734 -24.2123 391.919 -6.84335 375.797C12.5503 358.037 14.5172 324.48 -7.29237 308.364C-13.5809 303.143 -20.9745 301.652 -27.6488 300.094C-20.9745 301.652 -12.7804 311.775 -9.30258 317.982C-4.90532 326.281 -4.03811 335.633 -7.62043 343.946C-14.7184 361.291 -34.5934 366.037 -51.7389 361.097C-62.2101 357.714 -71.5761 350.602 -79.6368 341.918C-95.7582 324.549 -105.22 300.758 -105.196 277.538C-105.173 254.319 -96.1839 233.896 -78.7482 218.494C-74.7656 214.497 -69.997 211.152 -64.509 207.741C-31.6478 186.555 7.64971 180.009 44.7225 172.944C96.7682 163.038 156.193 146.645 184.295 97.6042C191.793 84.5748 195.628 71.1595 197.957 57.1582L197.238 57.2249C191.111 69.4016 183.413 80.2731 174.143 89.8392C146.398 119.257 104.423 128.228 64.9923 133.336Z" fill="white"/>
</g>
<defs>
<clipPath id="clip0_952_65548">
<rect width="557" height="557" fill="white" transform="translate(-318 40.432) rotate(-5.2981)"/>
</clipPath>
</defs>
</svg>
