<svg width="84" height="84" viewBox="0 0 84 84" fill="none" xmlns="http://www.w3.org/2000/svg">
<g id="codicon:file-pdf">
<rect x="2" y="2" width="80" height="80" stroke="white" stroke-width="4"/>
<path id="Vector" d="M17 11.65H16.65V12V36.65H12.35V9.64497L14.645 7.35H53.0326L54.6528 7.99808L70.9533 24.398L71.65 26.07V36.65H67.35V32V31.65H67H49.645L47.35 29.355V12V11.65H47H17ZM51.65 27V27.35H52H67H67.845L67.2475 26.7525L52.2475 11.7525L51.65 11.155V12V27ZM67 72.35H67.35V72V67V47V46.65H67H17H16.65V47V72V72.35H17H67ZM27.0138 61.6503L27.0138 61.65H27H25.4H25.05V62V66.65H22.35V52.35H27.3C29.1242 52.35 30.4399 52.7881 31.297 53.5601C32.148 54.3265 32.6 55.4703 32.6 57L32.6 57.005C32.609 57.6344 32.4812 58.2583 32.2256 58.8336C31.9713 59.4058 31.5964 59.9163 31.1268 60.3302C29.9542 61.2411 28.4976 61.7087 27.0138 61.6503ZM25.4 54.4H25.05V54.75V59.4V59.75H25.4H26.7C27.6446 59.75 28.4168 59.541 28.9555 59.0697C29.5028 58.5907 29.75 57.8935 29.75 57.05C29.75 56.2061 29.5024 55.5187 28.9512 55.0517C28.4115 54.5944 27.6398 54.4 26.7 54.4H25.4ZM48.85 59.3V59.3078L48.8503 59.3155C48.8941 60.302 48.7301 61.2866 48.3691 62.2057C48.0087 63.1229 47.4602 63.9543 46.7587 64.6464C46.0141 65.3295 45.1416 65.8584 44.1914 66.2024C43.2393 66.5471 42.2283 66.6994 41.2169 66.6504L41.2085 66.65H41.2H36.25V52.35H41.2C43.8333 52.35 45.7319 52.9172 46.9719 54.035C48.2045 55.146 48.85 56.8595 48.85 59.3ZM38.9 64.25V64.6H39.25H40.9426C41.6202 64.6279 42.2965 64.5191 42.9312 64.2799C43.5682 64.0399 44.1501 63.6735 44.642 63.2029L44.6524 63.1929L44.6619 63.1821C45.5946 62.1298 46.0753 60.7527 46.0005 59.349C46.0316 58.6934 45.9294 58.0382 45.6999 57.4232C45.4682 56.8022 45.1117 56.2353 44.6523 55.7574L44.6456 55.7504L44.6384 55.7438C44.1358 55.276 43.5431 54.9157 42.8965 54.6847C42.2535 54.4551 41.5705 54.3582 40.8891 54.4H39.25H38.9V54.75V64.25ZM61.6 52.35V54.4H56.65H56.3V54.75V58.45V58.8H56.65H61.15V60.85H56.65H56.3V61.2V66.65H53.6V52.35H61.6ZM12.35 74.355V44.645L14.645 42.35H69.355L71.65 44.645V74.355L69.355 76.65H14.645L12.35 74.355Z" fill="#38B6E2" stroke="white" stroke-width="0.7"/>
</g>
</svg>
