<svg width="129" height="129" viewBox="0 0 129 129" fill="none" xmlns="http://www.w3.org/2000/svg">
<g id="streamline:interface-weather-snow-flake-winter-freeze-snow-freezing-ice-cold-weather-snowflake" clip-path="url(#clip0_6001_7143)">
<path id="Vector" d="M46.0714 4.60718L64.5 23.0357M64.5 23.0357L82.9285 4.60718M64.5 23.0357V105.964M4.60712 82.9286L23.0357 64.5M23.0357 64.5L4.60712 46.0715M23.0357 64.5H105.964M82.9285 124.393L64.5 105.964M64.5 105.964L46.0714 124.393M124.393 46.0715L105.964 64.5M105.964 64.5L124.393 82.9286M32.25 32.25L46.0714 46.0715M46.0714 82.9286L32.25 96.75M96.75 32.25L82.9285 46.0715M82.9285 82.9286L96.75 96.75" stroke="#38B6E2" stroke-width="1.5" stroke-linecap="round" stroke-linejoin="round"/>
<path id="Vector_2" d="M93.4793 8.93954L93.6392 35.001M93.6392 35.001L119.701 34.8411M93.6392 35.001L35.3607 93.999M8.93954 35.5206L35.001 35.3607M35.001 35.3607L34.8411 9.29929M35.001 35.3607L93.999 93.6392M35.5206 120.06L35.3607 93.999M35.3607 93.999L9.29929 94.1589M120.06 93.4794L93.999 93.6392M93.999 93.6392L94.1589 119.701M64.2202 18.8925L64.3401 38.4385M38.4385 64.6599L18.8925 64.7798M110.108 64.2202L90.5614 64.3401M64.6599 90.5614L64.7798 110.108" stroke="#38B6E2" stroke-width="1.5" stroke-linecap="round" stroke-linejoin="round"/>
</g>
<defs>
<clipPath id="clip0_6001_7143">
<rect width="129" height="129" fill="white"/>
</clipPath>
</defs>
</svg>
