<svg width="170" height="38" viewBox="0 0 170 38" fill="none" xmlns="http://www.w3.org/2000/svg">
<path d="M124.607 35.596C124.182 35.596 123.756 35.5535 123.416 35.4259C123.033 35.2983 122.736 35.1282 122.48 34.9155L122.778 34.3201C123.033 34.5328 123.331 34.7029 123.629 34.788C123.926 34.873 124.267 34.9581 124.607 34.9581C125.032 34.9581 125.372 34.873 125.585 34.7454C125.798 34.5753 125.925 34.3627 125.925 34.1075C125.925 33.8949 125.84 33.7248 125.713 33.5972C125.585 33.4696 125.33 33.3845 125.032 33.2995L124.011 33.0868C123.544 33.0018 123.203 32.8317 122.991 32.5765C122.778 32.3213 122.651 32.0236 122.651 31.6409C122.651 31.3432 122.736 31.0455 122.906 30.7903C123.076 30.5351 123.331 30.365 123.629 30.2375C123.926 30.1099 124.309 30.0248 124.734 30.0248C125.117 30.0248 125.5 30.0673 125.84 30.1949C126.18 30.3225 126.436 30.4926 126.691 30.7053L126.393 31.3007C126.18 31.088 125.925 30.9179 125.67 30.8328C125.372 30.7478 125.117 30.6627 124.82 30.6627C124.394 30.6627 124.097 30.7478 123.884 30.9179C123.671 31.088 123.586 31.3007 123.586 31.5984C123.586 31.811 123.671 31.9811 123.799 32.1087C123.926 32.2363 124.139 32.3213 124.437 32.4064L125.457 32.619C125.968 32.7466 126.308 32.8742 126.563 33.1294C126.818 33.342 126.946 33.6397 126.946 34.0224C126.946 34.3627 126.861 34.6178 126.691 34.873C126.521 35.1282 126.265 35.2983 125.925 35.4259C125.415 35.5535 125.075 35.596 124.607 35.596Z" fill="#233B6D"/>
<path d="M128.945 37.9776L128.732 37.2546C129.072 37.1695 129.37 37.0845 129.583 36.9994C129.795 36.9144 130.008 36.7442 130.135 36.5741C130.306 36.404 130.433 36.1914 130.518 35.9362L130.816 35.2983L130.773 35.681L128.392 30.1524H129.327L131.284 34.9155H130.986L132.9 30.1524H133.835L131.411 35.9787C131.284 36.319 131.114 36.6167 130.944 36.8293C130.773 37.0419 130.603 37.2546 130.391 37.3822C130.178 37.5097 129.965 37.6373 129.753 37.7224C129.455 37.85 129.2 37.8925 128.945 37.9776Z" fill="#233B6D"/>
<path d="M137.663 35.596C137.238 35.596 136.812 35.5535 136.472 35.4259C136.089 35.2983 135.792 35.1282 135.536 34.9155L135.834 34.3201C136.089 34.5328 136.387 34.7029 136.685 34.788C136.982 34.873 137.323 34.9581 137.663 34.9581C138.088 34.9581 138.428 34.873 138.641 34.7454C138.854 34.5753 138.981 34.3627 138.981 34.1075C138.981 33.8949 138.896 33.7248 138.769 33.5972C138.641 33.4696 138.386 33.3845 138.088 33.2995L137.067 33.0868C136.6 33.0018 136.259 32.8317 136.047 32.5765C135.834 32.3213 135.707 32.0236 135.707 31.6409C135.707 31.3432 135.792 31.0455 135.962 30.7903C136.132 30.5351 136.387 30.365 136.685 30.2375C136.982 30.1099 137.365 30.0248 137.79 30.0248C138.173 30.0248 138.556 30.0673 138.896 30.1949C139.236 30.3225 139.492 30.4926 139.747 30.7053L139.449 31.3007C139.236 31.088 138.981 30.9179 138.726 30.8328C138.428 30.7478 138.173 30.6627 137.876 30.6627C137.45 30.6627 137.153 30.7478 136.94 30.9179C136.727 31.088 136.642 31.3007 136.642 31.5984C136.642 31.811 136.727 31.9811 136.855 32.1087C136.982 32.2363 137.195 32.3213 137.493 32.4064L138.513 32.619C139.024 32.7466 139.364 32.8742 139.619 33.1294C139.874 33.342 140.002 33.6397 140.002 34.0224C140.002 34.3627 139.917 34.6178 139.747 34.873C139.577 35.1282 139.321 35.2983 138.981 35.4259C138.471 35.5535 138.088 35.596 137.663 35.596Z" fill="#233B6D"/>
<path d="M144.127 35.596C143.574 35.596 143.192 35.4259 142.894 35.1282C142.596 34.8305 142.469 34.3627 142.469 33.7248V30.7478H141.405V30.0673H142.469V28.5789L143.362 28.3237V30.0673H144.935V30.7478H143.362V33.6397C143.362 34.065 143.447 34.3627 143.574 34.5753C143.702 34.7454 143.957 34.8305 144.255 34.8305C144.382 34.8305 144.51 34.8305 144.638 34.788C144.765 34.7454 144.85 34.7454 144.935 34.7029V35.4259C144.85 35.4684 144.723 35.5109 144.552 35.5109C144.425 35.596 144.297 35.596 144.127 35.596Z" fill="#233B6D"/>
<path d="M149.443 35.596C148.593 35.596 147.912 35.3408 147.444 34.873C146.934 34.3627 146.721 33.6822 146.721 32.8317C146.721 32.2788 146.849 31.7685 147.062 31.3432C147.274 30.9179 147.572 30.5777 147.955 30.365C148.337 30.1524 148.805 30.0248 149.273 30.0248C149.783 30.0248 150.166 30.1099 150.506 30.3225C150.847 30.5351 151.102 30.8328 151.272 31.2156C151.442 31.5984 151.527 32.0662 151.527 32.5765V32.9167H147.317V32.3213H150.932L150.762 32.4489C150.762 31.8535 150.634 31.4282 150.379 31.088C150.124 30.7478 149.741 30.6202 149.231 30.6202C148.678 30.6202 148.252 30.7903 147.955 31.1731C147.657 31.5558 147.487 32.0662 147.487 32.7041V32.7891C147.487 33.4696 147.657 33.9799 147.997 34.3201C148.338 34.6604 148.805 34.8305 149.401 34.8305C149.741 34.8305 150.039 34.788 150.294 34.7029C150.591 34.6178 150.847 34.4477 151.102 34.2351L151.4 34.8305C151.144 35.0431 150.847 35.2558 150.506 35.3833C150.209 35.5535 149.826 35.596 149.443 35.596Z" fill="#233B6D"/>
<path d="M153.994 35.5109V31.3432C153.994 31.1305 153.994 30.9179 153.951 30.7053C153.951 30.4926 153.909 30.28 153.909 30.0673H154.759L154.887 31.2581H154.759C154.887 30.8328 155.142 30.5351 155.44 30.3225C155.737 30.1099 156.12 29.9823 156.588 29.9823C157.056 29.9823 157.396 30.1099 157.694 30.3225C157.991 30.5351 158.162 30.8754 158.289 31.3432H158.119C158.247 30.9179 158.502 30.6202 158.842 30.365C159.182 30.1099 159.607 30.0248 160.033 30.0248C160.628 30.0248 161.096 30.1949 161.394 30.5351C161.691 30.8754 161.861 31.4282 161.861 32.1512V35.5535H160.968V32.2363C160.968 31.7259 160.883 31.3432 160.713 31.1305C160.543 30.9179 160.245 30.7903 159.863 30.7903C159.395 30.7903 159.055 30.9604 158.799 31.2581C158.544 31.5558 158.417 31.9811 158.417 32.534V35.596H157.524V32.2788C157.524 31.7685 157.439 31.3857 157.268 31.1731C157.098 30.9604 156.801 30.8328 156.418 30.8328C155.95 30.8328 155.61 31.003 155.355 31.3006C155.099 31.5983 154.972 32.0236 154.972 32.5765V35.6385H153.994V35.5109Z" fill="#233B6D"/>
<path d="M166.327 35.596C165.902 35.596 165.476 35.5535 165.136 35.4259C164.753 35.2983 164.456 35.1282 164.2 34.9155L164.498 34.3201C164.753 34.5328 165.051 34.7029 165.349 34.788C165.646 34.873 165.987 34.9581 166.327 34.9581C166.752 34.9581 167.092 34.873 167.305 34.7454C167.518 34.5753 167.645 34.3627 167.645 34.1075C167.645 33.8949 167.56 33.7248 167.433 33.5972C167.305 33.4696 167.05 33.3845 166.752 33.2995L165.731 33.0868C165.264 33.0018 164.923 32.8317 164.711 32.5765C164.498 32.3213 164.371 32.0236 164.371 31.6409C164.371 31.3432 164.456 31.0455 164.626 30.7903C164.796 30.5351 165.051 30.365 165.349 30.2375C165.646 30.1099 166.029 30.0248 166.454 30.0248C166.837 30.0248 167.22 30.0673 167.56 30.1949C167.9 30.3225 168.156 30.4926 168.411 30.7053L168.113 31.3007C167.9 31.088 167.645 30.9179 167.39 30.8328C167.092 30.7478 166.837 30.6627 166.539 30.6627C166.114 30.6627 165.817 30.7478 165.604 30.9179C165.391 31.088 165.306 31.3007 165.306 31.5984C165.306 31.811 165.391 31.9811 165.519 32.1087C165.646 32.2363 165.859 32.3213 166.157 32.4064L167.177 32.619C167.688 32.7466 168.028 32.8742 168.283 33.1294C168.538 33.342 168.666 33.6397 168.666 34.0224C168.666 34.3627 168.581 34.6178 168.411 34.873C168.241 35.1282 167.985 35.2983 167.645 35.4259C167.135 35.5535 166.752 35.596 166.327 35.596Z" fill="#233B6D"/>
<path d="M0.85022 29.6846C0.892748 29.6421 0.892748 29.5995 0.935276 29.557H0.892748C0.85022 29.6421 0.85022 29.6846 0.85022 29.6846Z" fill="#233B6D"/>
<path d="M2.80649 25.0916C4.20991 23.7307 6.29379 22.7525 8.20755 22.5399C6.88918 20.7962 6.1662 18.6273 6.1662 16.4158C6.1662 12.6734 8.25008 8.88836 11.5673 7.10219C13.2259 6.2091 15.1396 6.03898 17.0109 5.9114C19.6051 5.78382 22.1993 6.03898 24.7935 6.08151C26.0268 6.08151 27.2601 5.78382 28.3233 5.1459C25.3464 1.99882 21.0935 0 16.4155 0C7.35699 0 -0.000366211 7.35735 -0.000366211 16.3733C-0.000366211 19.648 0.977779 22.71 2.63637 25.2617C2.6789 25.2191 2.76396 25.1341 2.80649 25.0916Z" fill="#233B6D"/>
<path d="M29.4291 6.46426C29.0889 7.14471 28.6211 7.78263 28.0682 8.3355C27.728 8.67572 27.3878 8.93089 27.005 9.22859C26.6223 9.48376 26.197 9.73892 25.7717 9.90904C25.3889 10.0791 25.0062 10.2067 24.666 10.3343C25.8993 12.0354 26.6648 14.1193 26.6648 16.4158C26.6648 18.4146 26.0694 20.3709 24.9637 22.0295C23.7729 23.8582 22.1568 24.964 20.2005 25.8996C18.8396 26.58 17.4787 27.1329 15.9902 27.3881C14.5018 27.6432 13.0133 27.6432 11.4823 27.6007C9.39839 27.5157 7.18693 27.1329 5.14558 27.4731C4.89042 27.5157 4.67778 27.6007 4.42261 27.6007C4.93294 28.3662 5.91109 29.0467 6.67659 29.5995C7.48463 30.1949 8.37772 30.7478 9.31333 31.1731C11.2271 32.0662 13.2684 32.619 15.3948 32.7466C15.7351 32.7891 16.0753 32.7891 16.458 32.7891C25.5165 32.7891 32.8313 25.4318 32.8313 16.4158C32.7888 12.6734 31.5555 9.22859 29.4291 6.46426Z" fill="#233B6D"/>
<path d="M9.14319 25.8996C10.8443 25.8571 12.588 25.9421 14.2891 25.7295C16.0753 25.5168 17.989 25.0065 19.6051 23.7732C20.4131 23.1778 21.1361 22.3698 21.6039 21.4341C22.0717 20.4985 22.3269 19.4779 22.3694 18.4572C22.4119 16.4584 21.6464 14.4595 20.2855 13.0561C19.8177 12.5883 19.2649 12.163 18.6269 11.8653C17.3936 11.2699 15.7776 11.2274 14.6718 12.078C13.4385 13.0136 13.1408 14.9699 14.3316 16.0331C14.6718 16.3733 15.0971 16.5009 15.4799 16.6285C15.0971 16.5009 14.6718 15.863 14.5017 15.4802C14.2891 14.9699 14.2891 14.417 14.5443 13.9492C15.0546 12.9711 16.2454 12.8009 17.2235 13.1837C17.8189 13.4389 18.3293 13.9067 18.7545 14.4595C19.6051 15.5653 20.0304 17.0112 19.9028 18.3721C19.7752 19.733 19.1373 20.8813 18.0316 21.6893C17.7764 21.9019 17.4787 22.0721 17.1385 22.2422C15.0971 23.3054 12.7581 23.4755 10.5466 23.6881C7.39954 23.9433 3.82718 24.5812 1.87089 27.303C1.36056 28.026 1.06286 28.7915 0.85022 29.5995H0.892748C1.31803 28.9191 1.82836 28.3237 2.42376 27.8134C4.29499 26.2398 6.80415 25.9421 9.14319 25.8996Z" fill="#233B6D"/>
<path d="M47.8437 24.7513C46.3552 24.7513 44.9518 24.5812 43.7184 24.241C42.6127 23.9433 41.6346 23.518 40.8265 23.0077L42.4426 20.6686C43.2506 21.1364 43.5909 21.0939 44.5265 21.3916C45.6322 21.7318 46.7379 21.9019 47.8437 21.9019C48.9494 21.9019 49.7149 21.7318 50.2678 21.3491C50.8632 20.9663 51.1609 20.4135 51.1609 19.733C51.1609 19.1802 50.9482 18.7123 50.5655 18.3721C50.2252 18.0744 49.6724 17.8618 48.9919 17.7342L45.4621 17.0963C44.0587 16.7986 42.9955 16.2882 42.2725 15.5653C41.6346 14.8848 41.2518 13.9492 41.2518 12.8009C41.2518 11.7803 41.5495 10.8447 42.1024 10.0791C42.6552 9.27112 43.5058 8.67572 44.569 8.20791C45.6747 7.74011 46.9506 7.52747 48.4391 7.52747C49.7149 7.52747 50.9057 7.69758 52.0114 7.99527C53.0321 8.25044 53.8826 8.67572 54.6056 9.22859L52.9896 11.5676C52.3516 11.1424 52.139 11.0998 51.331 10.8447C50.3528 10.5044 49.4597 10.3343 48.5666 10.3343C47.3759 10.3343 46.5253 10.547 45.9724 10.9297C45.377 11.355 45.1219 11.9079 45.1219 12.5883C45.1219 13.0986 45.292 13.5239 45.6747 13.8641C46.015 14.2044 46.4828 14.417 47.1632 14.5871L50.7356 15.225C52.1815 15.4802 53.2873 15.948 54.0102 16.671C54.7332 17.3514 55.0734 18.2871 55.0734 19.5204C55.0734 20.6261 54.7757 21.6043 54.1803 22.3698C53.585 23.1353 52.7344 23.7732 51.6712 24.1985C50.608 24.5387 49.2896 24.7513 47.8437 24.7513Z" fill="#233B6D"/>
<path d="M70.7664 24.4111L63.4516 16.8836V24.4111H59.0712V0H63.4516V15.0549H64.0895L70.5112 7.82516H75.6146L68.5124 15.7354L76.0824 24.4111H70.7664Z" fill="#233B6D"/>
<path d="M81.3983 27.9835C82.1213 27.6858 82.4615 27.4306 82.9293 26.9628C83.4397 26.495 83.865 25.8571 84.1626 25.0916L84.5879 24.0709L77.5708 7.78263H82.1638L86.8419 19.0951L91.5625 7.78263H95.8579L88.2879 25.2617C87.735 26.5375 87.1396 27.6007 86.5017 28.4087C85.8638 29.2168 85.1833 29.8972 84.5029 30.365C83.7799 30.8328 82.9719 31.2156 82.1213 31.4708C81.3983 31.6834 80.6328 31.8535 79.8248 32.0236L81.3983 27.9835Z" fill="#233B6D"/>
<path d="M130.05 24.7513C128.222 24.7513 126.648 24.4111 125.33 23.6881C124.011 23.0077 122.991 21.987 122.268 20.7112C121.545 19.4353 121.162 17.8618 121.162 16.0756C121.162 14.2894 121.545 12.7584 122.268 11.4826C122.991 10.2067 124.011 9.22859 125.33 8.50561C126.648 7.82516 128.264 7.44241 130.05 7.44241C131.879 7.44241 133.453 7.78263 134.814 8.50561C136.132 9.18606 137.195 10.2067 137.876 11.4826C138.599 12.7584 138.981 14.332 138.981 16.0756C138.981 17.8618 138.599 19.4353 137.876 20.7112C137.153 21.987 136.132 22.9652 134.771 23.6881C133.453 24.4111 131.879 24.7513 130.05 24.7513ZM130.05 10.632C128.732 10.632 127.669 11.0998 126.861 11.9929C126.095 12.886 125.713 14.2469 125.713 16.0756C125.713 17.9043 126.095 19.3077 126.861 20.2008C127.626 21.1364 128.732 21.6043 130.05 21.6043C131.369 21.6043 132.432 21.1364 133.24 20.2008C134.006 19.3077 134.388 17.9043 134.388 16.0756C134.388 14.2469 134.006 12.8435 133.24 11.9929C132.432 11.0998 131.369 10.632 130.05 10.632Z" fill="#233B6D"/>
<path d="M159.225 24.4111L155.099 14.2044L151.102 24.4111H147.189L140.512 7.82516H145.02L149.401 19.3077L153.824 7.82516H156.716L161.181 19.5204L165.604 7.82516H169.772L163.137 24.4111H159.225Z" fill="#233B6D"/>
<path d="M99.813 24.4536V10.3343H97.3889L99.813 7.82516C99.813 4.46544 101.599 1.65859 104.619 0.85056C105.427 0.63792 106.362 0.510336 107.298 0.510336C109.042 0.510336 110.658 0.893088 111.891 1.61607C112.104 1.74365 112.359 1.87123 112.529 2.04135C112.146 2.63674 111.338 4.04016 110.743 5.01831C110.36 3.95511 109.424 2.80685 108.914 2.46663C108.404 2.1264 107.766 1.95629 107.128 1.95629C106.447 1.95629 105.852 2.16893 105.342 2.55168C104.406 3.27466 103.938 4.38039 103.768 5.52865C103.47 7.48494 104.023 7.82516 104.023 7.82516H108.574V10.3343H104.023V24.4536H99.813ZM112.997 24.4536V6.50679L116.016 1.91376H117.42V24.4111H112.997V24.4536Z" fill="#233B6D"/>
<path d="M21.9441 7.52747C20.243 7.57 18.4993 7.48494 16.7982 7.69758C15.012 7.91022 13.0983 8.42056 11.4822 9.65387C10.6742 10.2493 9.95118 11.0573 9.48337 11.9929C9.01557 12.9285 8.7604 13.9492 8.71787 14.9699C8.67534 16.9687 9.44085 18.9675 10.8017 20.3709C11.2696 20.8387 11.8224 21.264 12.4603 21.5617C13.6937 22.1571 15.3097 22.1996 16.4154 21.3491C17.6488 20.4135 17.9465 18.4572 16.7557 17.394C16.4154 17.0538 15.9902 16.9262 15.6074 16.7986C15.9902 16.9262 16.4154 17.5641 16.5856 17.9468C16.7982 18.4572 16.7982 19.01 16.543 19.4779C16.0327 20.456 14.8419 20.6261 13.8638 20.2434C13.2684 19.9882 12.758 19.5204 12.3328 18.9675C11.4822 17.8618 11.0569 16.4158 11.1845 15.0549C11.3121 13.694 11.95 12.5458 13.0557 11.7377C13.3109 11.5251 13.6086 11.355 13.9488 11.1849C15.9902 10.1217 18.3292 9.95157 20.5407 9.73893C23.6452 9.44123 27.2176 8.80331 29.1313 6.08151C29.6417 5.35854 29.9394 4.59303 30.152 3.785H30.1095C29.6842 4.46545 29.1739 5.06084 28.5785 5.57118C26.7923 7.14471 24.2831 7.44241 21.9441 7.52747Z" fill="#233B6D"/>
</svg>
