<svg width="150" height="34" viewBox="0 0 150 34" fill="none" xmlns="http://www.w3.org/2000/svg">
<path d="M109.875 31.3876C109.5 31.3876 109.125 31.3501 108.825 31.2376C108.488 31.1251 108.225 30.9751 108 30.7876L108.263 30.2626C108.488 30.4501 108.75 30.6001 109.013 30.6751C109.275 30.7501 109.575 30.8251 109.875 30.8251C110.25 30.8251 110.55 30.7501 110.737 30.6376C110.925 30.4876 111.038 30.3001 111.038 30.0751C111.038 29.8876 110.963 29.7376 110.85 29.6251C110.738 29.5126 110.513 29.4376 110.25 29.3626L109.35 29.1751C108.938 29.1001 108.638 28.9501 108.45 28.7251C108.263 28.5001 108.15 28.2376 108.15 27.9001C108.15 27.6376 108.225 27.3751 108.375 27.1501C108.525 26.9251 108.75 26.7751 109.013 26.6626C109.275 26.5501 109.612 26.4751 109.987 26.4751C110.325 26.4751 110.662 26.5126 110.962 26.6251C111.262 26.7376 111.487 26.8876 111.712 27.0751L111.45 27.6001C111.263 27.4126 111.037 27.2626 110.812 27.1876C110.55 27.1126 110.325 27.0376 110.062 27.0376C109.688 27.0376 109.425 27.1126 109.237 27.2626C109.05 27.4126 108.975 27.6001 108.975 27.8626C108.975 28.0501 109.05 28.2001 109.163 28.3126C109.275 28.4251 109.463 28.5001 109.725 28.5751L110.625 28.7626C111.075 28.8751 111.375 28.9876 111.6 29.2126C111.825 29.4001 111.938 29.6626 111.938 30.0001C111.938 30.3001 111.862 30.5251 111.712 30.7501C111.562 30.9751 111.338 31.1251 111.038 31.2376C110.588 31.3501 110.287 31.3876 109.875 31.3876Z" fill="white"/>
<path d="M113.7 33.4874L113.513 32.8499C113.813 32.7749 114.075 32.6999 114.263 32.6249C114.45 32.5499 114.638 32.3999 114.75 32.2499C114.9 32.0999 115.013 31.9124 115.088 31.6874L115.35 31.1249L115.313 31.4624L113.213 26.5874H114.038L115.763 30.7874H115.5L117.188 26.5874H118.013L115.875 31.7249C115.763 32.0249 115.613 32.2874 115.463 32.4749C115.313 32.6624 115.163 32.8499 114.975 32.9624C114.788 33.0749 114.6 33.1874 114.413 33.2624C114.15 33.3749 113.925 33.4124 113.7 33.4874Z" fill="white"/>
<path d="M121.387 31.3876C121.012 31.3876 120.637 31.3501 120.337 31.2376C120 31.1251 119.737 30.9751 119.512 30.7876L119.775 30.2626C120 30.4501 120.262 30.6001 120.525 30.6751C120.787 30.7501 121.087 30.8251 121.387 30.8251C121.762 30.8251 122.062 30.7501 122.25 30.6376C122.437 30.4876 122.55 30.3001 122.55 30.0751C122.55 29.8876 122.475 29.7376 122.362 29.6251C122.25 29.5126 122.025 29.4376 121.762 29.3626L120.862 29.1751C120.45 29.1001 120.15 28.9501 119.962 28.7251C119.775 28.5001 119.662 28.2376 119.662 27.9001C119.662 27.6376 119.737 27.3751 119.887 27.1501C120.037 26.9251 120.262 26.7751 120.525 26.6626C120.787 26.5501 121.125 26.4751 121.5 26.4751C121.837 26.4751 122.175 26.5126 122.475 26.6251C122.775 26.7376 123 26.8876 123.225 27.0751L122.962 27.6001C122.775 27.4126 122.55 27.2626 122.325 27.1876C122.062 27.1126 121.837 27.0376 121.575 27.0376C121.2 27.0376 120.937 27.1126 120.75 27.2626C120.562 27.4126 120.487 27.6001 120.487 27.8626C120.487 28.0501 120.562 28.2001 120.675 28.3126C120.787 28.4251 120.975 28.5001 121.237 28.5751L122.137 28.7626C122.587 28.8751 122.887 28.9876 123.112 29.2126C123.337 29.4001 123.45 29.6626 123.45 30.0001C123.45 30.3001 123.375 30.5251 123.225 30.7501C123.075 30.9751 122.85 31.1251 122.55 31.2376C122.1 31.3501 121.762 31.3876 121.387 31.3876Z" fill="white"/>
<path d="M127.087 31.3876C126.6 31.3876 126.263 31.2376 126 30.9751C125.737 30.7126 125.625 30.3001 125.625 29.7376V27.1126H124.688V26.5126H125.625V25.2001L126.413 24.9751V26.5126H127.8V27.1126H126.413V29.6626C126.413 30.0376 126.488 30.3001 126.6 30.4876C126.713 30.6376 126.938 30.7126 127.2 30.7126C127.313 30.7126 127.425 30.7126 127.538 30.6751C127.65 30.6376 127.725 30.6376 127.8 30.6001V31.2376C127.725 31.2751 127.612 31.3126 127.462 31.3126C127.35 31.3876 127.237 31.3876 127.087 31.3876Z" fill="white"/>
<path d="M131.775 31.3876C131.025 31.3876 130.425 31.1626 130.013 30.7501C129.563 30.3001 129.375 29.7001 129.375 28.9501C129.375 28.4626 129.487 28.0126 129.675 27.6376C129.862 27.2626 130.125 26.9626 130.462 26.7751C130.8 26.5876 131.212 26.4751 131.625 26.4751C132.075 26.4751 132.412 26.5501 132.712 26.7376C133.012 26.9251 133.238 27.1876 133.388 27.5251C133.538 27.8626 133.612 28.2751 133.612 28.7251V29.0251H129.9V28.5001H133.087L132.938 28.6126C132.938 28.0876 132.825 27.7126 132.6 27.4126C132.375 27.1126 132.037 27.0001 131.587 27.0001C131.1 27.0001 130.725 27.1501 130.462 27.4876C130.2 27.8251 130.05 28.2751 130.05 28.8376V28.9126C130.05 29.5126 130.2 29.9626 130.5 30.2626C130.8 30.5626 131.212 30.7126 131.737 30.7126C132.037 30.7126 132.3 30.6751 132.525 30.6001C132.787 30.5251 133.012 30.3751 133.237 30.1876L133.5 30.7126C133.275 30.9001 133.012 31.0876 132.712 31.2001C132.45 31.3501 132.112 31.3876 131.775 31.3876Z" fill="white"/>
<path d="M135.788 31.3125V27.6375C135.788 27.45 135.788 27.2625 135.75 27.075C135.75 26.8875 135.713 26.7 135.713 26.5125H136.463L136.575 27.5625H136.463C136.575 27.1875 136.8 26.925 137.063 26.7375C137.325 26.55 137.663 26.4375 138.075 26.4375C138.488 26.4375 138.788 26.55 139.05 26.7375C139.313 26.925 139.463 27.225 139.575 27.6375H139.425C139.538 27.2625 139.763 27 140.063 26.775C140.363 26.55 140.738 26.475 141.113 26.475C141.638 26.475 142.05 26.625 142.313 26.925C142.575 27.225 142.725 27.7125 142.725 28.35V31.35H141.938V28.425C141.938 27.975 141.863 27.6375 141.713 27.45C141.563 27.2625 141.3 27.15 140.963 27.15C140.55 27.15 140.25 27.3 140.025 27.5625C139.8 27.825 139.688 28.2 139.688 28.6875V31.3875H138.9V28.4625C138.9 28.0125 138.825 27.675 138.675 27.4875C138.525 27.3 138.263 27.1875 137.925 27.1875C137.513 27.1875 137.213 27.3375 136.988 27.6C136.763 27.8625 136.65 28.2375 136.65 28.725V31.425H135.788V31.3125Z" fill="white"/>
<path d="M146.662 31.3876C146.287 31.3876 145.912 31.3501 145.612 31.2376C145.275 31.1251 145.012 30.9751 144.787 30.7876L145.05 30.2626C145.275 30.4501 145.537 30.6001 145.8 30.6751C146.062 30.7501 146.362 30.8251 146.662 30.8251C147.037 30.8251 147.337 30.7501 147.525 30.6376C147.712 30.4876 147.825 30.3001 147.825 30.0751C147.825 29.8876 147.75 29.7376 147.637 29.6251C147.525 29.5126 147.3 29.4376 147.037 29.3626L146.137 29.1751C145.725 29.1001 145.425 28.9501 145.237 28.7251C145.05 28.5001 144.937 28.2376 144.937 27.9001C144.937 27.6376 145.012 27.3751 145.162 27.1501C145.312 26.9251 145.537 26.7751 145.8 26.6626C146.062 26.5501 146.4 26.4751 146.775 26.4751C147.112 26.4751 147.45 26.5126 147.75 26.6251C148.05 26.7376 148.275 26.8876 148.5 27.0751L148.237 27.6001C148.05 27.4126 147.825 27.2626 147.6 27.1876C147.337 27.1126 147.112 27.0376 146.85 27.0376C146.475 27.0376 146.212 27.1126 146.025 27.2626C145.837 27.4126 145.762 27.6001 145.762 27.8626C145.762 28.0501 145.837 28.2001 145.95 28.3126C146.062 28.4251 146.25 28.5001 146.512 28.5751L147.412 28.7626C147.862 28.8751 148.162 28.9876 148.387 29.2126C148.612 29.4001 148.725 29.6626 148.725 30.0001C148.725 30.3001 148.65 30.5251 148.5 30.7501C148.35 30.9751 148.125 31.1251 147.825 31.2376C147.375 31.3501 147.037 31.3876 146.662 31.3876Z" fill="white"/>
<path d="M0.75 26.175C0.7875 26.1375 0.7875 26.1 0.825 26.0625H0.7875C0.75 26.1375 0.75 26.175 0.75 26.175Z" fill="white"/>
<path d="M2.475 22.125C3.7125 20.925 5.55 20.0625 7.2375 19.875C6.075 18.3375 5.4375 16.425 5.4375 14.475C5.4375 11.175 7.275 7.8375 10.2 6.2625C11.6625 5.475 13.35 5.325 15 5.2125C17.2875 5.1 19.575 5.325 21.8625 5.3625C22.95 5.3625 24.0375 5.1 24.975 4.5375C22.35 1.7625 18.6 0 14.475 0C6.4875 0 0 6.4875 0 14.4375C0 17.325 0.8625 20.025 2.325 22.275C2.3625 22.2375 2.4375 22.1625 2.475 22.125Z" fill="white"/>
<path d="M25.95 5.7002C25.65 6.3002 25.2375 6.8627 24.75 7.3502C24.45 7.6502 24.15 7.8752 23.8125 8.1377C23.475 8.3627 23.1 8.5877 22.725 8.7377C22.3875 8.8877 22.05 9.0002 21.75 9.1127C22.8375 10.6127 23.5125 12.4502 23.5125 14.4752C23.5125 16.2377 22.9875 17.9627 22.0125 19.4252C20.9625 21.0377 19.5375 22.0127 17.8125 22.8377C16.6125 23.4377 15.4125 23.9252 14.1 24.1502C12.7875 24.3752 11.475 24.3752 10.125 24.3377C8.28752 24.2627 6.33752 23.9252 4.53752 24.2252C4.31252 24.2627 4.12502 24.3377 3.90002 24.3377C4.35002 25.0127 5.21252 25.6127 5.88752 26.1002C6.60002 26.6252 7.38752 27.1127 8.21252 27.4877C9.90002 28.2752 11.7 28.7627 13.575 28.8752C13.875 28.9127 14.175 28.9127 14.5125 28.9127C22.5 28.9127 28.95 22.4252 28.95 14.4752C28.9125 11.1752 27.825 8.1377 25.95 5.7002Z" fill="white"/>
<path d="M8.0625 22.8377C9.5625 22.8002 11.1 22.8752 12.6 22.6877C14.175 22.5002 15.8625 22.0502 17.2875 20.9627C18 20.4377 18.6375 19.7252 19.05 18.9002C19.4625 18.0752 19.6875 17.1752 19.725 16.2752C19.7625 14.5127 19.0875 12.7502 17.8875 11.5127C17.475 11.1002 16.9875 10.7252 16.425 10.4627C15.3375 9.9377 13.9125 9.9002 12.9375 10.6502C11.85 11.4752 11.5875 13.2002 12.6375 14.1377C12.9375 14.4377 13.3125 14.5502 13.65 14.6627C13.3125 14.5502 12.9375 13.9877 12.7875 13.6502C12.6 13.2002 12.6 12.7127 12.825 12.3002C13.275 11.4377 14.325 11.2877 15.1875 11.6252C15.7125 11.8502 16.1625 12.2627 16.5375 12.7502C17.2875 13.7252 17.6625 15.0002 17.55 16.2002C17.4375 17.4002 16.875 18.4127 15.9 19.1252C15.675 19.3127 15.4125 19.4627 15.1125 19.6127C13.3125 20.5502 11.25 20.7002 9.3 20.8877C6.525 21.1127 3.375 21.6752 1.65 24.0752C1.2 24.7127 0.9375 25.3877 0.75 26.1002H0.7875C1.1625 25.5002 1.6125 24.9752 2.1375 24.5252C3.7875 23.1377 6 22.8752 8.0625 22.8377Z" fill="white"/>
<path d="M42.1875 21.8252C40.875 21.8252 39.6375 21.6752 38.55 21.3752C37.575 21.1127 36.7125 20.7377 36 20.2877L37.425 18.2252C38.1375 18.6377 38.4375 18.6002 39.2625 18.8627C40.2375 19.1627 41.2125 19.3127 42.1875 19.3127C43.1625 19.3127 43.8375 19.1627 44.325 18.8252C44.85 18.4877 45.1125 18.0002 45.1125 17.4002C45.1125 16.9127 44.925 16.5002 44.5875 16.2002C44.2875 15.9377 43.8 15.7502 43.2 15.6377L40.0875 15.0752C38.85 14.8127 37.9125 14.3627 37.275 13.7252C36.7125 13.1252 36.375 12.3002 36.375 11.2877C36.375 10.3877 36.6375 9.5627 37.125 8.8877C37.6125 8.1752 38.3625 7.65019 39.3 7.23769C40.275 6.82519 41.4 6.6377 42.7125 6.6377C43.8375 6.6377 44.8875 6.78769 45.8625 7.05019C46.7625 7.27519 47.5125 7.6502 48.15 8.1377L46.725 10.2002C46.1625 9.8252 45.975 9.78769 45.2625 9.5627C44.4 9.2627 43.6125 9.11269 42.825 9.11269C41.775 9.11269 41.025 9.3002 40.5375 9.6377C40.0125 10.0127 39.7875 10.5002 39.7875 11.1002C39.7875 11.5502 39.9375 11.9252 40.275 12.2252C40.575 12.5252 40.9875 12.7127 41.5875 12.8627L44.7375 13.4252C46.0125 13.6502 46.9875 14.0627 47.625 14.7002C48.2625 15.3002 48.5625 16.1252 48.5625 17.2127C48.5625 18.1877 48.3 19.0502 47.775 19.7252C47.25 20.4002 46.5 20.9627 45.5625 21.3377C44.625 21.6377 43.4625 21.8252 42.1875 21.8252Z" fill="white"/>
<path d="M62.4 21.525L55.95 14.8875V21.525H52.0875V0H55.95V13.275H56.5125L62.175 6.9H66.675L60.4125 13.875L67.0875 21.525H62.4Z" fill="white"/>
<path d="M71.775 24.6748C72.4125 24.4123 72.7125 24.1873 73.125 23.7748C73.575 23.3623 73.95 22.7998 74.2125 22.1248L74.5875 21.2248L68.4 6.8623H72.45L76.575 16.8373L80.7375 6.8623H84.525L77.85 22.2748C77.3625 23.3998 76.8375 24.3373 76.275 25.0498C75.7125 25.7623 75.1125 26.3623 74.5125 26.7748C73.875 27.1873 73.1625 27.5248 72.4125 27.7498C71.775 27.9373 71.1 28.0873 70.3875 28.2373L71.775 24.6748Z" fill="white"/>
<path d="M114.675 21.825C113.063 21.825 111.675 21.525 110.513 20.8875C109.35 20.2875 108.45 19.3875 107.813 18.2625C107.175 17.1375 106.838 15.75 106.838 14.175C106.838 12.6 107.175 11.25 107.813 10.125C108.45 9 109.35 8.1375 110.513 7.5C111.675 6.9 113.1 6.5625 114.675 6.5625C116.288 6.5625 117.675 6.8625 118.875 7.5C120.038 8.1 120.975 9 121.575 10.125C122.213 11.25 122.55 12.6375 122.55 14.175C122.55 15.75 122.213 17.1375 121.575 18.2625C120.938 19.3875 120.038 20.25 118.838 20.8875C117.675 21.525 116.288 21.825 114.675 21.825ZM114.675 9.375C113.513 9.375 112.575 9.7875 111.863 10.575C111.188 11.3625 110.85 12.5625 110.85 14.175C110.85 15.7875 111.188 17.025 111.863 17.8125C112.538 18.6375 113.513 19.05 114.675 19.05C115.838 19.05 116.775 18.6375 117.488 17.8125C118.163 17.025 118.5 15.7875 118.5 14.175C118.5 12.5625 118.163 11.325 117.488 10.575C116.775 9.7875 115.838 9.375 114.675 9.375Z" fill="white"/>
<path d="M140.4 21.5249L136.763 12.5249L133.238 21.5249H129.788L123.9 6.8999H127.875L131.738 17.0249L135.638 6.8999H138.188L142.125 17.2124L146.025 6.8999H149.7L143.85 21.5249H140.4Z" fill="white"/>
<path d="M88.0125 21.5627V9.11269H85.875L88.0125 6.9002C88.0125 3.93769 89.5875 1.4627 92.25 0.750195C92.9625 0.562695 93.7875 0.450195 94.6125 0.450195C96.15 0.450195 97.575 0.787695 98.6625 1.4252C98.85 1.5377 99.075 1.6502 99.225 1.8002C98.8875 2.3252 98.175 3.5627 97.65 4.4252C97.3125 3.4877 96.4875 2.4752 96.0375 2.1752C95.5875 1.8752 95.025 1.7252 94.4625 1.7252C93.8625 1.7252 93.3375 1.9127 92.8875 2.2502C92.0625 2.8877 91.65 3.8627 91.5 4.8752C91.2375 6.6002 91.725 6.9002 91.725 6.9002H95.7375V9.11269H91.725V21.5627H88.0125ZM99.6375 21.5627V5.7377L102.3 1.6877H103.538V21.5252H99.6375V21.5627Z" fill="white"/>
<path d="M19.35 6.6374C17.85 6.6749 16.3125 6.5999 14.8125 6.7874C13.2375 6.9749 11.55 7.4249 10.125 8.5124C9.41252 9.0374 8.77502 9.7499 8.36252 10.5749C7.95002 11.3999 7.72502 12.2999 7.68752 13.1999C7.65002 14.9624 8.32502 16.7249 9.52502 17.9624C9.93752 18.3749 10.425 18.7499 10.9875 19.0124C12.075 19.5374 13.5 19.5749 14.475 18.8249C15.5625 17.9999 15.825 16.2749 14.775 15.3374C14.475 15.0374 14.1 14.9249 13.7625 14.8124C14.1 14.9249 14.475 15.4874 14.625 15.8249C14.8125 16.2749 14.8125 16.7624 14.5875 17.1749C14.1375 18.0374 13.0875 18.1874 12.225 17.8499C11.7 17.6249 11.25 17.2124 10.875 16.7249C10.125 15.7499 9.75002 14.4749 9.86252 13.2749C9.97502 12.0749 10.5375 11.0624 11.5125 10.3499C11.7375 10.1624 12 10.0124 12.3 9.8624C14.1 8.9249 16.1625 8.7749 18.1125 8.5874C20.85 8.3249 24 7.7624 25.6875 5.3624C26.1375 4.7249 26.4 4.0499 26.5875 3.3374H26.55C26.175 3.9374 25.725 4.4624 25.2 4.9124C23.625 6.2999 21.4125 6.5624 19.35 6.6374Z" fill="white"/>
</svg>
