<svg width="0" height="0" class="hidden">
  <symbol fill="none" xmlns="http://www.w3.org/2000/svg" viewBox="0 0 18 18" id="ic_arr_hor">
    <path d="M5.25 1.49994L12.75 8.99994L5.25 16.4999" stroke="currentColor" stroke-width="1.5"></path>
  </symbol>
  <symbol fill="none" xmlns="http://www.w3.org/2000/svg" viewBox="0 0 24 24" id="ic_arr_ver">
    <path d="M2 7L12 17L22 7" stroke="currentColor" stroke-width="2"></path>
  </symbol>
  <symbol fill="none" xmlns="http://www.w3.org/2000/svg" viewBox="0 0 28 28" id="ic_arrow_hor">
    <path d="M24.9091 14.0001L3.09093 14.0001M3.09093 14.0001L12.9091 23.8182M3.09093 14.0001L12.9091 4.18187" stroke="currentColor" stroke-width="2"></path>
  </symbol>
  <symbol fill="none" xmlns="http://www.w3.org/2000/svg" viewBox="0 0 18 18" id="ic_arrow_link">
    <path d="M3.6967 3.69668L14.3033 14.3033M14.3033 14.3033V4.75734M14.3033 14.3033H4.75736" stroke="currentColor" stroke-width="2"></path>
  </symbol>
  <symbol fill="none" xmlns="http://www.w3.org/2000/svg" viewBox="0 0 16 465" id="ic_arrow_ver_big">
    <path d="M7.29287 464.707C7.6834 465.098 8.31656 465.098 8.70709 464.707L15.071 458.343C15.4616 457.953 15.4616 457.319 15.071 456.929C14.6805 456.538 14.0474 456.538 13.6568 456.929L7.99998 462.586L2.34313 456.929C1.9526 456.538 1.31944 456.538 0.928912 456.929C0.538388 457.319 0.538388 457.953 0.928912 458.343L7.29287 464.707ZM7 -4.37114e-08L6.99998 464L8.99998 464L9 4.37114e-08L7 -4.37114e-08Z" fill="currentColor"></path>
  </symbol>
  <symbol fill="none" xmlns="http://www.w3.org/2000/svg" viewBox="0 0 12 10" id="ic_check">
    <path d="M4 9.4L0 5.4L1.4 4L4 6.6L10.6 0L12 1.4L4 9.4Z" fill="currentColor"></path>
  </symbol>
  <symbol fill="none" xmlns="http://www.w3.org/2000/svg" viewBox="0 0 28 28" id="ic_close">
    <path d="M5.90918 5.90909L21.9092 21.9091M5.90918 21.9091L21.9092 5.90909" stroke="currentColor" stroke-width="2" stroke-linejoin="round"></path>
  </symbol>
  <symbol fill="none" xmlns="http://www.w3.org/2000/svg" viewBox="0 0 32 32" id="ic_grid">
    <path fill-rule="evenodd" clip-rule="evenodd" d="M21.3335 21.3333H26.6668V26.6667H21.3335V21.3333ZM13.3335 21.3333H18.6668V26.6667H13.3335V21.3333ZM5.3335 21.3333H10.6668V26.6667H5.3335V21.3333ZM21.3335 13.3333H26.6668V18.6667H21.3335V13.3333ZM13.3335 13.3333H18.6668V18.6667H13.3335V13.3333ZM5.3335 13.3333H10.6668V18.6667H5.3335V13.3333ZM21.3335 5.33334H26.6668V10.6667H21.3335V5.33334ZM13.3335 5.33334H18.6668V10.6667H13.3335V5.33334ZM5.3335 5.33334H10.6668V10.6667H5.3335V5.33334Z" fill="currentColor"></path>
  </symbol>
  <symbol fill="none" xmlns="http://www.w3.org/2000/svg" viewBox="0 0 32 32" id="ic_menu">
    <path d="M5.33352 24H26.6669C27.4002 24 28.0002 23.4 28.0002 22.6666C28.0002 21.9333 27.4002 21.3333 26.6669 21.3333H5.33352C4.60018 21.3333 4.00018 21.9333 4.00018 22.6666C4.00018 23.4 4.60018 24 5.33352 24ZM5.33352 17.3333H26.6669C27.4002 17.3333 28.0002 16.7333 28.0002 16C28.0002 15.2666 27.4002 14.6666 26.6669 14.6666H5.33352C4.60018 14.6666 4.00018 15.2666 4.00018 16C4.00018 16.7333 4.60018 17.3333 5.33352 17.3333ZM4.00018 9.3333C4.00018 10.0666 4.60018 10.6666 5.33352 10.6666H26.6669C27.4002 10.6666 28.0002 10.0666 28.0002 9.3333C28.0002 8.59997 27.4002 7.99997 26.6669 7.99997H5.33352C4.60018 7.99997 4.00018 8.59997 4.00018 9.3333Z" fill="currentColor"></path>
  </symbol>
  <symbol fill="none" xmlns="http://www.w3.org/2000/svg" viewBox="0 0 24 24" id="ic_search">
    <path d="M11 2.9C15.4709 2.9 19.1 6.52906 19.1 11C19.1 15.4709 15.4709 19.1 11 19.1C6.52906 19.1 2.9 15.4709 2.9 11C2.9 6.52906 6.52906 2.9 11 2.9ZM11 18.9C15.3641 18.9 18.9 15.3641 18.9 11C18.9 6.63594 15.3641 3.1 11 3.1C6.63594 3.1 3.1 6.63594 3.1 11C3.1 15.3641 6.63594 18.9 11 18.9ZM19.3437 19.4851L19.4851 19.3437L21.0411 20.8991L20.8991 21.0411L19.3437 19.4851Z" fill="currentColor" stroke="currentColor" stroke-width="1.8"></path>
  </symbol>
  <symbol fill="none" xmlns="http://www.w3.org/2000/svg" viewBox="0 0 24 24" id="ic_sort">
    <path d="M4 11H16V13H4V11ZM4 6H20V8H4V6ZM4 18H11.235V16H4V18Z" fill="currentColor"></path>
  </symbol>
  <symbol fill="none" xmlns="http://www.w3.org/2000/svg" viewBox="0 0 24 24" id="ic_youtube">
    <path d="M10 15L15.19 12L10 9V15ZM21.56 7.17C21.69 7.64 21.78 8.27 21.84 9.07C21.91 9.87 21.94 10.56 21.94 11.16L22 12C22 14.19 21.84 15.8 21.56 16.83C21.31 17.73 20.73 18.31 19.83 18.56C19.36 18.69 18.5 18.78 17.18 18.84C15.88 18.91 14.69 18.94 13.59 18.94L12 19C7.81 19 5.2 18.84 4.17 18.56C3.27 18.31 2.69 17.73 2.44 16.83C2.31 16.36 2.22 15.73 2.16 14.93C2.09 14.13 2.06 13.44 2.06 12.84L2 12C2 9.81 2.16 8.2 2.44 7.17C2.69 6.27 3.27 5.69 4.17 5.44C4.64 5.31 5.5 5.22 6.82 5.16C8.12 5.09 9.31 5.06 10.41 5.06L12 5C16.19 5 18.8 5.16 19.83 5.44C20.73 5.69 21.31 6.27 21.56 7.17Z" fill="currentColor"></path>
  </symbol>
  <symbol fill="none" xmlns="http://www.w3.org/2000/svg" viewBox="0 0 18 18" id="ic_filter">
    <path d="M3 13.5H15C15.4125 13.5 15.75 13.1625 15.75 12.75C15.75 12.3375 15.4125 12 15 12H3C2.5875 12 2.25 12.3375 2.25 12.75C2.25 13.1625 2.5875 13.5 3 13.5ZM3 9.75H15C15.4125 9.75 15.75 9.4125 15.75 9C15.75 8.5875 15.4125 8.25 15 8.25H3C2.5875 8.25 2.25 8.5875 2.25 9C2.25 9.4125 2.5875 9.75 3 9.75ZM2.25 5.25C2.25 5.6625 2.5875 6 3 6H15C15.4125 6 15.75 5.6625 15.75 5.25C15.75 4.8375 15.4125 4.5 15 4.5H3C2.5875 4.5 2.25 4.8375 2.25 5.25Z" fill="currentColor"></path>
    <circle cx="6" cy="5.25" r="1.5" fill="currentColor"></circle>
    <circle cx="11.25" cy="9" r="1.5" fill="currentColor"></circle>
    <circle cx="7.5" cy="12.75" r="1.5" fill="currentColor"></circle>
  </symbol>
  <symbol fill="none" xmlns="http://www.w3.org/2000/svg" viewBox="0 0 18 18" id="ic_langs">
    <path d="M13.27 9C13.2678 8.32768 13.1958 7.65741 13.055 7H14.855C14.7628 6.7256 14.6508 6.45824 14.52 6.2H12.845C12.5303 5.14796 12.0419 4.15595 11.4 3.265C10.99 3.0926 10.5625 2.96519 10.125 2.885C11.0046 3.82933 11.6682 4.95364 12.07 6.18H9.375V2.8H8.625V6.185H5.93C6.3326 4.95642 6.99803 3.83031 7.88 2.885C7.44441 2.96393 7.01861 3.08966 6.61 3.26C5.96557 4.14721 5.47381 5.13581 5.155 6.185H3.47C3.33681 6.44795 3.22317 6.72035 3.13 7H4.945C4.80422 7.65741 4.73217 8.32768 4.73 9C4.73151 9.73538 4.81537 10.4683 4.98 11.185H3.21C3.31287 11.4655 3.43655 11.7379 3.58 12H5.195C5.50096 12.958 5.95477 13.8622 6.54 14.68C6.95902 14.8596 7.39671 14.9921 7.845 15.075C7.02885 14.185 6.40126 13.139 6 12H8.63V15.17H9.38V12H12C11.5973 13.1394 10.9679 14.1854 10.15 15.075C10.6004 14.9893 11.0398 14.8534 11.46 14.67C12.0443 13.8553 12.4981 12.9545 12.805 12H14.405C14.5478 11.7428 14.6715 11.4754 14.775 11.2H13C13.1725 10.4792 13.2631 9.74116 13.27 9ZM8.625 11.185H5.755C5.40319 9.8089 5.38775 8.36833 5.71 6.985H8.625V11.185ZM12.245 11.185H9.375V7H12.29C12.4337 7.65686 12.5041 8.32762 12.5 9C12.5047 9.73602 12.419 10.4698 12.245 11.185Z" fill="currentColor"></path>
    <path d="M9 1C7.41775 1 5.87103 1.46919 4.55544 2.34824C3.23985 3.22729 2.21447 4.47672 1.60897 5.93853C1.00347 7.40034 0.84504 9.00887 1.15372 10.5607C1.4624 12.1126 2.22433 13.538 3.34315 14.6569C4.46197 15.7757 5.88743 16.5376 7.43928 16.8463C8.99113 17.155 10.5997 16.9965 12.0615 16.391C13.5233 15.7855 14.7727 14.7602 15.6518 13.4446C16.5308 12.129 17 10.5823 17 9C17 6.87827 16.1571 4.84344 14.6569 3.34315C13.1566 1.84285 11.1217 1 9 1ZM9 16C7.61553 16 6.26216 15.5895 5.11101 14.8203C3.95987 14.0511 3.06266 12.9579 2.53285 11.6788C2.00303 10.3997 1.86441 8.99224 2.13451 7.63437C2.4046 6.2765 3.07129 5.02922 4.05026 4.05025C5.02922 3.07128 6.2765 2.4046 7.63437 2.1345C8.99224 1.86441 10.3997 2.00303 11.6788 2.53284C12.9579 3.06266 14.0511 3.95986 14.8203 5.11101C15.5895 6.26215 16 7.61553 16 9C16 10.8565 15.2625 12.637 13.9498 13.9497C12.637 15.2625 10.8565 16 9 16Z" fill="currentColor"></path>
  </symbol>
  <symbol fill="none" xmlns="http://www.w3.org/2000/svg" viewBox="0 0 32 32" id="ic_list">
    <path d="M9.33333 12V9.33334H28V12H9.33333ZM9.33333 17.3333V14.6667H28V17.3333H9.33333ZM9.33333 22.6667V20H28V22.6667H9.33333ZM5.33333 12C4.95556 12 4.63911 11.872 4.384 11.616C4.12889 11.36 4.00089 11.0436 4 10.6667C4 10.2889 4.128 9.97245 4.384 9.71734C4.64 9.46223 4.95644 9.33423 5.33333 9.33334C5.71111 9.33334 6.028 9.46134 6.284 9.71734C6.54 9.97334 6.66756 10.2898 6.66667 10.6667C6.66667 11.0445 6.53867 11.3613 6.28267 11.6173C6.02667 11.8733 5.71022 12.0009 5.33333 12ZM5.33333 17.3333C4.95556 17.3333 4.63911 17.2053 4.384 16.9493C4.12889 16.6933 4.00089 16.3769 4 16C4 15.6222 4.128 15.3058 4.384 15.0507C4.64 14.7956 4.95644 14.6676 5.33333 14.6667C5.71111 14.6667 6.028 14.7947 6.284 15.0507C6.54 15.3067 6.66756 15.6231 6.66667 16C6.66667 16.3778 6.53867 16.6947 6.28267 16.9507C6.02667 17.2067 5.71022 17.3342 5.33333 17.3333ZM5.33333 22.6667C4.95556 22.6667 4.63911 22.5387 4.384 22.2827C4.12889 22.0267 4.00089 21.7102 4 21.3333C4 20.9556 4.128 20.6391 4.384 20.384C4.64 20.1289 4.95644 20.0009 5.33333 20C5.71111 20 6.028 20.128 6.284 20.384C6.54 20.64 6.66756 20.9565 6.66667 21.3333C6.66667 21.7111 6.53867 22.028 6.28267 22.284C6.02667 22.54 5.71022 22.6676 5.33333 22.6667Z" fill="currentColor"></path>
  </symbol>
  <symbol fill="none" xmlns="http://www.w3.org/2000/svg" viewBox="0 0 18 18" id="ic_phone">
    <path fill-rule="evenodd" clip-rule="evenodd" d="M12.414 16.5998C11.334 16.56 8.27325 16.137 5.06775 12.9323C1.863 9.72675 1.44075 6.66675 1.40025 5.586C1.34025 3.939 2.60175 2.33925 4.059 1.7145C4.23448 1.63873 4.42665 1.60988 4.61665 1.63078C4.80664 1.65169 4.98794 1.72163 5.14275 1.83375C6.34275 2.70825 7.17075 4.03125 7.88175 5.0715C8.03819 5.30005 8.10508 5.57816 8.06967 5.85285C8.03426 6.12754 7.89903 6.3796 7.68975 6.561L6.2265 7.64775C6.15581 7.6988 6.10604 7.77377 6.08646 7.85874C6.06687 7.94371 6.07879 8.03291 6.12 8.10975C6.4515 8.712 7.041 9.609 7.716 10.284C8.391 10.959 9.33075 11.5875 9.975 11.9565C10.0558 12.0018 10.1509 12.0145 10.2407 11.9919C10.3305 11.9693 10.4083 11.9132 10.458 11.835L11.4105 10.3853C11.5856 10.1526 11.8439 9.9968 12.1314 9.95039C12.4188 9.90397 12.7131 9.97058 12.9525 10.1363C14.0078 10.8668 15.2393 11.6805 16.1407 12.8348C16.262 12.9907 16.3391 13.1763 16.364 13.3722C16.389 13.5682 16.3608 13.7672 16.2825 13.9485C15.6547 15.4133 14.0662 16.6605 12.414 16.5998Z" fill="currentColor"></path>
  </symbol>
  <symbol fill="none" xmlns="http://www.w3.org/2000/svg" viewBox="0 0 18 18" id="ic_tg">
    <path fill-rule="evenodd" clip-rule="evenodd" d="M14.8327 3.32247C15.0181 3.24447 15.2209 3.21756 15.4202 3.24456C15.6195 3.27156 15.8079 3.35148 15.9658 3.47599C16.1237 3.6005 16.2453 3.76506 16.318 3.95254C16.3907 4.14001 16.4119 4.34355 16.3793 4.54197L14.6782 14.8597C14.5132 15.855 13.4212 16.4257 12.5085 15.93C11.745 15.5152 10.611 14.8762 9.591 14.2095C9.081 13.8757 7.51875 12.807 7.71075 12.0465C7.87575 11.3962 10.5008 8.95272 12.0008 7.49997C12.5895 6.92922 12.321 6.59997 11.6258 7.12497C9.89925 8.42847 7.12725 10.4107 6.21075 10.9687C5.40225 11.4607 4.98075 11.5447 4.47675 11.4607C3.55725 11.3077 2.7045 11.0707 2.0085 10.782C1.068 10.392 1.11375 9.09897 2.00775 8.72247L14.8327 3.32247Z" fill="currentColor"></path>
  </symbol>
  <symbol fill="none" xmlns="http://www.w3.org/2000/svg" viewBox="0 0 16 16" id="ic_tooltip">
    <path d="M6.8839 9.70909V9.66136C6.8892 9.15492 6.94223 8.75189 7.04299 8.45227C7.14374 8.15265 7.28693 7.91004 7.47253 7.72443C7.65814 7.53883 7.88087 7.3678 8.14071 7.21136C8.29715 7.11591 8.43768 7.00322 8.5623 6.8733C8.68693 6.74072 8.78503 6.58826 8.85662 6.41591C8.93087 6.24356 8.96799 6.05265 8.96799 5.84318C8.96799 5.58333 8.907 5.35795 8.78503 5.16705C8.66306 4.97614 8.49999 4.82898 8.29583 4.72557C8.09166 4.62216 7.86496 4.57045 7.61571 4.57045C7.39829 4.57045 7.18882 4.61553 6.9873 4.70568C6.78579 4.79583 6.61742 4.93769 6.48219 5.13125C6.34696 5.32481 6.26874 5.57803 6.24753 5.89091H5.24526C5.26647 5.44015 5.38314 5.05436 5.59526 4.73352C5.81003 4.41269 6.09242 4.16742 6.44242 3.99773C6.79507 3.82803 7.18617 3.74318 7.61571 3.74318C8.08238 3.74318 8.48806 3.83598 8.83276 4.02159C9.18011 4.2072 9.44791 4.46174 9.63617 4.78523C9.82708 5.10871 9.92253 5.47727 9.92253 5.89091C9.92253 6.18258 9.87746 6.4464 9.7873 6.68239C9.6998 6.91837 9.57253 7.12917 9.40549 7.31477C9.24109 7.50038 9.04223 7.66477 8.8089 7.80795C8.57556 7.95379 8.38863 8.10758 8.2481 8.26932C8.10757 8.42841 8.00549 8.61799 7.94185 8.83807C7.87821 9.05814 7.84374 9.33258 7.83844 9.66136V9.70909H6.8839ZM7.39299 12.0636C7.19677 12.0636 7.0284 11.9934 6.88787 11.8528C6.74734 11.7123 6.67708 11.5439 6.67708 11.3477C6.67708 11.1515 6.74734 10.9831 6.88787 10.8426C7.0284 10.7021 7.19677 10.6318 7.39299 10.6318C7.5892 10.6318 7.75757 10.7021 7.8981 10.8426C8.03863 10.9831 8.1089 11.1515 8.1089 11.3477C8.1089 11.4777 8.07575 11.597 8.00946 11.7057C7.94583 11.8144 7.85965 11.9019 7.75094 11.9682C7.64488 12.0318 7.52556 12.0636 7.39299 12.0636Z" fill="currentColor"></path>
    <circle cx="8" cy="8" r="7.6" stroke="currentColor" stroke-width="0.8"></circle>
  </symbol>
  <symbol fill="none" xmlns="http://www.w3.org/2000/svg" viewBox="0 0 18 18" id="ic_vk">
    <path d="M16.128 13.7858H14.4165C13.7692 13.7858 13.5743 13.2615 12.414 12.1005C11.4 11.1233 10.9718 11.0018 10.7153 11.0018C10.3605 11.0018 10.2638 11.0993 10.2638 11.5875V13.1265C10.2638 13.5428 10.1287 13.7865 9.04125 13.7865C7.98622 13.7156 6.96312 13.3951 6.05623 12.8514C5.14933 12.3076 4.38459 11.5562 3.825 10.659C2.49629 9.00527 1.57178 7.06432 1.125 4.99051C1.125 4.73401 1.2225 4.50151 1.7115 4.50151H3.4215C3.861 4.50151 4.01925 4.69726 4.19175 5.14951C5.022 7.59301 6.43875 9.71851 7.014 9.71851C7.2345 9.71851 7.3305 9.62101 7.3305 9.07126V6.55426C7.25775 5.40601 6.648 5.30926 6.648 4.89376C6.65571 4.78414 6.70586 4.68184 6.78778 4.6086C6.8697 4.53536 6.97695 4.49694 7.08675 4.50151H9.77475C10.1423 4.50151 10.2638 4.68451 10.2638 5.12401V8.52151C10.2638 8.88826 10.4213 9.00976 10.5323 9.00976C10.7528 9.00976 10.9222 8.88826 11.3265 8.48476C12.193 7.428 12.9009 6.25063 13.428 4.98976C13.4819 4.83837 13.5839 4.70879 13.7184 4.62077C13.8529 4.53275 14.0124 4.49113 14.1727 4.50226H15.8835C16.3965 4.50226 16.5052 4.75876 16.3965 5.12476C15.7743 6.51857 15.0044 7.84163 14.1 9.07126C13.9155 9.35251 13.842 9.49875 14.1 9.82875C14.2695 10.0853 14.8695 10.5863 15.2723 11.0625C15.8588 11.6475 16.3455 12.324 16.7137 13.065C16.8608 13.542 16.6163 13.7858 16.128 13.7858Z" fill="currentColor"></path>
  </symbol>
  <symbol fill="none" xmlns="http://www.w3.org/2000/svg" viewBox="0 0 17 17" id="ic_zoom">
    <path d="M13.1266 12.0128L16.5 15.3855L15.3855 16.5L12.0128 13.1266C10.7579 14.1325 9.19706 14.6797 7.58871 14.6774C3.67574 14.6774 0.5 11.5017 0.5 7.58871C0.5 3.67574 3.67574 0.5 7.58871 0.5C11.5017 0.5 14.6774 3.67574 14.6774 7.58871C14.6797 9.19706 14.1325 10.7579 13.1266 12.0128ZM11.5466 11.4284C12.546 10.4003 13.1042 9.02249 13.1021 7.58871C13.1021 4.54293 10.6345 2.07527 7.58871 2.07527C4.54293 2.07527 2.07527 4.54293 2.07527 7.58871C2.07527 10.6345 4.54293 13.1021 7.58871 13.1021C9.02249 13.1042 10.4003 12.546 11.4284 11.5466L11.5466 11.4284ZM6.80107 6.80107V4.43817H8.37634V6.80107H10.7392V8.37634H8.37634V10.7392H6.80107V8.37634H4.43817V6.80107H6.80107Z" fill="currentColor"></path>
  </symbol>
</svg>